{
.appVersion = "3337";
.formatVersion = 3;
DisplayStrings = (
"₿₵₡₫₲₾₺₼₦₱₽₹₩",

glyphs = (
{
glyphname = A;
kernLeft = KO_A;
kernRight = KO_A;
lastChange = "2025-01-06 07:55:01 +0000";
layers = (
{
anchors = (
{
name = bottom;
pos = (306,0);
},
{
name = ogonek;
pos = (564,0);
},
{
name = top;
pos = (304,700);
}
);
background = {
shapes = (
{
closed = 1;
nodes = (
(332,632,l),
(313,694,l),
(296,694,l),
(275,632,l)
);
}
);
};
layerId = master01;
shapes = (
{
closed = 1;
nodes = (
(155,0,l),
(155,16,l),
(87,45,l),
(87,28,l),
(286,632,l),
(321,632,l),
(519,28,l),
(519,45,l),
(451,16,l),
(451,0,l),
(602,0,l),
(602,16,l),
(529,45,l),
(538,27,l),
(312,705,l),
(295,705,l),
(69,27,l),
(77,45,l),
(5,16,l),
(5,0,l)
);
},
{
closed = 1;
nodes = (
(456,236,l),
(456,261,l),
(151,261,l),
(151,236,l)
);
}
);
userData = {
com.hugojourdan.ColorFlow = {
"0" = 0;
"1" = 0;
"10" = 0;
"11" = 0;
"2" = 0;
"3" = 0;
"4" = 0;
"5" = 0;
"6" = 0;
"7" = 0;
"8" = 0;
"9" = 0;
};
};
vertWidth = 750;
width = 607;
},
{
anchors = (
{
name = bottom;
pos = (340,0);
},
{
name = ogonek;
pos = (641,0);
},
{
name = top;
pos = (339,700);
}
);
background = {
shapes = (
{
closed = 1;
nodes = (
(392,574,l),
(373,659,l),
(306,659,l),
(285,574,l)
);
}
);
};
layerId = "7F56E5C1-F146-4434-90E4-DA1B70285074";
shapes = (
{
closed = 1;
nodes = (
(218,0,l),
(218,58,l),
(134,83,l),
(138,73,l),
(315,574,l),
(363,574,l),
(544,63,l),
(551,83,l),
(461,58,l),
(461,0,l),
(668,0,l),
(668,58,l),
(583,83,l),
(596,69,l),
(362,705,l),
(315,705,l),
(83,66,l),
(97,82,l),
(10,58,l),
(10,0,l)
);
},
{
closed = 1;
nodes = (
(515,213,l),
(500,295,l),
(187,295,l),
(167,213,l)
);
}
);
userData = {
com.hugojourdan.ColorFlow = {
"0" = 0;
"1" = 0;
"10" = 0;
"11" = 0;
"2" = 0;
"3" = 0;
"4" = 0;
"5" = 0;
"6" = 0;
"7" = 0;
"8" = 0;
"9" = 0;
};
};
vertWidth = 750;
width = 678;
},
{
anchors = (
{
name = bottom;
pos = (341,0);
},
{
name = ogonek;
pos = (630,0);
},
{
name = top;
pos = (342,700);
}
);
background = {
shapes = (
{
closed = 1;
nodes = (
(307,659,l),
(374,659,l),
(393,514,l),
(286,514,l)
);
}
);
};
layerId = "3CA830F5-1E41-4F35-86DC-34C8110F5ED1";
shapes = (
{
closed = 1;
nodes = (
(263,0,l),
(263,138,l),
(159,188,l),
(181,126,l),
(312,514,l),
(369,514,l),
(500,126,l),
(527,188,l),
(418,138,l),
(418,0,l),
(666,0,l),
(666,138,l),
(557,188,l),
(613,127,l),
(402,705,l),
(279,705,l),
(68,127,l),
(124,188,l),
(15,138,l),
(15,0,l)
);
},
{
closed = 1;
nodes = (
(526,216,l),
(486,358,l),
(208,358,l),
(178,216,l)
);
}
);
userData = {
com.hugojourdan.ColorFlow = {
"0" = 0;
"1" = 0;
"10" = 0;
"11" = 0;
"2" = 0;
"3" = 0;
"4" = 0;
"5" = 0;
"6" = 0;
"7" = 0;
"8" = 0;
"9" = 0;
};
com.typemytype.robofont.guides = (
{
isGlobal = 0;
magnetic = 5;
x = 0;
y = 64;
}
);
};
vertWidth = 750;
width = 681;
}
);
metricRight = "=|";
unicode = 65;
userData = {
KernOnName = A;
};
},
{
glyphname = AE;
kernLeft = KO_AE;
kernRight = KO_E;
lastChange = "2025-01-05 08:34:55 +0000";
layers = (
{
anchors = (
{
name = bottom;
pos = (430,0);
},
{
name = top;
pos = (430,700);
}
);
background = {
shapes = (
{
closed = 1;
nodes = (
(147,0,l),
(147,16,l),
(85,34,l),
(417,688,l,{
name = "🧨";
}),
(400,675,l),
(782,675,l),
(756,688,l),
(798,554,l),
(815,557,l),
(790,700,l),
(406,700,l),
(66,34,l),
(0,16,l),
(0,0,l)
);
},
{
closed = 1;
nodes = (
(449,236,l),
(449,261,l),
(190,261,l),
(180,236,l,{
name = "🧨";
})
);
},
{
closed = 1;
nodes = (
(800,0,l),
(825,163,l),
(808,165,l),
(768,11,l),
(794,25,l),
(447,25,l),
(455,15,l,{
name = "🧨";
}),
(455,688,l,{
name = "🧨";
}),
(439,688,l,{
name = "🧨";
}),
(439,0,l,{
name = "🧨";
})
);
},
{
closed = 1;
nodes = (
(684,349,l),
(684,374,l),
(448,374,l),
(448,349,l)
);
},
{
closed = 1;
nodes = (
(698,259,l),
(698,445,l),
(684,445,l),
(667,370,l),
(666,357,l),
(683,259,l)
);
}
);
};
layerId = master01;
shapes = (
{
closed = 1;
nodes = (
(147,0,l),
(147,16,l),
(90,44,l),
(417,688,l,{
name = "🧨";
}),
(400,675,l),
(782,675,l),
(746,688,l),
(798,554,l),
(815,557,l),
(790,700,l),
(406,700,l),
(71,44,l),
(0,16,l),
(0,0,l)
);
},
{
closed = 1;
nodes = (
(449,236,l),
(449,261,l),
(190,261,l),
(180,236,l,{
name = "🧨";
})
);
},
{
closed = 1;
nodes = (
(800,0,l),
(825,163,l),
(808,165,l),
(758,11,l),
(794,25,l),
(447,25,l),
(455,15,l,{
name = "🧨";
}),
(455,688,l,{
name = "🧨";
}),
(439,688,l,{
name = "🧨";
}),
(439,0,l,{
name = "🧨";
})
);
},
{
closed = 1;
nodes = (
(684,349,l),
(684,374,l),
(448,374,l),
(448,349,l)
);
},
{
closed = 1;
nodes = (
(698,259,l),
(698,445,l),
(684,445,l),
(657,370,l),
(656,357,l),
(683,259,l)
);
}
);
userData = {
com.hugojourdan.ColorFlow = {
"0" = 0;
"1" = 0;
"10" = 0;
"11" = 0;
"2" = 0;
"3" = 0;
"4" = 0;
"5" = 0;
"6" = 0;
"7" = 0;
"8" = 0;
"9" = 0;
};
};
width = 860;
},
{
anchors = (
{
name = bottom;
pos = (425,0);
},
{
name = top;
pos = (425,700);
}
);
layerId = "7F56E5C1-F146-4434-90E4-DA1B70285074";
shapes = (
{
closed = 1;
nodes = (
(198,0,l),
(198,58,l),
(128,79,l),
(406,640,l),
(378,615,l),
(770,615,l),
(735,637,l),
(775,550,l),
(810,557,l),
(795,700,l),
(385,700,l,{
name = "🧨";
}),
(74,79,l),
(7,58,l),
(7,0,l)
);
},
{
closed = 1;
nodes = (
(476,209,l),
(476,291,l),
(218,291,l),
(168,209,l)
);
},
{
closed = 1;
nodes = (
(805,0,l),
(820,163,l),
(785,170,l),
(743,62,l),
(777,85,l),
(470,85,l),
(489,64,l),
(489,660,l,{
name = "🧨";
}),
(434,660,l,{
name = "🧨";
}),
(434,0,l,{
name = "🧨";
})
);
},
{
closed = 1;
nodes = (
(661,320,l),
(661,400,l),
(463,400,l),
(463,320,l)
);
},
{
closed = 1;
nodes = (
(703,259,l),
(703,446,l),
(661,446,l),
(640,370,l),
(639,347,l),
(660,259,l)
);
}
);
userData = {
com.hugojourdan.ColorFlow = {
"0" = 0;
"1" = 0;
"10" = 0;
"11" = 0;
"2" = 0;
"3" = 0;
"4" = 0;
"5" = 0;
"6" = 0;
"7" = 0;
"8" = 0;
"9" = 0;
};
};
width = 850;
},
{
anchors = (
{
name = bottom;
pos = (443,0);
},
{
name = top;
pos = (443,700);
}
);
layerId = "3CA830F5-1E41-4F35-86DC-34C8110F5ED1";
shapes = (
{
closed = 1;
nodes = (
(254,0,l),
(254,138,l),
(193,169,l),
(394,587,l),
(327,535,l),
(767,535,l),
(732,558,l),
(776,460,l),
(861,477,l),
(846,700,l),
(346,700,l,{
name = "🧨";
}),
(77,169,l),
(10,138,l),
(10,0,l)
);
},
{
closed = 1;
nodes = (
(503,216,l),
(463,358,l),
(215,358,l),
(155,216,l)
);
},
{
closed = 1;
nodes = (
(856,0,l),
(871,243,l),
(786,260,l),
(741,142,l),
(775,165,l),
(512,165,l),
(540,135,l),
(540,581,l,{
name = "🧨";
}),
(430,581,l,{
name = "🧨";
}),
(430,0,l,{
name = "🧨";
})
);
},
{
closed = 1;
nodes = (
(682,280,l),
(682,430,l),
(469,430,l),
(469,280,l)
);
},
{
closed = 1;
nodes = (
(724,230,l),
(724,476,l),
(632,476,l),
(611,373,l),
(610,350,l),
(631,230,l)
);
}
);
userData = {
com.hugojourdan.ColorFlow = {
"0" = 0;
"1" = 0;
"10" = 0;
"11" = 0;
"2" = 0;
"3" = 0;
"4" = 0;
"5" = 0;
"6" = 0;
"7" = 0;
"8" = 0;
"9" = 0;
};
};
width = 896;
}
);
metricRight = E;
unicode = 198;
},
{
glyphname = B;
kernLeft = KO_H;
kernRight = KO_B;
lastChange = "2025-01-06 07:55:01 +0000";
layers = (
{
background = {
hints = (
{
name = _corner.serifBottomRight;
options = 1;
type = Corner;
},
{
name = _corner.serifBottomLeft;
type = Corner;
}
);
shapes = (
{
closed = 1;
nodes = (
(302,0,ls),
(420,0,o),
(482,80,o),
(482,192,cs),
(482,318,o),
(404,383,o),
(291,383,cs),
(116,383,l),
(116,358,l),
(287,358,ls),
(400,358,o),
(464,301,o),
(464,192,cs),
(464,96,o),
(413,25,o),
(311,25,cs),
(120,25,l),
(126,19,l),
(126,683,l),
(120,675,l),
(270,675,ls),
(373,675,o),
(419,619,o),
(419,536,cs),
(419,445,o),
(364,399,o),
(299,380,c),
(309,365,l),
(385,391,o),
(437,441,o),
(437,537,cs),
(437,640,o),
(376,700,o),
(276,700,cs),
(44,700,l),
(44,684,l),
(110,666,l),
(110,34,l),
(44,16,l),
(44,0,l)
);
}
);
};
layerId = master01;
shapes = (
{
closed = 1;
nodes = (
(302,0,ls),
(420,0,o),
(482,80,o),
(482,192,cs),
(482,303,o),
(419,365,o),
(325,377,c),
(305,367,l),
(367,375,o),
(437,434,o),
(437,540,cs),
(437,639,o),
(376,700,o),
(276,700,cs),
(44,700,l),
(44,684,l),
(110,656,l),
(110,44,l),
(44,16,l),
(44,0,l)
);
},
{
closed = 1;
nodes = (
(126,683,l),
(120,675,l),
(270,675,ls),
(373,675,o),
(419,618,o),
(419,538,cs),
(419,444,o),
(356,383,o),
(271,383,cs),
(116,383,l),
(116,358,l),
(287,358,ls),
(400,358,o),
(464,301,o),
(464,192,cs),
(464,96,o),
(413,25,o),
(311,25,cs),
(120,25,l),
(126,19,l)
);
}
);
userData = {
com.hugojourdan.ColorFlow = {
"0" = 0;
"1" = 0;
"10" = 0;
"11" = 0;
"2" = 0;
"3" = 0;
"4" = 0;
"5" = 0;
"6" = 0;
"7" = 0;
"8" = 0;
"9" = 0;
};
};
vertWidth = 750;
width = 532;
},
{
background = {
shapes = (
{
closed = 1;
nodes = (
(314,0,ls),
(444,0,o),
(514,72,o),
(514,205,cs),
(514,354,o),
(426,409,o),
(301,409,cs),
(155,409,l),
(155,328,l),
(311,328,ls),
(412,328,o),
(456,296,o),
(456,207,cs),
(456,127,o),
(421,85,o),
(340,85,cs),
(141,85,l),
(167,56,l),
(167,642,l),
(145,615,l),
(305,615,ls),
(389,615,o),
(414,585,o),
(414,528,cs),
(414,469,o),
(387,432,o),
(334,407,c),
(362,370,l),
(430,408,o),
(472,447,o),
(472,539,cs),
(472,644,o),
(417,700,o),
(291,700,cs),
(35,700,l),
(35,642,l),
(112,619,l),
(112,79,l),
(35,58,l),
(35,0,l)
);
}
);
};
layerId = "7F56E5C1-F146-4434-90E4-DA1B70285074";
shapes = (
{
closed = 1;
nodes = (
(314,0,ls),
(444,0,o),
(514,72,o),
(514,199,cs),
(514,307,o),
(463,360,o),
(383,379,c),
(373,362,l),
(435,390,o),
(472,435,o),
(472,528,cs),
(472,640,o),
(417,700,o),
(291,700,cs),
(35,700,l),
(35,642,l),
(112,619,l),
(112,79,l),
(35,58,l),
(35,0,l)
);
},
{
closed = 1;
nodes = (
(167,642,l),
(145,615,l),
(305,615,ls),
(389,615,o),
(414,566,o),
(414,511,cs),
(414,452,o),
(386,409,o),
(301,409,cs),
(155,409,l),
(155,328,l),
(311,328,ls),
(412,328,o),
(456,296,o),
(456,207,cs),
(456,127,o),
(421,85,o),
(340,85,cs),
(141,85,l),
(167,56,l)
);
}
);
userData = {
com.hugojourdan.ColorFlow = {
"0" = 0;
"1" = 0;
"10" = 0;
"11" = 0;
"2" = 0;
"3" = 0;
"4" = 0;
"5" = 0;
"6" = 0;
"7" = 0;
"8" = 0;
"9" = 0;
};
};
vertWidth = 750;
width = 549;
},
{
background = {
shapes = (
{
closed = 1;
nodes = (
(310,0,ls),
(460,0,o),
(540,82,o),
(540,226,cs),
(540,374,o),
(452,423,o),
(329,423,cs),
(141,423,l),
(141,282,l),
(345,282,ls),
(404,282,o),
(427,265,o),
(427,223,cs),
(427,182,o),
(406,165,o),
(356,165,cs),
(170,165,l),
(208,126,l),
(208,590,l),
(170,535,l),
(314,535,ls),
(372,535,o),
(393,511,o),
(393,478,cs),
(393,445,o),
(372,421,o),
(329,423,c),
(367,316,l),
(465,348,o),
(506,405,o),
(506,509,cs),
(506,641,o),
(437,700,o),
(290,700,cs),
(30,700,l),
(30,562,l),
(98,531,l),
(98,169,l),
(30,138,l),
(30,0,l)
);
}
);
};
layerId = "3CA830F5-1E41-4F35-86DC-34C8110F5ED1";
shapes = (
{
closed = 1;
nodes = (
(310,0,ls),
(460,0,o),
(540,71,o),
(540,195,cs),
(540,303,o),
(479,357,o),
(384,380,c),
(374,341,l),
(468,359,o),
(506,419,o),
(506,514,cs),
(506,642,o),
(437,700,o),
(290,700,cs),
(30,700,l),
(30,562,l),
(98,531,l),
(98,169,l),
(30,138,l),
(30,0,l)
);
},
{
closed = 1;
nodes = (
(208,590,l),
(170,535,l),
(314,535,ls),
(372,535,o),
(393,512,o),
(393,480,cs),
(393,446,o),
(369,423,o),
(319,423,cs),
(141,423,l),
(141,282,l),
(345,282,ls),
(404,282,o),
(427,265,o),
(427,223,cs),
(427,182,o),
(406,165,o),
(356,165,cs),
(170,165,l),
(208,126,l)
);
}
);
userData = {
com.hugojourdan.ColorFlow = {
"0" = 0;
"1" = 0;
"10" = 0;
"11" = 0;
"2" = 0;
"3" = 0;
"4" = 0;
"5" = 0;
"6" = 0;
"7" = 0;
"8" = 0;
"9" = 0;
};
};
vertWidth = 750;
width = 570;
},
{
associatedMasterId = "3CA830F5-1E41-4F35-86DC-34C8110F5ED1";
layerId = "868174CF-B893-43DA-978F-EB18305AB0A2";
name = "3 Jan 25 at 23.32";
shapes = (
{
closed = 1;
nodes = (
(310,0,ls),
(460,0,o),
(540,82,o),
(540,226,cs),
(540,377,o),
(452,427,o),
(329,427,cs),
(141,427,l),
(141,286,l),
(345,286,ls),
(403,286,o),
(427,268,o),
(427,224,cs),
(427,182,o),
(406,165,o),
(356,165,cs),
(170,165,l),
(208,126,l),
(208,590,l),
(170,535,l),
(314,535,ls),
(374,535,o),
(393,513,o),
(393,475,cs),
(393,445,o),
(380,428,o),
(353,419,c),
(425,370,l),
(478,414,o),
(506,454,o),
(506,532,cs),
(506,646,o),
(439,700,o),
(290,700,cs),
(30,700,l),
(30,562,l),
(98,531,l),
(98,169,l),
(30,138,l),
(30,0,l)
);
}
);
userData = {
com.hugojourdan.ColorFlow = {
"0" = 0;
"1" = 0;
"10" = 0;
"11" = 0;
"2" = 0;
"3" = 0;
"4" = 0;
"5" = 0;
"6" = 0;
"7" = 0;
"8" = 0;
"9" = 0;
};
};
vertWidth = 750;
width = 570;
}
);
metricLeft = H;
unicode = 66;
userData = {
KernOnName = B;
};
},
{
glyphname = C;
kernLeft = KO_O;
kernRight = KO_C;
lastChange = "2025-01-06 07:55:01 +0000";
layers = (
{
anchors = (
{
name = bottom;
pos = (339,0);
},
{
name = cedilla;
pos = (354,0);
},
{
name = top;
pos = (339,700);
}
);
layerId = master01;
shapes = (
{
closed = 1;
nodes = (
(490,-5,o),
(575,59,o),
(619,156,c),
(604,164,l),
(556,67,o),
(473,23,o),
(362,23,cs),
(179,23,o),
(78,143,o),
(78,353,cs),
(78,559,o),
(175,677,o),
(368,677,cs),
(473,677,o),
(537,642,o),
(568,618,c),
(547,648,l),
(583,494,l),
(601,496,l),
(592,634,l),
(546,674,o),
(463,705,o),
(369,705,cs),
(169,705,o),
(60,566,o),
(60,353,cs),
(60,140,o),
(169,-5,o),
(362,-5,cs)
);
}
);
userData = {
com.hugojourdan.ColorFlow = {
"0" = 0;
"1" = 0;
"10" = 0;
"11" = 0;
"2" = 0;
"3" = 0;
"4" = 0;
"5" = 0;
"6" = 0;
"7" = 0;
"8" = 0;
"9" = 0;
};
};
vertWidth = 750;
width = 662;
},
{
anchors = (
{
name = bottom;
pos = (344,0);
},
{
name = cedilla;
pos = (369,0);
},
{
name = top;
pos = (344,700);
}
);
layerId = "7F56E5C1-F146-4434-90E4-DA1B70285074";
shapes = (
{
closed = 1;
nodes = (
(509,-10,o),
(589,65,o),
(639,160,c),
(604,186,l),
(552,114,o),
(475,78,o),
(370,78,cs),
(201,78,o),
(113,170,o),
(113,345,cs),
(113,515,o),
(197,622,o),
(369,622,cs),
(443,622,o),
(513,603,o),
(561,566,c),
(531,606,l),
(580,479,l),
(621,486,l),
(607,624,l),
(561,673,o),
(479,710,o),
(376,710,cs),
(173,710,o),
(55,558,o),
(55,342,cs),
(55,126,o),
(173,-10,o),
(366,-10,cs)
);
}
);
userData = {
com.hugojourdan.ColorFlow = {
"0" = 0;
"1" = 0;
"10" = 0;
"11" = 0;
"2" = 0;
"3" = 0;
"4" = 0;
"5" = 0;
"6" = 0;
"7" = 0;
"8" = 0;
"9" = 0;
};
com.typemytype.robofont.guides = (
{
isGlobal = 0;
magnetic = 5;
x = 777;
y = 0;
}
);
};
vertWidth = 750;
width = 679;
},
{
anchors = (
{
name = bottom;
pos = (336,0);
},
{
name = cedilla;
pos = (364,0);
},
{
name = top;
pos = (356,700);
}
);
layerId = "3CA830F5-1E41-4F35-86DC-34C8110F5ED1";
shapes = (
{
closed = 1;
nodes = (
(496,-10,o),
(586,65,o),
(632,178,c),
(557,235,l),
(508,179,o),
(437,158,o),
(359,158,cs),
(219,158,o),
(153,225,o),
(153,350,cs),
(153,469,o),
(213,542,o),
(369,542,cs),
(415,542,o),
(461,536,o),
(502,523,c),
(477,550,l),
(533,419,l),
(621,435,l),
(602,644,l),
(554,682,o),
(468,710,o),
(374,710,cs),
(158,710,o),
(40,562,o),
(40,345,cs),
(40,130,o),
(156,-10,o),
(353,-10,cs)
);
}
);
userData = {
com.hugojourdan.ColorFlow = {
"0" = 0;
"1" = 0;
"10" = 0;
"11" = 0;
"2" = 0;
"3" = 0;
"4" = 0;
"5" = 0;
"6" = 0;
"7" = 0;
"8" = 0;
"9" = 0;
};
com.typemytype.robofont.guides = (
{
isGlobal = 0;
magnetic = 5;
x = 767;
y = 0;
}
);
};
vertWidth = 750;
width = 662;
}
);
metricLeft = O;
unicode = 67;
userData = {
KernOnName = C;
};
},
{
glyphname = D;
kernLeft = KO_H;
kernRight = KO_D;
lastChange = "2025-01-05 09:40:56 +0000";
layers = (
{
anchors = (
{
name = bottom;
pos = (296,0);
},
{
name = center;
pos = (136,350);
},
{
name = top;
pos = (296,700);
}
);
layerId = master01;
shapes = (
{
closed = 1;
nodes = (
(268,0,ls),
(447,0,o),
(588,91,o),
(588,350,cs),
(588,608,o),
(447,700,o),
(268,700,cs),
(44,700,l),
(44,684,l),
(110,656,l),
(110,44,l),
(44,16,l),
(44,0,l)
);
},
{
closed = 1;
nodes = (
(126,685,l),
(118,675,l),
(276,675,ls),
(485,675,o),
(570,542,o),
(570,350,cs),
(570,159,o),
(485,25,o),
(276,25,cs),
(118,25,l),
(126,17,l)
);
}
);
userData = {
com.hugojourdan.ColorFlow = {
"0" = 0;
"1" = 0;
"10" = 0;
"11" = 0;
"2" = 0;
"3" = 0;
"4" = 0;
"5" = 0;
"6" = 0;
"7" = 0;
"8" = 0;
"9" = 0;
};
};
vertWidth = 750;
width = 648;
},
{
anchors = (
{
name = bottom;
pos = (313,0);
},
{
name = center;
pos = (143,350);
},
{
name = top;
pos = (313,700);
}
);
layerId = "7F56E5C1-F146-4434-90E4-DA1B70285074";
shapes = (
{
closed = 1;
nodes = (
(290,0,ls),
(455,0,o),
(610,91,o),
(610,350,cs),
(610,608,o),
(455,700,o),
(290,700,cs),
(35,700,l),
(35,642,l),
(112,619,l),
(112,79,l),
(35,58,l),
(35,0,l)
);
},
{
closed = 1;
nodes = (
(167,637,l),
(142,612,l),
(303,612,ls),
(483,612,o),
(552,505,o),
(552,350,cs),
(552,196,o),
(483,88,o),
(303,88,cs),
(142,88,l),
(167,63,l)
);
}
);
userData = {
com.hugojourdan.ColorFlow = {
"0" = 0;
"1" = 0;
"10" = 0;
"11" = 0;
"2" = 0;
"3" = 0;
"4" = 0;
"5" = 0;
"6" = 0;
"7" = 0;
"8" = 0;
"9" = 0;
};
};
vertWidth = 750;
width = 665;
},
{
anchors = (
{
name = bottom;
pos = (314,0);
},
{
name = center;
pos = (156,350);
},
{
name = top;
pos = (314,700);
}
);
layerId = "3CA830F5-1E41-4F35-86DC-34C8110F5ED1";
shapes = (
{
closed = 1;
nodes = (
(286,0,ls),
(481,0,o),
(621,91,o),
(621,350,cs),
(621,608,o),
(481,700,o),
(286,700,cs),
(30,700,l),
(30,562,l),
(98,531,l),
(98,169,l),
(30,138,l),
(30,0,l)
);
},
{
closed = 1;
nodes = (
(208,557,l),
(183,532,l),
(309,532,ls),
(465,532,o),
(508,458,o),
(508,350,cs),
(508,243,o),
(465,168,o),
(309,168,cs),
(183,168,l),
(208,143,l)
);
}
);
userData = {
com.hugojourdan.ColorFlow = {
"0" = 0;
"1" = 0;
"10" = 0;
"11" = 0;
"2" = 0;
"3" = 0;
"4" = 0;
"5" = 0;
"6" = 0;
"7" = 0;
"8" = 0;
"9" = 0;
};
};
vertWidth = 750;
width = 661;
}
);
metricLeft = H;
metricRight = O;
unicode = 68;
},
{
glyphname = E;
kernLeft = KO_H;
kernRight = KO_E;
lastChange = "2025-01-06 07:55:01 +0000";
layers = (
{
anchors = (
{
name = bottom;
pos = (288,0);
},
{
name = ogonek;
pos = (471,0);
},
{
name = top;
pos = (288,700);
},
{
name = topleft;
pos = (24,700);
}
);
layerId = master01;
shapes = (
{
closed = 1;
nodes = (
(471,0,l),
(496,163,l),
(479,165,l),
(429,9,l),
(465,25,l),
(119,25,l),
(126,19,l),
(126,684,l),
(120,675,l),
(453,675,l),
(415,693,l),
(469,554,l),
(486,557,l),
(461,700,l),
(44,700,l),
(44,684,l),
(110,656,l),
(110,44,l),
(44,16,l),
(44,0,l)
);
},
{
closed = 1;
nodes = (
(355,349,l),
(355,374,l),
(119,374,l),
(119,349,l)
);
},
{
closed = 1;
nodes = (
(369,259,l),
(369,445,l),
(355,445,l),
(328,370,l),
(327,357,l),
(354,259,l)
);
}
);
userData = {
com.hugojourdan.ColorFlow = {
"0" = 0;
"1" = 0;
"10" = 0;
"11" = 0;
"2" = 0;
"3" = 0;
"4" = 0;
"5" = 0;
"6" = 0;
"7" = 0;
"8" = 0;
"9" = 0;
};
};
vertWidth = 750;
width = 531;
},
{
anchors = (
{
name = bottom;
pos = (294,0);
},
{
name = ogonek;
pos = (483,0);
},
{
name = top;
pos = (294,700);
},
{
name = topleft;
pos = (20,700);
}
);
layerId = "7F56E5C1-F146-4434-90E4-DA1B70285074";
shapes = (
{
closed = 1;
nodes = (
(483,0,l),
(498,163,l),
(463,170,l),
(421,62,l),
(455,85,l),
(151,85,l),
(167,64,l),
(167,645,l),
(146,615,l),
(448,615,l),
(413,637,l),
(453,550,l),
(488,557,l),
(473,700,l),
(35,700,l),
(35,642,l),
(112,619,l),
(112,79,l),
(35,58,l),
(35,0,l)
);
},
{
closed = 1;
nodes = (
(339,320,l),
(339,400,l),
(141,400,l),
(141,320,l)
);
},
{
closed = 1;
nodes = (
(381,259,l),
(381,446,l),
(339,446,l),
(318,370,l),
(317,347,l),
(338,259,l)
);
}
);
userData = {
com.hugojourdan.ColorFlow = {
"0" = 0;
"1" = 0;
"10" = 0;
"11" = 0;
"2" = 0;
"3" = 0;
"4" = 0;
"5" = 0;
"6" = 0;
"7" = 0;
"8" = 0;
"9" = 0;
};
};
vertWidth = 750;
width = 528;
},
{
anchors = (
{
name = bottom;
pos = (292,0);
},
{
name = ogonek;
pos = (524,0);
},
{
name = top;
pos = (292,700);
},
{
name = topleft;
pos = (20,700);
}
);
layerId = "3CA830F5-1E41-4F35-86DC-34C8110F5ED1";
shapes = (
{
closed = 1;
nodes = (
(524,0,l),
(539,243,l),
(454,260,l),
(409,142,l),
(443,165,l),
(186,165,l),
(208,137,l),
(208,573,l),
(180,535,l),
(435,535,l),
(400,558,l),
(444,460,l),
(529,477,l),
(514,700,l),
(30,700,l),
(30,562,l),
(98,531,l),
(98,169,l),
(30,138,l),
(30,0,l)
);
},
{
closed = 1;
nodes = (
(350,280,l),
(350,430,l),
(137,430,l),
(137,280,l)
);
},
{
closed = 1;
nodes = (
(392,230,l),
(392,476,l),
(310,476,l),
(279,373,l),
(278,350,l),
(309,230,l)
);
}
);
userData = {
com.hugojourdan.ColorFlow = {
"0" = 0;
"1" = 0;
"10" = 0;
"11" = 0;
"2" = 0;
"3" = 0;
"4" = 0;
"5" = 0;
"6" = 0;
"7" = 0;
"8" = 0;
"9" = 0;
};
};
vertWidth = 750;
width = 564;
}
);
metricLeft = H;
unicode = 69;
userData = {
KernOnName = E;
};
},
{
glyphname = Schwa;
kernRight = KO_D;
lastChange = "2025-01-03 16:28:12 +0000";
layers = (
{
anchors = (
{
name = bottom;
pos = (336,0);
},
{
name = top;
pos = (336,700);
}
);
layerId = master01;
shapes = (
{
closed = 1;
nodes = (
(510,-5,o),
(612,139,o),
(612,352,cs),
(612,568,o),
(508,705,o),
(327,705,cs),
(149,705,o),
(28,573,o),
(40,362,c),
(601,362,l),
(601,387,l),
(53,387,l),
(57,382,l),
(53,568,o),
(165,677,o),
(326,677,cs),
(501,677,o),
(594,554,o),
(594,351,cs),
(594,148,o),
(500,23,o),
(323,23,cs),
(203,23,o),
(107,78,o),
(65,184,c),
(50,178,l),
(87,71,o),
(188,-5,o),
(323,-5,cs)
);
}
);
userData = {
com.hugojourdan.ColorFlow = {
"0" = 0;
"1" = 0;
"10" = 0;
"11" = 0;
"2" = 0;
"3" = 0;
"4" = 0;
"5" = 0;
"6" = 0;
"7" = 0;
"8" = 0;
"9" = 0;
};
};
width = 672;
},
{
anchors = (
{
name = bottom;
pos = (357,0);
},
{
name = top;
pos = (357,700);
}
);
layerId = "7F56E5C1-F146-4434-90E4-DA1B70285074";
shapes = (
{
closed = 1;
nodes = (
(546,-10,o),
(658,134,o),
(658,349,cs),
(658,566,o),
(543,710,o),
(358,710,cs),
(197,710,o),
(43,601,o),
(65,327,c),
(625,327,l),
(625,412,l),
(101,412,l),
(119,383,l),
(125,561,o),
(235,622,o),
(359,622,cs),
(521,622,o),
(600,518,o),
(600,348,cs),
(600,174,o),
(517,78,o),
(348,78,cs),
(245,78,o),
(163,114,o),
(109,186,c),
(74,160,l),
(124,65,o),
(209,-10,o),
(351,-10,cs)
);
}
);
userData = {
com.hugojourdan.ColorFlow = {
"0" = 0;
"1" = 0;
"10" = 0;
"11" = 0;
"2" = 0;
"3" = 0;
"4" = 0;
"5" = 0;
"6" = 0;
"7" = 0;
"8" = 0;
"9" = 0;
};
};
width = 713;
},
{
anchors = (
{
name = bottom;
pos = (336,0);
},
{
name = top;
pos = (336,700);
}
);
layerId = "3CA830F5-1E41-4F35-86DC-34C8110F5ED1";
shapes = (
{
closed = 1;
nodes = (
(507,-10,o),
(622,131,o),
(622,356,cs),
(622,565,o),
(522,710,o),
(328,710,cs),
(130,710,o),
(4,560,o),
(35,305,c),
(565,305,l),
(565,430,l),
(103,430,l),
(147,361,l),
(148,480,o),
(207,542,o),
(326,542,cs),
(450,542,o),
(509,475,o),
(509,354,cs),
(509,228,o),
(446,158,o),
(308,158,cs),
(233,158,o),
(159,179,o),
(105,235,c),
(30,178,l),
(70,73,o),
(167,-10,o),
(315,-10,cs)
);
}
);
userData = {
com.hugojourdan.ColorFlow = {
"0" = 0;
"1" = 0;
"10" = 0;
"11" = 0;
"2" = 0;
"3" = 0;
"4" = 0;
"5" = 0;
"6" = 0;
"7" = 0;
"8" = 0;
"9" = 0;
};
};
width = 662;
}
);
metricRight = O;
unicode = 399;
},
{
glyphname = F;
kernLeft = KO_H;
kernRight = KO_F;
lastChange = "2025-01-06 07:55:01 +0000";
layers = (
{
background = {
shapes = (
{
closed = 1;
nodes = (
(126,0,l),
(126,700,l),
(110,700,l),
(110,0,l)
);
},
{
closed = 1;
nodes = (
(365,339,l),
(365,364,l),
(119,364,l),
(119,339,l)
);
},
{
closed = 1;
nodes = (
(379,249,l),
(379,435,l),
(365,435,l),
(348,360,l),
(347,347,l),
(364,249,l)
);
},
{
closed = 1;
nodes = (
(481,675,l),
(481,700,l),
(122,700,l),
(122,675,l)
);
},
{
closed = 1;
nodes = (
(496,557,l),
(481,700,l),
(445,684,l),
(479,554,l)
);
},
{
pos = (110,700);
ref = _corner.serifBottomLeft;
scale = (1,-1);
},
{
pos = (110,0);
ref = _corner.serifBottomLeft;
},
{
pos = (126,0);
ref = _corner.serifBottomRight;
}
);
};
layerId = master01;
shapes = (
{
closed = 1;
nodes = (
(192,0,l),
(192,16,l),
(126,44,l),
(126,684,l),
(120,675,l),
(440,675,l),
(402,693,l),
(456,554,l),
(473,557,l),
(448,700,l),
(44,700,l),
(44,684,l),
(110,656,l),
(110,44,l),
(44,16,l),
(44,0,l)
);
},
{
closed = 1;
nodes = (
(342,339,l),
(342,360,l),
(119,360,l),
(119,339,l)
);
},
{
closed = 1;
nodes = (
(356,247,l),
(356,433,l),
(342,433,l),
(315,358,l),
(314,345,l),
(341,247,l)
);
}
);
userData = {
com.hugojourdan.ColorFlow = {
"0" = 0;
"1" = 0;
"10" = 0;
"11" = 0;
"2" = 0;
"3" = 0;
"4" = 0;
"5" = 0;
"6" = 0;
"7" = 0;
"8" = 0;
"9" = 0;
};
};
vertWidth = 750;
width = 495;
},
{
layerId = "7F56E5C1-F146-4434-90E4-DA1B70285074";
shapes = (
{
closed = 1;
nodes = (
(244,0,l),
(244,58,l),
(167,81,l),
(167,645,l),
(146,615,l),
(448,615,l),
(413,637,l),
(453,550,l),
(488,557,l),
(473,700,l),
(35,700,l),
(35,642,l),
(112,619,l),
(112,79,l),
(35,58,l),
(35,0,l)
);
},
{
closed = 1;
nodes = (
(339,303,l),
(339,383,l),
(141,383,l),
(141,303,l)
);
},
{
closed = 1;
nodes = (
(381,245,l),
(381,432,l),
(339,432,l),
(318,356,l),
(317,333,l),
(338,245,l)
);
}
);
userData = {
com.hugojourdan.ColorFlow = {
"0" = 0;
"1" = 0;
"10" = 0;
"11" = 0;
"2" = 0;
"3" = 0;
"4" = 0;
"5" = 0;
"6" = 0;
"7" = 0;
"8" = 0;
"9" = 0;
};
};
vertWidth = 750;
width = 508;
},
{
layerId = "3CA830F5-1E41-4F35-86DC-34C8110F5ED1";
shapes = (
{
closed = 1;
nodes = (
(276,0,l),
(276,138,l),
(208,169,l),
(208,573,l),
(180,535,l),
(415,535,l),
(380,558,l),
(424,460,l),
(509,477,l),
(494,700,l),
(30,700,l),
(30,562,l),
(98,531,l),
(98,169,l),
(30,138,l),
(30,0,l)
);
},
{
closed = 1;
nodes = (
(350,277,l),
(350,408,l),
(137,408,l),
(137,277,l)
);
},
{
closed = 1;
nodes = (
(392,224,l),
(392,456,l),
(300,456,l),
(279,360,l),
(278,337,l),
(299,224,l)
);
}
);
userData = {
com.hugojourdan.ColorFlow = {
"0" = 0;
"1" = 0;
"10" = 0;
"11" = 0;
"2" = 0;
"3" = 0;
"4" = 0;
"5" = 0;
"6" = 0;
"7" = 0;
"8" = 0;
"9" = 0;
};
};
vertWidth = 750;
width = 534;
}
);
metricLeft = H;
unicode = 70;
userData = {
KernOnName = F;
};
},
{
glyphname = G;
kernLeft = KO_O;
kernRight = KO_G;
lastChange = "2025-01-06 07:55:01 +0000";
layers = (
{
anchors = (
{
name = bottom;
pos = (374,0);
},
{
name = top;
pos = (374,700);
}
);
layerId = master01;
shapes = (
{
closed = 1;
nodes = (
(488,-5,o),
(582,41,o),
(632,99,c),
(622,110,l),
(569,58,o),
(482,23,o),
(374,23,cs),
(171,23,o),
(78,150,o),
(78,352,cs),
(78,558,o),
(174,677,o),
(373,677,cs),
(467,677,o),
(520,650,o),
(550,626,c),
(528,651,l),
(563,504,l),
(581,506,l),
(572,644,l),
(532,679,o),
(461,705,o),
(374,705,cs),
(174,705,o),
(60,571,o),
(60,352,cs),
(60,132,o),
(174,-5,o),
(374,-5,cs)
);
},
{
closed = 1;
nodes = (
(576,63,l),
(576,345,l),
(573,316,l),
(640,341,l),
(640,354,l),
(353,354,l),
(353,340,l),
(564,316,l),
(560,345,l),
(560,54,l)
);
}
);
userData = {
com.hugojourdan.ColorFlow = {
"0" = 0;
"1" = 0;
"10" = 0;
"11" = 0;
"2" = 0;
"3" = 0;
"4" = 0;
"5" = 0;
"6" = 0;
"7" = 0;
"8" = 0;
"9" = 0;
};
};
vertWidth = 750;
width = 687;
},
{
anchors = (
{
name = bottom;
pos = (378,0);
},
{
name = top;
pos = (376,700);
}
);
background = {
shapes = (
{
closed = 1;
nodes = (
(492,-10,o),
(585,35,o),
(635,94,c),
(622,118,l),
(570,95,o),
(484,80,o),
(403,80,cs),
(196,80,o),
(113,178,o),
(113,353,cs),
(113,523,o),
(191,622,o),
(367,622,cs),
(442,622,o),
(507,604,o),
(550,568,c),
(525,594,l),
(573,479,l),
(621,486,l),
(607,624,l),
(561,673,o),
(479,710,o),
(376,710,cs),
(173,710,o),
(55,566,o),
(55,350,cs),
(55,134,o),
(173,-10,o),
(378,-10,cs)
);
},
{
closed = 1;
nodes = (
(581,73,l),
(581,302,l),
(557,265,l),
(645,296,l),
(645,354,l),
(358,354,l),
(358,287,l),
(534,266,l),
(526,296,l),
(526,73,l)
);
}
);
};
layerId = "7F56E5C1-F146-4434-90E4-DA1B70285074";
shapes = (
{
closed = 1;
nodes = (
(492,-10,o),
(585,35,o),
(635,94,c),
(622,118,l),
(570,95,o),
(484,80,o),
(403,80,cs),
(196,80,o),
(113,178,o),
(113,353,cs),
(113,523,o),
(192,622,o),
(369,622,cs),
(431,622,o),
(491,610,o),
(531,586,c),
(501,626,l),
(550,499,l),
(591,506,l),
(577,644,l),
(537,682,o),
(466,710,o),
(376,710,cs),
(173,710,o),
(55,566,o),
(55,350,cs),
(55,134,o),
(173,-10,o),
(378,-10,cs)
);
},
{
closed = 1;
nodes = (
(581,73,l),
(581,302,l),
(557,265,l),
(645,296,l),
(645,354,l),
(358,354,l),
(358,296,l),
(534,266,l),
(526,296,l),
(526,73,l)
);
}
);
userData = {
com.hugojourdan.ColorFlow = {
"0" = 0;
"1" = 0;
"10" = 0;
"11" = 0;
"2" = 0;
"3" = 0;
"4" = 0;
"5" = 0;
"6" = 0;
"7" = 0;
"8" = 0;
"9" = 0;
};
};
vertWidth = 750;
width = 695;
},
{
anchors = (
{
name = bottom;
pos = (373,0);
},
{
name = top;
pos = (373,700);
}
);
background = {
shapes = (
{
closed = 1;
nodes = (
(496,-10,o),
(596,37,o),
(647,108,c),
(611,181,l),
(564,162,o),
(469,148,o),
(395,148,cs),
(224,148,o),
(153,216,o),
(153,345,cs),
(153,466,o),
(215,542,o),
(369,542,cs),
(414,542,o),
(461,536,o),
(500,523,c),
(482,538,l),
(533,419,l),
(621,426,l),
(602,644,l),
(554,682,o),
(468,710,o),
(373,710,cs),
(158,710,o),
(40,559,o),
(40,343,cs),
(40,127,o),
(158,-10,o),
(373,-10,cs)
);
},
{
closed = 1;
nodes = (
(576,130,l),
(576,262,l),
(552,225,l),
(640,256,l),
(640,368,l),
(353,368,l),
(353,247,l),
(529,226,l),
(466,256,l),
(466,130,l)
);
}
);
};
layerId = "3CA830F5-1E41-4F35-86DC-34C8110F5ED1";
shapes = (
{
closed = 1;
nodes = (
(496,-10,o),
(586,37,o),
(647,108,c),
(611,181,l),
(562,162,o),
(461,148,o),
(387,148,cs),
(226,148,o),
(153,215,o),
(153,346,cs),
(153,466,o),
(215,542,o),
(369,542,cs),
(407,542,o),
(447,538,o),
(480,529,c),
(462,544,l),
(512,445,l),
(600,462,l),
(582,650,l),
(538,685,o),
(460,710,o),
(373,710,cs),
(158,710,o),
(40,559,o),
(40,343,cs),
(40,127,o),
(158,-10,o),
(373,-10,cs)
);
},
{
closed = 1;
nodes = (
(576,130,l),
(576,262,l),
(552,225,l),
(640,256,l),
(640,368,l),
(353,368,l),
(353,256,l),
(529,226,l),
(466,256,l),
(466,130,l)
);
}
);
userData = {
com.hugojourdan.ColorFlow = {
"0" = 0;
"1" = 0;
"10" = 0;
"11" = 0;
"2" = 0;
"3" = 0;
"4" = 0;
"5" = 0;
"6" = 0;
"7" = 0;
"8" = 0;
"9" = 0;
};
};
vertWidth = 750;
width = 680;
}
);
metricLeft = O;
unicode = 71;
userData = {
KernOnName = G;
};
},
{
glyphname = H;
kernLeft = KO_H;
kernRight = KO_H;
lastChange = "2025-01-06 07:55:01 +0000";
layers = (
{
layerId = master01;
shapes = (
{
closed = 1;
nodes = (
(630,0,l),
(630,16,l),
(564,44,l),
(564,656,l),
(630,684,l),
(630,700,l),
(482,700,l),
(482,684,l),
(548,656,l),
(548,44,l),
(482,16,l),
(482,0,l)
);
},
{
closed = 1;
nodes = (
(192,0,l),
(192,16,l),
(126,44,l),
(126,656,l),
(192,684,l),
(192,700,l),
(44,700,l),
(44,684,l),
(110,656,l),
(110,44,l),
(44,16,l),
(44,0,l)
);
},
{
closed = 1;
nodes = (
(557,345,l),
(557,370,l),
(119,370,l),
(119,345,l)
);
}
);
userData = {
com.hugojourdan.ColorFlow = {
"0" = 0;
"1" = 0;
"10" = 0;
"11" = 0;
"2" = 0;
"3" = 0;
"4" = 0;
"5" = 0;
"6" = 0;
"7" = 0;
"8" = 0;
"9" = 0;
};
com.typemytype.robofont.guides = (
{
isGlobal = 0;
magnetic = 5;
x = 0;
y = 280;
}
);
};
vertWidth = 750;
width = 674;
},
{
layerId = "7F56E5C1-F146-4434-90E4-DA1B70285074";
shapes = (
{
closed = 1;
nodes = (
(678,0,l),
(678,58,l),
(601,81,l),
(601,621,l),
(678,642,l),
(678,700,l),
(469,700,l),
(469,642,l),
(546,619,l),
(546,79,l),
(469,58,l),
(469,0,l)
);
},
{
closed = 1;
nodes = (
(244,0,l),
(244,58,l),
(167,81,l),
(167,621,l),
(244,642,l),
(244,700,l),
(35,700,l),
(35,642,l),
(112,619,l),
(112,79,l),
(35,58,l),
(35,0,l)
);
},
{
closed = 1;
nodes = (
(571,307,l),
(571,392,l),
(143,392,l),
(143,307,l)
);
}
);
userData = {
com.hugojourdan.ColorFlow = {
"0" = 0;
"1" = 0;
"10" = 0;
"11" = 0;
"2" = 0;
"3" = 0;
"4" = 0;
"5" = 0;
"6" = 0;
"7" = 0;
"8" = 0;
"9" = 0;
};
com.typemytype.robofont.guides = (
{
isGlobal = 0;
magnetic = 5;
x = 0;
y = 657;
}
);
};
width = 713;
},
{
layerId = "3CA830F5-1E41-4F35-86DC-34C8110F5ED1";
shapes = (
{
closed = 1;
nodes = (
(685,0,l),
(685,138,l),
(617,169,l),
(617,531,l),
(685,562,l),
(685,700,l),
(439,700,l),
(439,562,l),
(507,531,l),
(507,169,l),
(439,138,l),
(439,0,l)
);
},
{
closed = 1;
nodes = (
(276,0,l),
(276,138,l),
(208,169,l),
(208,531,l),
(276,562,l),
(276,700,l),
(30,700,l),
(30,562,l),
(98,531,l),
(98,169,l),
(30,138,l),
(30,0,l)
);
},
{
closed = 1;
nodes = (
(542,267,l),
(542,432,l),
(139,432,l),
(139,267,l)
);
}
);
userData = {
com.hugojourdan.ColorFlow = {
"0" = 0;
"1" = 0;
"10" = 0;
"11" = 0;
"2" = 0;
"3" = 0;
"4" = 0;
"5" = 0;
"6" = 0;
"7" = 0;
"8" = 0;
"9" = 0;
};
com.typemytype.robofont.guides = (
{
isGlobal = 0;
magnetic = 5;
x = 0;
y = 657;
}
);
};
width = 715;
},
{
associatedMasterId = "7F56E5C1-F146-4434-90E4-DA1B70285074";
layerId = "B49519BE-4AE6-40FF-B22D-9542B16A4142";
name = "Apr 16 19, 21:45";
shapes = (
{
closed = 1;
nodes = (
(544,0,l),
(693,700,l),
(638,700,l),
(489,0,l)
);
},
{
closed = 1;
nodes = (
(110,0,l),
(259,700,l),
(204,700,l),
(55,0,l)
);
},
{
closed = 1;
nodes = (
(589,307,l),
(607,392,l),
(179,392,l),
(161,307,l)
);
},
{
closed = 1;
nodes = (
(85,0,l),
(72,79,l),
(-10,58,l),
(-10,0,l)
);
},
{
closed = 1;
nodes = (
(114,642,l),
(187,621,l),
(234,700,l),
(114,700,l)
);
},
{
closed = 1;
nodes = (
(199,0,l),
(199,58,l),
(127,81,l),
(80,0,l)
);
},
{
closed = 1;
nodes = (
(242,619,l),
(323,642,l),
(323,700,l),
(229,700,l)
);
},
{
closed = 1;
nodes = (
(519,0,l),
(506,79,l),
(424,58,l),
(424,0,l)
);
},
{
closed = 1;
nodes = (
(633,0,l),
(633,58,l),
(561,81,l),
(514,0,l)
);
},
{
closed = 1;
nodes = (
(676,619,l),
(757,642,l),
(757,700,l),
(663,700,l)
);
},
{
closed = 1;
nodes = (
(548,642,l),
(621,621,l),
(668,700,l),
(548,700,l)
);
}
);
userData = {
com.typemytype.robofont.guides = (
{
isGlobal = 0;
magnetic = 5;
x = 0;
y = 657;
}
);
};
width = 742;
}
);
metricRight = "=|";
unicode = 72;
userData = {
KernOnName = H;
};
},
{
glyphname = Hbar;
lastChange = "2025-01-06 08:11:32 +0000";
layers = (
{
layerId = master01;
shapes = (
{
closed = 1;
nodes = (
(635,0,l),
(635,16,l),
(569,44,l),
(569,656,l),
(635,684,l),
(635,700,l),
(487,700,l),
(487,684,l),
(553,656,l),
(553,44,l),
(487,16,l),
(487,0,l)
);
},
{
closed = 1;
nodes = (
(197,0,l),
(197,16,l),
(131,44,l),
(131,656,l),
(197,684,l),
(197,700,l),
(49,700,l),
(49,684,l),
(115,656,l),
(115,44,l),
(49,16,l),
(49,0,l)
);
},
{
closed = 1;
nodes = (
(562,345,l),
(562,370,l),
(124,370,l),
(124,345,l)
);
},
{
closed = 1;
nodes = (
(627,534,l),
(636,555,l),
(632,559,l),
(52,559,l),
(44,539,l),
(48,534,l)
);
}
);
userData = {
com.hugojourdan.ColorFlow = {
"0" = 0;
"1" = 0;
"10" = 0;
"11" = 0;
"2" = 0;
"3" = 0;
"4" = 0;
"5" = 0;
"6" = 0;
"7" = 0;
"8" = 0;
"9" = 0;
};
};
width = 680;
},
{
layerId = "7F56E5C1-F146-4434-90E4-DA1B70285074";
shapes = (
{
closed = 1;
nodes = (
(682,0,l),
(682,58,l),
(605,81,l),
(605,621,l),
(682,642,l),
(682,700,l),
(473,700,l),
(473,642,l),
(550,619,l),
(550,79,l),
(473,58,l),
(473,0,l)
);
},
{
closed = 1;
nodes = (
(248,0,l),
(248,58,l),
(171,81,l),
(171,621,l),
(248,642,l),
(248,700,l),
(39,700,l),
(39,642,l),
(116,619,l),
(116,79,l),
(39,58,l),
(39,0,l)
);
},
{
closed = 1;
nodes = (
(575,307,l),
(575,392,l),
(147,392,l),
(147,307,l)
);
},
{
closed = 1;
nodes = (
(653,493,l),
(677,538,l),
(669,549,l),
(59,549,l),
(35,505,l),
(44,493,l)
);
}
);
userData = {
com.hugojourdan.ColorFlow = {
"0" = 0;
"1" = 0;
"10" = 0;
"11" = 0;
"2" = 0;
"3" = 0;
"4" = 0;
"5" = 0;
"6" = 0;
"7" = 0;
"8" = 0;
"9" = 0;
};
};
width = 717;
},
{
layerId = "3CA830F5-1E41-4F35-86DC-34C8110F5ED1";
shapes = (
{
closed = 1;
nodes = (
(700,0,l),
(700,138,l),
(632,169,l),
(632,531,l),
(700,562,l),
(700,700,l),
(454,700,l),
(454,562,l),
(522,531,l),
(522,169,l),
(454,138,l),
(454,0,l)
);
},
{
closed = 1;
nodes = (
(291,0,l),
(291,138,l),
(223,169,l),
(223,531,l),
(291,562,l),
(291,700,l),
(45,700,l),
(45,562,l),
(113,531,l),
(113,169,l),
(45,138,l),
(45,0,l)
);
},
{
closed = 1;
nodes = (
(557,267,l),
(557,392,l),
(154,392,l),
(154,267,l)
);
},
{
closed = 1;
nodes = (
(688,436,l),
(712,481,l),
(704,492,l),
(54,492,l),
(30,448,l),
(39,436,l)
);
}
);
userData = {
com.hugojourdan.ColorFlow = {
"0" = 0;
"1" = 0;
"10" = 0;
"11" = 0;
"2" = 0;
"3" = 0;
"4" = 0;
"5" = 0;
"6" = 0;
"7" = 0;
"8" = 0;
"9" = 0;
};
};
width = 742;
}
);
metricLeft = H;
metricRight = H;
unicode = 294;
},
{
glyphname = I;
kernLeft = KO_H;
kernRight = KO_H;
lastChange = "2025-01-05 09:40:56 +0000";
layers = (
{
anchors = (
{
name = bottom;
pos = (118,0);
},
{
name = ogonek;
pos = (187,0);
},
{
name = top;
pos = (118,700);
},
{
name = topleft;
pos = (24,700);
}
);
layerId = master01;
shapes = (
{
closed = 1;
nodes = (
(192,0,l),
(192,16,l),
(126,44,l),
(126,656,l),
(192,684,l),
(192,700,l),
(44,700,l),
(44,684,l),
(110,656,l),
(110,44,l),
(44,16,l),
(44,0,l)
);
}
);
userData = {
com.hugojourdan.ColorFlow = {
"0" = 0;
"1" = 0;
"10" = 0;
"11" = 0;
"2" = 0;
"3" = 0;
"4" = 0;
"5" = 0;
"6" = 0;
"7" = 0;
"8" = 0;
"9" = 0;
};
};
vertWidth = 750;
width = 236;
},
{
anchors = (
{
name = bottom;
pos = (140,0);
},
{
name = ogonek;
pos = (212,0);
},
{
name = top;
pos = (140,700);
},
{
name = topleft;
pos = (20,700);
}
);
layerId = "7F56E5C1-F146-4434-90E4-DA1B70285074";
shapes = (
{
closed = 1;
nodes = (
(244,0,l),
(244,58,l),
(167,81,l),
(167,621,l),
(244,642,l),
(244,700,l),
(35,700,l),
(35,642,l),
(112,619,l),
(112,79,l),
(35,58,l),
(35,0,l)
);
}
);
userData = {
com.hugojourdan.ColorFlow = {
"0" = 0;
"1" = 0;
"10" = 0;
"11" = 0;
"2" = 0;
"3" = 0;
"4" = 0;
"5" = 0;
"6" = 0;
"7" = 0;
"8" = 0;
"9" = 0;
};
};
width = 279;
},
{
anchors = (
{
name = bottom;
pos = (153,0);
},
{
name = ogonek;
pos = (248,0);
},
{
name = top;
pos = (153,700);
},
{
name = topleft;
pos = (20,700);
}
);
layerId = "3CA830F5-1E41-4F35-86DC-34C8110F5ED1";
shapes = (
{
closed = 1;
nodes = (
(276,0,l),
(276,138,l),
(208,169,l),
(208,531,l),
(276,562,l),
(276,700,l),
(30,700,l),
(30,562,l),
(98,531,l),
(98,169,l),
(30,138,l),
(30,0,l)
);
}
);
userData = {
com.hugojourdan.ColorFlow = {
"0" = 0;
"1" = 0;
"10" = 0;
"11" = 0;
"2" = 0;
"3" = 0;
"4" = 0;
"5" = 0;
"6" = 0;
"7" = 0;
"8" = 0;
"9" = 0;
};
};
width = 306;
}
);
metricLeft = H;
metricRight = H;
unicode = 73;
},
{
glyphname = J;
kernLeft = KO_J;
kernRight = KO_J;
lastChange = "2025-01-06 07:55:01 +0000";
layers = (
{
anchors = (
{
name = bottom;
pos = (131,0);
},
{
name = top;
pos = (157,700);
}
);
background = {
shapes = (
{
closed = 1;
nodes = (
(138,20,o),
(165,66,o),
(165,200,cs),
(165,666,l),
(231,684,l),
(231,700,l),
(83,700,l),
(83,684,l),
(149,666,l),
(149,201,ls),
(149,61,o),
(119,38,o),
(15,23,c),
(32,-5,l)
);
}
);
};
layerId = master01;
shapes = (
{
closed = 1;
nodes = (
(138,12,o),
(165,66,o),
(165,200,cs),
(165,656,l),
(231,684,l),
(231,700,l),
(83,700,l),
(83,684,l),
(149,656,l),
(149,201,ls),
(149,61,o),
(119,38,o),
(15,23,c),
(13,11,l),
(32,-5,l)
);
}
);
userData = {
com.hugojourdan.ColorFlow = {
"0" = 0;
"1" = 0;
"10" = 0;
"11" = 0;
"2" = 0;
"3" = 0;
"4" = 0;
"5" = 0;
"6" = 0;
"7" = 0;
"8" = 0;
"9" = 0;
};
};
vertWidth = 750;
width = 261;
},
{
anchors = (
{
name = bottom;
pos = (148,0);
},
{
name = top;
pos = (167,700);
}
);
background = {
shapes = (
{
closed = 1;
nodes = (
(163,10,o),
(194,112,o),
(194,225,cs),
(194,621,l),
(271,642,l),
(271,700,l),
(62,700,l),
(62,642,l),
(139,619,l),
(139,216,ls),
(139,132,o),
(108,81,o),
(5,78,c),
(46,-10,l)
);
}
);
};
layerId = "7F56E5C1-F146-4434-90E4-DA1B70285074";
shapes = (
{
closed = 1;
nodes = (
(163,10,o),
(194,112,o),
(194,225,cs),
(194,621,l),
(271,642,l),
(271,700,l),
(62,700,l),
(62,642,l),
(139,619,l),
(139,216,ls),
(139,132,o),
(108,81,o),
(5,78,c),
(-3,34,l),
(46,-10,l)
);
}
);
userData = {
com.hugojourdan.ColorFlow = {
"0" = 0;
"1" = 0;
"10" = 0;
"11" = 0;
"2" = 0;
"3" = 0;
"4" = 0;
"5" = 0;
"6" = 0;
"7" = 0;
"8" = 0;
"9" = 0;
};
};
vertWidth = 750;
width = 296;
},
{
anchors = (
{
name = bottom;
pos = (189,0);
},
{
name = top;
pos = (224,700);
}
);
background = {
shapes = (
{
closed = 1;
nodes = (
(240,15,o),
(279,125,o),
(279,243,cs),
(279,531,l),
(347,562,l),
(347,700,l),
(101,700,l),
(101,562,l),
(169,531,l),
(169,274,ls),
(169,196,o),
(137,160,o),
(25,156,c),
(86,-12,l)
);
}
);
};
layerId = "3CA830F5-1E41-4F35-86DC-34C8110F5ED1";
shapes = (
{
closed = 1;
nodes = (
(240,15,o),
(279,125,o),
(279,243,cs),
(279,531,l),
(347,562,l),
(347,700,l),
(101,700,l),
(101,562,l),
(169,531,l),
(169,274,ls),
(169,196,o),
(137,160,o),
(25,156,c),
(15,63,l),
(86,-12,l)
);
}
);
userData = {
com.hugojourdan.ColorFlow = {
"0" = 0;
"1" = 0;
"10" = 0;
"11" = 0;
"2" = 0;
"3" = 0;
"4" = 0;
"5" = 0;
"6" = 0;
"7" = 0;
"8" = 0;
"9" = 0;
};
};
vertWidth = 750;
width = 367;
}
);
metricRight = U;
unicode = 74;
userData = {
KernOnName = J;
};
},
{
glyphname = K;
kernLeft = KO_H;
kernRight = KO_K;
lastChange = "2025-01-06 07:55:01 +0000";
layers = (
{
anchors = (
{
name = bottom;
pos = (303,0);
},
{
name = top;
pos = (303,700);
}
);
background = {
hints = (
{
name = _corner.serifBottomRight;
options = 1;
place = (122,0);
type = Corner;
},
{
name = _corner.serifBottomLeft;
place = (122,0);
type = Corner;
},
{
name = _corner.serifBottomRight;
options = 1;
place = (106,0);
type = Corner;
},
{
name = _corner.serifBottomLeft;
place = (106,0);
type = Corner;
},
{
name = _corner.serifBottomRight;
options = 1;
type = Corner;
},
{
name = _corner.serifBottomLeft;
type = Corner;
},
{
name = _corner.serifBottomRight;
options = 1;
type = Corner;
},
{
name = _corner.serifBottomLeft;
type = Corner;
}
);
shapes = (
{
closed = 1;
nodes = (
(569,0,l),
(569,16,l),
(509,34,l),
(261,352,l),
(261,344,l),
(493,674,l),
(473,654,l),
(544,684,l),
(544,700,l),
(401,700,l),
(401,684,l),
(465,657,l),
(471,671,l),
(242,348,l),
(488,34,l),
(422,16,l),
(422,0,l)
);
},
{
closed = 1;
nodes = (
(192,0,l),
(192,16,l),
(126,44,l),
(126,656,l),
(192,684,l),
(192,700,l),
(44,700,l),
(44,684,l),
(110,656,l),
(110,44,l),
(44,16,l),
(44,0,l)
);
},
{
closed = 1;
nodes = (
(257,335,l),
(257,360,l,{
name = "🧨";
}),
(119,360,l),
(119,335,l)
);
}
);
};
layerId = master01;
shapes = (
{
closed = 1;
nodes = (
(569,0,l),
(569,16,l),
(501,44,l),
(261,352,l),
(261,344,l),
(493,674,l),
(473,654,l),
(544,684,l),
(544,700,l),
(401,700,l),
(401,684,l),
(465,657,l),
(471,671,l),
(242,348,l),
(480,44,l),
(422,16,l),
(422,0,l)
);
},
{
closed = 1;
nodes = (
(192,0,l),
(192,16,l),
(126,44,l),
(126,656,l),
(192,684,l),
(192,700,l),
(44,700,l),
(44,684,l),
(110,656,l),
(110,44,l),
(44,16,l),
(44,0,l)
);
},
{
closed = 1;
nodes = (
(257,335,l),
(257,360,l,{
name = "🧨";
}),
(119,360,l),
(119,335,l)
);
}
);
userData = {
com.hugojourdan.ColorFlow = {
"0" = 0;
"1" = 0;
"10" = 0;
"11" = 0;
"2" = 0;
"3" = 0;
"4" = 0;
"5" = 0;
"6" = 0;
"7" = 0;
"8" = 0;
"9" = 0;
};
};
vertWidth = 750;
width = 595;
},
{
anchors = (
{
name = bottom;
pos = (314,0);
},
{
name = top;
pos = (324,700);
}
);
background = {
hints = (
{
name = _corner.serifBottomRight;
options = 1;
place = (167,0);
type = Corner;
},
{
name = _corner.serifBottomLeft;
place = (167,0);
type = Corner;
},
{
name = _corner.serifBottomRight;
options = 1;
place = (112,0);
type = Corner;
},
{
name = _corner.serifBottomLeft;
place = (112,0);
type = Corner;
},
{
name = _corner.serifBottomRight;
options = 1;
origin = (4,0);
type = Corner;
},
{
name = _corner.serifBottomLeft;
origin = (4,1);
type = Corner;
},
{
name = _corner.serifBottomRight;
options = 1;
origin = (4,2);
type = Corner;
},
{
name = _corner.serifBottomLeft;
origin = (4,3);
type = Corner;
}
);
shapes = (
{
closed = 1;
nodes = (
(602,72,l),
(428,101,o),
(440,345,o),
(268,361,c),
(247,310,l),
(413,310,o),
(382,18,o),
(565,-10,c)
);
},
{
closed = 1;
nodes = (
(151,310,l),
(268,310,l),
(279,390,l),
(151,390,l)
);
},
{
closed = 1;
nodes = (
(302,338,l),
(545,697,l),
(477,697,l),
(249,351,l)
);
},
{
closed = 1;
nodes = (
(487,642,l),
(479,612,l),
(565,642,l),
(565,700,l),
(378,700,l),
(378,642,l),
(456,611,l),
(473,642,l)
);
},
{
closed = 1;
nodes = (
(167,0,l),
(167,700,l),
(112,700,l),
(112,0,l)
);
}
);
};
layerId = "7F56E5C1-F146-4434-90E4-DA1B70285074";
shapes = (
{
closed = 1;
nodes = (
(604,0,l),
(604,58,l),
(523,81,l),
(308,361,l),
(312,350,l),
(524,633,l),
(503,618,l),
(595,642,l),
(595,700,l),
(393,700,l),
(393,642,l),
(465,615,l),
(461,633,l),
(248,350,l),
(456,79,l),
(395,58,l),
(395,0,l)
);
},
{
closed = 1;
nodes = (
(244,0,l),
(244,58,l),
(167,81,l),
(167,621,l),
(244,642,l),
(244,700,l),
(35,700,l),
(35,642,l),
(112,619,l),
(112,79,l),
(35,58,l),
(35,0,l)
);
},
{
closed = 1;
nodes = (
(294,310,l),
(294,390,l),
(151,390,l),
(151,310,l)
);
}
);
userData = {
com.hugojourdan.ColorFlow = {
"0" = 0;
"1" = 0;
"10" = 0;
"11" = 0;
"2" = 0;
"3" = 0;
"4" = 0;
"5" = 0;
"6" = 0;
"7" = 0;
"8" = 0;
"9" = 0;
};
};
vertWidth = 750;
width = 647;
},
{
anchors = (
{
name = bottom;
pos = (337,0);
},
{
name = top;
pos = (337,700);
}
);
background = {
hints = (
{
name = _corner.serifBottomRight;
options = 1;
origin = (4,0);
type = Corner;
},
{
name = _corner.serifBottomLeft;
origin = (4,1);
type = Corner;
},
{
name = _corner.serifBottomRight;
options = 1;
origin = (4,2);
type = Corner;
},
{
name = _corner.serifBottomLeft;
origin = (4,3);
type = Corner;
}
);
shapes = (
{
closed = 1;
nodes = (
(633,155,l),
(426,183,o),
(453,381,o),
(254,381,c),
(233,275,l),
(383,275,o),
(344,5,o),
(566,-10,c)
);
},
{
closed = 1;
nodes = (
(137,275,l),
(254,275,l),
(295,410,l),
(137,410,l)
);
},
{
closed = 1;
nodes = (
(335,328,l),
(540,592,l),
(463,654,l),
(236,351,l)
);
},
{
closed = 1;
nodes = (
(461,562,l),
(453,532,l),
(576,562,l),
(576,700,l),
(324,700,l),
(324,562,l),
(412,531,l),
(429,562,l)
);
},
{
closed = 1;
nodes = (
(208,0,l),
(208,700,l),
(98,700,l),
(98,0,l)
);
}
);
};
layerId = "3CA830F5-1E41-4F35-86DC-34C8110F5ED1";
shapes = (
{
closed = 1;
nodes = (
(643,0,l),
(643,138,l),
(553,169,l),
(361,384,l),
(361,354,l),
(568,563,l),
(494,515,l),
(615,562,l),
(615,700,l),
(351,700,l),
(351,562,l),
(452,511,l),
(444,563,l),
(245,361,l),
(418,169,l),
(350,138,l),
(350,0,l)
);
},
{
closed = 1;
nodes = (
(276,0,l),
(276,138,l),
(208,169,l),
(208,531,l),
(276,562,l),
(276,700,l),
(30,700,l),
(30,562,l),
(98,531,l),
(98,169,l),
(30,138,l),
(30,0,l)
);
},
{
closed = 1;
nodes = (
(350,275,l),
(350,410,l),
(137,410,l),
(137,275,l)
);
}
);
userData = {
com.hugojourdan.ColorFlow = {
"0" = 0;
"1" = 0;
"10" = 0;
"11" = 0;
"2" = 0;
"3" = 0;
"4" = 0;
"5" = 0;
"6" = 0;
"7" = 0;
"8" = 0;
"9" = 0;
};
};
vertWidth = 750;
width = 663;
}
);
metricLeft = H;
unicode = 75;
userData = {
KernOnName = K;
};
},
{
glyphname = L;
kernLeft = KO_H;
kernRight = KO_L;
lastChange = "2025-01-06 07:55:01 +0000";
layers = (
{
anchors = (
{
name = bottom;
pos = (263,0);
},
{
name = center;
pos = (133,350);
},
{
name = top;
pos = (118,700);
},
{
name = topright;
pos = (207,445);
}
);
layerId = master01;
shapes = (
{
closed = 1;
nodes = (
(461,0,l),
(486,163,l),
(469,165,l),
(419,9,l),
(455,25,l),
(119,25,l),
(126,19,l),
(126,656,l),
(192,684,l),
(192,700,l),
(44,700,l),
(44,684,l),
(110,656,l),
(110,44,l),
(44,16,l),
(44,0,l)
);
}
);
userData = {
com.hugojourdan.ColorFlow = {
"0" = 0;
"1" = 0;
"10" = 0;
"11" = 0;
"2" = 0;
"3" = 0;
"4" = 0;
"5" = 0;
"6" = 0;
"7" = 0;
"8" = 0;
"9" = 0;
};
};
width = 521;
},
{
anchors = (
{
name = bottom;
pos = (264,0);
},
{
name = center;
pos = (154,350);
},
{
name = top;
pos = (140,700);
},
{
name = topright;
pos = (253,445);
}
);
layerId = "7F56E5C1-F146-4434-90E4-DA1B70285074";
shapes = (
{
closed = 1;
nodes = (
(483,0,l),
(498,163,l),
(463,170,l),
(421,62,l),
(455,85,l),
(151,85,l),
(167,64,l),
(167,621,l),
(244,642,l),
(244,700,l),
(35,700,l),
(35,642,l),
(112,619,l),
(112,79,l),
(35,58,l),
(35,0,l)
);
}
);
userData = {
com.hugojourdan.ColorFlow = {
"0" = 0;
"1" = 0;
"10" = 0;
"11" = 0;
"2" = 0;
"3" = 0;
"4" = 0;
"5" = 0;
"6" = 0;
"7" = 0;
"8" = 0;
"9" = 0;
};
};
width = 528;
},
{
anchors = (
{
name = bottom;
pos = (282,0);
},
{
name = center;
pos = (162,350);
},
{
name = top;
pos = (153,700);
},
{
name = topright;
pos = (283,459);
}
);
layerId = "3CA830F5-1E41-4F35-86DC-34C8110F5ED1";
shapes = (
{
closed = 1;
nodes = (
(524,0,l),
(539,243,l),
(454,260,l),
(409,142,l),
(443,165,l),
(186,165,l),
(208,137,l),
(208,531,l),
(276,562,l),
(276,700,l),
(30,700,l),
(30,562,l),
(98,531,l),
(98,169,l),
(30,138,l),
(30,0,l)
);
}
);
userData = {
com.hugojourdan.ColorFlow = {
"0" = 0;
"1" = 0;
"10" = 0;
"11" = 0;
"2" = 0;
"3" = 0;
"4" = 0;
"5" = 0;
"6" = 0;
"7" = 0;
"8" = 0;
"9" = 0;
};
};
width = 564;
}
);
metricLeft = H;
unicode = 76;
userData = {
KernOnName = L;
};
},
{
glyphname = M;
kernLeft = KO_M;
kernRight = KO_M;
lastChange = "2025-01-06 07:55:01 +0000";
layers = (
{
background = {
shapes = (
{
closed = 1;
nodes = (
(167,0,l),
(167,16,l),
(101,34,l),
(187,659,l),
(173,614,l),
(224,614,l),
(197,653,l),
(430,0,l),
(451,0,l),
(684,649,l),
(659,614,l),
(708,614,l),
(694,650,l),
(780,34,l),
(714,16,l),
(714,0,l),
(862,0,l),
(862,16,l),
(796,34,l),
(703,705,l),
(687,705,l),
(450,48,l),
(473,79,l,{
name = "🧨";
}),
(407,79,l),
(431,48,l),
(195,705,l),
(179,705,l),
(86,34,l),
(20,16,l),
(20,0,l)
);
}
);
};
layerId = master01;
shapes = (
{
closed = 1;
nodes = (
(167,0,l),
(167,16,l),
(102,44,l),
(187,659,l),
(173,614,l),
(224,614,l),
(197,653,l),
(430,0,l),
(451,0,l),
(684,649,l),
(659,614,l),
(708,614,l),
(694,650,l),
(779,44,l),
(714,16,l),
(714,0,l),
(862,0,l),
(862,16,l),
(795,44,l),
(703,705,l),
(687,705,l),
(450,48,l),
(473,79,l,{
name = "🧨";
}),
(407,79,l),
(431,48,l),
(195,705,l),
(179,705,l),
(87,44,l),
(20,16,l),
(20,0,l)
);
}
);
userData = {
com.hugojourdan.ColorFlow = {
"0" = 0;
"1" = 0;
"10" = 0;
"11" = 0;
"2" = 0;
"3" = 0;
"4" = 0;
"5" = 0;
"6" = 0;
"7" = 0;
"8" = 0;
"9" = 0;
};
};
vertWidth = 750;
width = 882;
},
{
layerId = "7F56E5C1-F146-4434-90E4-DA1B70285074";
shapes = (
{
closed = 1;
nodes = (
(233,0,l),
(233,58,l),
(156,81,l),
(223,569,l),
(195,544,l),
(274,544,l),
(240,567,l),
(438,0,l),
(498,0,l),
(697,567,l),
(663,544,l),
(742,544,l),
(714,569,l),
(781,79,l),
(704,58,l),
(704,0,l),
(916,0,l),
(916,58,l),
(839,81,l),
(752,705,l),
(688,705,l),
(477,98,l),
(511,121,l),
(426,121,l),
(460,98,l),
(249,705,l),
(186,705,l),
(100,79,l),
(23,58,l),
(23,0,l)
);
}
);
userData = {
com.hugojourdan.ColorFlow = {
"0" = 0;
"1" = 0;
"10" = 0;
"11" = 0;
"2" = 0;
"3" = 0;
"4" = 0;
"5" = 0;
"6" = 0;
"7" = 0;
"8" = 0;
"9" = 0;
};
};
vertWidth = 750;
width = 939;
},
{
layerId = "3CA830F5-1E41-4F35-86DC-34C8110F5ED1";
shapes = (
{
closed = 1;
nodes = (
(271,0,l),
(271,138,l),
(203,169,l),
(241,458,l),
(213,433,l),
(286,433,l),
(252,456,l),
(403,0,l),
(533,0,l),
(685,456,l),
(651,433,l),
(724,433,l),
(696,458,l),
(734,169,l),
(666,138,l),
(666,0,l),
(919,0,l),
(919,138,l),
(851,169,l),
(776,705,l),
(660,705,l),
(474,181,l),
(508,204,l),
(428,204,l),
(462,181,l),
(277,705,l),
(161,705,l),
(87,169,l),
(19,138,l),
(19,0,l)
);
}
);
userData = {
com.hugojourdan.ColorFlow = {
"0" = 0;
"1" = 0;
"10" = 0;
"11" = 0;
"2" = 0;
"3" = 0;
"4" = 0;
"5" = 0;
"6" = 0;
"7" = 0;
"8" = 0;
"9" = 0;
};
};
vertWidth = 750;
width = 938;
}
);
metricRight = "=|";
unicode = 77;
userData = {
KernOnName = M;
};
},
{
glyphname = N;
kernLeft = KO_H;
kernRight = KO_N;
lastChange = "2025-01-05 09:40:56 +0000";
layers = (
{
anchors = (
{
name = bottom;
pos = (333,0);
},
{
name = top;
pos = (333,700);
}
);
layerId = master01;
shapes = (
{
closed = 1;
nodes = (
(192,0,l),
(192,16,l),
(126,44,l),
(126,683,l),
(115,672,l),
(544,0,l),
(560,0,l),
(560,656,l),
(626,684,l),
(626,700,l),
(478,700,l),
(478,684,l),
(544,656,l),
(544,17,l),
(556,28,l),
(126,700,l),
(44,700,l),
(44,684,l),
(110,656,l),
(110,44,l),
(44,16,l),
(44,0,l)
);
}
);
userData = {
com.hugojourdan.ColorFlow = {
"0" = 0;
"1" = 0;
"10" = 0;
"11" = 0;
"2" = 0;
"3" = 0;
"4" = 0;
"5" = 0;
"6" = 0;
"7" = 0;
"8" = 0;
"9" = 0;
};
};
vertWidth = 750;
width = 661;
},
{
anchors = (
{
name = bottom;
pos = (352,0);
},
{
name = top;
pos = (352,700);
}
);
layerId = "7F56E5C1-F146-4434-90E4-DA1B70285074";
shapes = (
{
closed = 1;
nodes = (
(244,0,l),
(244,58,l),
(167,81,l),
(167,588,l),
(151,584,l),
(546,0,l),
(601,0,l),
(601,621,l),
(678,642,l),
(678,700,l),
(469,700,l),
(469,642,l),
(546,619,l),
(546,109,l),
(560,113,l),
(167,700,l),
(35,700,l),
(35,642,l),
(112,619,l),
(112,79,l),
(35,58,l),
(35,0,l)
);
}
);
userData = {
com.hugojourdan.ColorFlow = {
"0" = 0;
"1" = 0;
"10" = 0;
"11" = 0;
"2" = 0;
"3" = 0;
"4" = 0;
"5" = 0;
"6" = 0;
"7" = 0;
"8" = 0;
"9" = 0;
};
};
vertWidth = 750;
width = 703;
},
{
anchors = (
{
name = bottom;
pos = (360,0);
},
{
name = top;
pos = (360,700);
}
);
layerId = "3CA830F5-1E41-4F35-86DC-34C8110F5ED1";
shapes = (
{
closed = 1;
nodes = (
(276,0,l),
(276,138,l),
(208,169,l),
(208,448,l),
(193,443,l),
(522,0,l),
(632,0,l),
(632,531,l),
(700,562,l),
(700,700,l),
(454,700,l),
(454,562,l),
(522,531,l),
(522,247,l),
(537,252,l),
(208,700,l),
(30,700,l),
(30,562,l),
(98,531,l),
(98,169,l),
(30,138,l),
(30,0,l)
);
}
);
userData = {
com.hugojourdan.ColorFlow = {
"0" = 0;
"1" = 0;
"10" = 0;
"11" = 0;
"2" = 0;
"3" = 0;
"4" = 0;
"5" = 0;
"6" = 0;
"7" = 0;
"8" = 0;
"9" = 0;
};
};
vertWidth = 750;
width = 720;
}
);
metricLeft = H;
unicode = 78;
},
{
glyphname = Eng;
kernLeft = KO_H;
kernRight = KO_N;
lastChange = "2025-01-06 08:18:34 +0000";
layers = (
{
background = {
shapes = (
{
closed = 1;
nodes = (
(530,-213,o),
(560,-142,o),
(560,1,c),
(544,1,l),
(544,-145,o),
(511,-197,o),
(400,-227,c),
(417,-255,l)
);
}
);
};
layerId = master01;
shapes = (
{
closed = 1;
nodes = (
(529,-238,o),
(560,-172,o),
(560,-45,cs),
(560,7,l),
(544,7,l),
(544,-45,ls),
(544,-179,o),
(510,-219,o),
(437,-237,c),
(437,-249,l),
(452,-260,l)
);
},
{
ref = N;
}
);
userData = {
com.hugojourdan.ColorFlow = {
"0" = 0;
"1" = 0;
"10" = 0;
"11" = 0;
"2" = 0;
"3" = 0;
"4" = 0;
"5" = 0;
"6" = 0;
"7" = 0;
"8" = 0;
"9" = 0;
};
};
width = 661;
},
{
background = {
shapes = (
{
closed = 1;
nodes = (
(566,-229,o),
(602,-121,o),
(601,9,c),
(546,0,l),
(546,-103,o),
(511,-160,o),
(392,-172,c),
(433,-260,l)
);
}
);
};
layerId = "7F56E5C1-F146-4434-90E4-DA1B70285074";
shapes = (
{
closed = 1;
nodes = (
(567,-228,o),
(601,-162,o),
(601,-36,cs),
(601,13,l),
(545,8,l),
(545,-45,ls),
(545,-132,o),
(513,-164,o),
(442,-176,c),
(437,-220,l),
(481,-260,l)
);
},
{
ref = N;
}
);
userData = {
com.hugojourdan.ColorFlow = {
"0" = 0;
"1" = 0;
"10" = 0;
"11" = 0;
"2" = 0;
"3" = 0;
"4" = 0;
"5" = 0;
"6" = 0;
"7" = 0;
"8" = 0;
"9" = 0;
};
};
width = 703;
},
{
background = {
shapes = (
{
closed = 1;
nodes = (
(596,-220,o),
(632,-114,o),
(632,5,c),
(522,6,l),
(522,-55,o),
(493,-79,o),
(398,-92,c),
(459,-260,l)
);
}
);
};
layerId = "3CA830F5-1E41-4F35-86DC-34C8110F5ED1";
shapes = (
{
closed = 1;
nodes = (
(586,-223,o),
(632,-145,o),
(632,4,cs),
(632,75,l),
(521,75,l),
(521,5,ls),
(521,-67,o),
(485,-84,o),
(403,-90,c),
(395,-183,l),
(462,-260,l)
);
},
{
ref = N;
}
);
userData = {
com.hugojourdan.ColorFlow = {
"0" = 0;
"1" = 0;
"10" = 0;
"11" = 0;
"2" = 0;
"3" = 0;
"4" = 0;
"5" = 0;
"6" = 0;
"7" = 0;
"8" = 0;
"9" = 0;
};
};
width = 720;
}
);
metricLeft = N;
metricRight = N;
unicode = 330;
},
{
glyphname = O;
kernLeft = KO_O;
kernRight = KO_D;
lastChange = "2025-01-06 07:55:01 +0000";
layers = (
{
anchors = (
{
name = bottom;
pos = (370,0);
},
{
name = center;
pos = (370,350);
},
{
name = ogonek;
pos = (664,10);
},
{
name = top;
pos = (370,700);
},
{
name = topleft;
pos = (45,700);
},
{
name = topright;
pos = (593,700);
}
);
layerId = master01;
shapes = (
{
closed = 1;
nodes = (
(566,-5,o),
(680,137,o),
(680,350,cs),
(680,563,o),
(566,705,o),
(370,705,cs),
(175,705,o),
(60,563,o),
(60,350,cs),
(60,137,o),
(175,-5,o),
(370,-5,cs)
);
},
{
closed = 1;
nodes = (
(179,23,o),
(78,147,o),
(78,350,cs),
(78,553,o),
(179,677,o),
(370,677,cs),
(559,677,o),
(662,553,o),
(662,350,cs),
(662,147,o),
(559,23,o),
(370,23,cs)
);
}
);
userData = {
com.hugojourdan.ColorFlow = {
"0" = 0;
"1" = 0;
"10" = 0;
"11" = 0;
"2" = 0;
"3" = 0;
"4" = 0;
"5" = 0;
"6" = 0;
"7" = 0;
"8" = 0;
"9" = 0;
};
};
vertWidth = 750;
width = 740;
},
{
anchors = (
{
name = bottom;
pos = (375,0);
},
{
name = center;
pos = (375,350);
},
{
name = ogonek;
pos = (675,10);
},
{
name = top;
pos = (375,700);
},
{
name = topleft;
pos = (20,700);
},
{
name = topright;
pos = (580,700);
}
);
layerId = "7F56E5C1-F146-4434-90E4-DA1B70285074";
shapes = (
{
closed = 1;
nodes = (
(573,-10,o),
(689,134,o),
(689,350,cs,{
name = sh02;
}),
(689,566,o),
(573,710,o),
(373,710,cs,{
name = at01;
}),
(173,710,o),
(55,566,o),
(55,350,cs,{
name = sh01;
}),
(55,134,o),
(173,-10,o),
(373,-10,cs,{
name = ab01;
})
);
},
{
closed = 1;
nodes = (
(203,78,o),
(113,176,o),
(113,350,cs,{
name = sh03;
}),
(113,523,o),
(202,622,o),
(371,622,cs,{
name = sv02;
}),
(540,622,o),
(631,522,o),
(631,350,cs,{
name = ah01;
}),
(631,177,o),
(539,78,o),
(371,78,cs,{
name = sv01;
})
);
}
);
userData = {
com.hugojourdan.ColorFlow = {
"0" = 0;
"1" = 0;
"10" = 0;
"11" = 0;
"2" = 0;
"3" = 0;
"4" = 0;
"5" = 0;
"6" = 0;
"7" = 0;
"8" = 0;
"9" = 0;
};
};
vertWidth = 750;
width = 744;
},
{
anchors = (
{
name = bottom;
pos = (360,0);
},
{
name = center;
pos = (360,350);
},
{
name = ogonek;
pos = (652,10);
},
{
name = top;
pos = (360,700);
},
{
name = topleft;
pos = (15,700);
},
{
name = topright;
pos = (535,700);
}
);
layerId = "3CA830F5-1E41-4F35-86DC-34C8110F5ED1";
shapes = (
{
closed = 1;
nodes = (
(562,-10,o),
(680,134,o),
(680,350,cs),
(680,566,o),
(562,710,o),
(360,710,cs),
(158,710,o),
(40,566,o),
(40,350,cs),
(40,134,o),
(158,-10,o),
(360,-10,cs)
);
},
{
closed = 1;
nodes = (
(222,158,o),
(153,227,o),
(153,349,cs),
(153,472,o),
(224,542,o),
(359,542,cs),
(493,542,o),
(567,472,o),
(567,350,cs),
(567,227,o),
(491,158,o),
(357,158,cs)
);
}
);
userData = {
com.hugojourdan.ColorFlow = {
"0" = 0;
"1" = 0;
"10" = 0;
"11" = 0;
"2" = 0;
"3" = 0;
"4" = 0;
"5" = 0;
"6" = 0;
"7" = 0;
"8" = 0;
"9" = 0;
};
};
vertWidth = 750;
width = 720;
}
);
metricRight = "=|";
unicode = 79;
userData = {
KernOnName = O;
};
},
{
glyphname = OE;
kernLeft = KO_O;
kernRight = KO_E;
lastChange = "2025-01-05 08:38:55 +0000";
layers = (
{
layerId = master01;
shapes = (
{
closed = 1;
nodes = (
(821,0,l),
(846,163,l),
(829,165,l),
(775,9,l),
(815,25,l),
(412,25,ls),
(194,25,o),
(78,148,o),
(78,350,cs),
(78,552,o),
(194,675,o),
(412,675,cs),
(793,675,l),
(764,688,l),
(819,554,l),
(836,557,l),
(811,700,l),
(412,700,ls),
(190,700,o),
(60,560,o),
(60,350,cs),
(60,140,o),
(190,0,o),
(412,0,cs)
);
},
{
closed = 1;
nodes = (
(476,10,l,{
name = "🧨";
}),
(476,688,l,{
name = "🧨";
}),
(460,688,l,{
name = "🧨";
}),
(460,10,l,{
name = "🧨";
})
);
},
{
closed = 1;
nodes = (
(705,351,l),
(705,372,l),
(469,372,l),
(469,351,l)
);
},
{
closed = 1;
nodes = (
(719,259,l),
(719,445,l),
(705,445,l),
(678,370,l),
(677,357,l),
(704,259,l)
);
}
);
userData = {
com.hugojourdan.ColorFlow = {
"0" = 0;
"1" = 0;
"10" = 0;
"11" = 0;
"2" = 0;
"3" = 0;
"4" = 0;
"5" = 0;
"6" = 0;
"7" = 0;
"8" = 0;
"9" = 0;
};
};
width = 881;
},
{
layerId = "7F56E5C1-F146-4434-90E4-DA1B70285074";
shapes = (
{
closed = 1;
nodes = (
(835,0,l),
(850,163,l),
(815,170,l),
(773,62,l),
(807,85,l),
(404,85,ls),
(202,85,o),
(113,171,o),
(113,350,cs,{
name = sh03;
}),
(113,529,o),
(202,615,o),
(404,615,cs),
(800,615,l),
(765,637,l),
(805,550,l),
(840,557,l),
(825,700,l),
(404,700,ls),
(175,700,o),
(55,570,o),
(55,350,cs,{
name = sh01;
}),
(55,130,o),
(175,0,o),
(404,0,cs)
);
},
{
closed = 1;
nodes = (
(519,40,l,{
name = "🧨";
}),
(519,650,l,{
name = "🧨";
}),
(464,650,l,{
name = "🧨";
}),
(464,40,l,{
name = "🧨";
})
);
},
{
closed = 1;
nodes = (
(691,329,l),
(691,390,l),
(493,390,l),
(493,329,l)
);
},
{
closed = 1;
nodes = (
(733,259,l),
(733,446,l),
(691,446,l),
(670,370,l),
(669,347,l),
(690,259,l)
);
}
);
userData = {
com.hugojourdan.ColorFlow = {
"0" = 0;
"1" = 0;
"10" = 0;
"11" = 0;
"2" = 0;
"3" = 0;
"4" = 0;
"5" = 0;
"6" = 0;
"7" = 0;
"8" = 0;
"9" = 0;
};
};
width = 880;
},
{
layerId = "3CA830F5-1E41-4F35-86DC-34C8110F5ED1";
shapes = (
{
closed = 1;
nodes = (
(851,0,l),
(866,243,l),
(781,260,l),
(736,142,l),
(770,165,l),
(359,165,ls),
(222,165,o),
(153,231,o),
(153,349,cs),
(153,468,o),
(224,535,o),
(359,535,cs),
(762,535,l),
(727,558,l),
(771,460,l),
(856,477,l),
(841,700,l),
(359,700,ls),
(158,700,o),
(40,560,o),
(40,350,cs),
(40,140,o),
(158,0,o),
(359,0,cs)
);
},
{
closed = 1;
nodes = (
(535,90,l,{
name = "🧨";
}),
(535,640,l,{
name = "🧨";
}),
(425,640,l,{
name = "🧨";
}),
(425,90,l,{
name = "🧨";
})
);
},
{
closed = 1;
nodes = (
(677,290,l),
(677,421,l),
(464,421,l),
(464,290,l)
);
},
{
closed = 1;
nodes = (
(719,237,l),
(719,469,l),
(627,469,l),
(606,373,l),
(605,350,l),
(626,237,l)
);
}
);
userData = {
com.hugojourdan.ColorFlow = {
"0" = 0;
"1" = 0;
"10" = 0;
"11" = 0;
"2" = 0;
"3" = 0;
"4" = 0;
"5" = 0;
"6" = 0;
"7" = 0;
"8" = 0;
"9" = 0;
};
};
width = 891;
}
);
metricLeft = O;
metricRight = E;
unicode = 338;
},
{
glyphname = P;
kernLeft = KO_H;
kernRight = KO_P;
lastChange = "2025-01-06 08:21:03 +0000";
layers = (
{
layerId = master01;
shapes = (
{
closed = 1;
nodes = (
(192,0,l),
(192,16,l),
(126,44,l),
(126,683,l),
(118,675,l),
(270,675,ls),
(379,675,o),
(446,632,o),
(446,503,cs),
(446,373,o),
(379,325,o),
(256,325,cs),
(121,325,l),
(121,300,l),
(256,300,ls),
(397,300,o),
(465,363,o),
(465,503,cs),
(465,641,o),
(397,700,o),
(270,700,cs),
(44,700,l),
(44,684,l),
(110,656,l),
(110,44,l),
(44,16,l),
(44,0,l)
);
}
);
userData = {
com.hugojourdan.ColorFlow = {
"0" = 0;
"1" = 0;
"10" = 0;
"11" = 0;
"2" = 0;
"3" = 0;
"4" = 0;
"5" = 0;
"6" = 0;
"7" = 0;
"8" = 0;
"9" = 0;
};
};
vertWidth = 750;
width = 500;
},
{
layerId = "7F56E5C1-F146-4434-90E4-DA1B70285074";
shapes = (
{
closed = 1;
nodes = (
(244,0,l),
(244,58,l),
(167,81,l),
(167,640,l),
(142,615,l),
(310,615,ls),
(394,615,o),
(433,575,o),
(433,491,cs),
(433,417,o),
(403,360,o),
(294,360,cs),
(153,360,l),
(153,280,l),
(283,280,ls),
(383,280,o),
(491,331,o),
(491,493,cs),
(491,648,o),
(398,700,o),
(297,700,cs),
(35,700,l),
(35,642,l),
(112,619,l),
(112,79,l),
(35,58,l),
(35,0,l)
);
}
);
userData = {
com.hugojourdan.ColorFlow = {
"0" = 0;
"1" = 0;
"10" = 0;
"11" = 0;
"2" = 0;
"3" = 0;
"4" = 0;
"5" = 0;
"6" = 0;
"7" = 0;
"8" = 0;
"9" = 0;
};
};
vertWidth = 750;
width = 531;
},
{
background = {
hints = (
{
name = _corner.serifBottomRight;
options = 1;
origin = (0,8);
type = Corner;
},
{
name = _corner.serifBottomLeft;
origin = (0,9);
type = Corner;
},
{
name = _corner.serifBottomRight;
options = 1;
origin = (0,10);
type = Corner;
}
);
shapes = (
{
closed = 1;
nodes = (
(192,265,l),
(254,265,ls),
(392,265,o),
(502,312,o),
(502,484,cs),
(502,641,o),
(411,700,o),
(268,700,cs),
(98,700,l),
(98,0,l),
(208,0,l),
(208,560,l),
(183,535,l),
(281,535,ls),
(356,535,o),
(389,517,o),
(389,452,cs),
(389,394,o),
(361,360,o),
(265,360,cs),
(192,360,l)
);
}
);
};
layerId = "3CA830F5-1E41-4F35-86DC-34C8110F5ED1";
shapes = (
{
closed = 1;
nodes = (
(276,0,l),
(276,138,l),
(208,169,l),
(208,560,l),
(183,535,l),
(301,535,ls),
(376,535,o),
(409,520,o),
(409,464,cs),
(409,417,o),
(386,390,o),
(305,390,cs),
(192,390,l),
(192,245,l),
(274,245,ls),
(412,245,o),
(522,294,o),
(522,474,cs),
(522,638,o),
(431,700,o),
(288,700,cs),
(30,700,l),
(30,562,l),
(98,531,l),
(98,169,l),
(30,138,l),
(30,0,l)
);
}
);
userData = {
com.hugojourdan.ColorFlow = {
"0" = 0;
"1" = 0;
"10" = 0;
"11" = 0;
"2" = 0;
"3" = 0;
"4" = 0;
"5" = 0;
"6" = 0;
"7" = 0;
"8" = 0;
"9" = 0;
};
};
vertWidth = 750;
width = 549;
}
);
metricLeft = H;
unicode = 80;
userData = {
KernOnName = P;
};
},
{
glyphname = Thorn;
kernLeft = KO_H;
lastChange = "2025-01-06 08:52:15 +0000";
layers = (
{
layerId = master01;
shapes = (
{
closed = 1;
nodes = (
(192,0,l),
(192,16,l),
(126,44,l),
(126,656,l),
(192,684,l),
(192,700,l),
(44,700,l),
(44,684,l),
(110,656,l),
(110,44,l),
(44,16,l),
(44,0,l)
);
},
{
closed = 1;
nodes = (
(256,196,ls),
(375,196,o),
(445,259,o),
(445,372,cs),
(445,477,o),
(383,536,o),
(270,536,cs),
(120,536,l),
(120,511,l),
(270,511,ls),
(372,511,o),
(426,462,o),
(426,372,cs),
(426,281,o),
(372,221,o),
(256,221,cs),
(121,221,l),
(121,196,l)
);
}
);
userData = {
com.hugojourdan.ColorFlow = {
"0" = 0;
"1" = 0;
"10" = 0;
"11" = 0;
"2" = 0;
"3" = 0;
"4" = 0;
"5" = 0;
"6" = 0;
"7" = 0;
"8" = 0;
"9" = 0;
};
};
width = 480;
},
{
background = {
shapes = (
{
closed = 1;
nodes = (
(244,0,l),
(244,58,l),
(167,81,l),
(167,470,l),
(142,445,l),
(310,445,ls),
(381,445,o),
(413,415,o),
(413,349,cs),
(413,288,o),
(386,240,o),
(294,240,cs),
(153,240,l),
(153,185,l),
(283,185,ls),
(372,185,o),
(471,223,o),
(471,359,cs),
(471,483,o),
(388,530,o),
(297,530,cs),
(167,530,l),
(167,621,l),
(244,642,l),
(244,700,l),
(35,700,l),
(35,642,l),
(112,619,l),
(112,79,l),
(35,58,l),
(35,0,l)
);
}
);
};
layerId = "7F56E5C1-F146-4434-90E4-DA1B70285074";
shapes = (
{
closed = 1;
nodes = (
(244,0,l),
(244,58,l),
(167,81,l),
(167,621,l),
(244,642,l),
(244,700,l),
(35,700,l),
(35,642,l),
(112,619,l),
(112,79,l),
(35,58,l),
(35,0,l)
);
},
{
closed = 1;
nodes = (
(283,167,ls),
(373,167,o),
(471,213,o),
(471,360,cs),
(471,500,o),
(388,547,o),
(297,547,cs),
(148,547,l),
(148,462,l),
(310,462,ls),
(380,462,o),
(413,428,o),
(413,358,cs),
(413,295,o),
(387,247,o),
(294,247,cs),
(148,247,l),
(148,167,l)
);
}
);
userData = {
com.hugojourdan.ColorFlow = {
"0" = 0;
"1" = 0;
"10" = 0;
"11" = 0;
"2" = 0;
"3" = 0;
"4" = 0;
"5" = 0;
"6" = 0;
"7" = 0;
"8" = 0;
"9" = 0;
};
};
width = 511;
},
{
background = {
shapes = (
{
closed = 1;
nodes = (
(276,0,l),
(276,108,l),
(208,139,l),
(208,561,l),
(276,592,l),
(276,700,l),
(30,700,l),
(30,592,l),
(98,561,l),
(98,139,l),
(30,108,l),
(30,0,l)
);
},
{
closed = 1;
nodes = (
(294,189,ls),
(405,189,o),
(492,226,o),
(492,363,cs),
(492,487,o),
(420,534,o),
(308,534,cs),
(193,534,l),
(192,389,l),
(311,389,ls),
(358,389,o),
(379,377,o),
(379,338,cs),
(379,302,o),
(362,284,o),
(305,284,cs),
(192,284,l),
(192,189,l)
);
}
);
};
layerId = "3CA830F5-1E41-4F35-86DC-34C8110F5ED1";
shapes = (
{
closed = 1;
nodes = (
(276,0,l),
(276,108,l),
(208,139,l),
(208,561,l),
(276,592,l),
(276,700,l),
(30,700,l),
(30,592,l),
(98,561,l),
(98,139,l),
(30,108,l),
(30,0,l)
);
},
{
closed = 1;
nodes = (
(294,189,ls),
(405,189,o),
(492,226,o),
(492,363,cs),
(492,487,o),
(420,534,o),
(308,534,cs),
(193,534,l),
(192,404,l),
(321,404,ls),
(361,404,o),
(379,394,o),
(379,363,cs),
(379,334,o),
(364,319,o),
(315,319,cs),
(192,319,l),
(192,189,l)
);
}
);
userData = {
com.hugojourdan.ColorFlow = {
"0" = 0;
"1" = 0;
"10" = 0;
"11" = 0;
"2" = 0;
"3" = 0;
"4" = 0;
"5" = 0;
"6" = 0;
"7" = 0;
"8" = 0;
"9" = 0;
};
};
width = 517;
}
);
metricLeft = H;
unicode = 222;
},
{
glyphname = Q;
kernLeft = KO_O;
kernRight = KO_D;
lastChange = "2025-01-02 17:37:14 +0000";
layers = (
{
background = {
shapes = (
{
closed = 1;
nodes = (
(428,10,l),
(470,-101,o),
(516,-129,o),
(646,-129,c),
(646,-101,l),
(528,-101,o),
(487,-93,o),
(443,20,c)
);
},
{
ref = O;
}
);
};
layerId = master01;
shapes = (
{
ref = O;
},
{
pos = (393,0);
ref = _tail.Q;
}
);
userData = {
com.hugojourdan.ColorFlow = {
"0" = 0;
"1" = 0;
"10" = 0;
"11" = 0;
"2" = 0;
"3" = 0;
"4" = 0;
"5" = 0;
"6" = 0;
"7" = 0;
"8" = 0;
"9" = 0;
};
};
width = 740;
},
{
background = {
shapes = (
{
closed = 1;
nodes = (
(431,0,l),
(467,-111,o),
(561,-149,o),
(676,-149,c),
(676,-61,l),
(553,-61,o),
(521,-51,o),
(484,22,c)
);
},
{
ref = O;
}
);
};
layerId = "7F56E5C1-F146-4434-90E4-DA1B70285074";
shapes = (
{
ref = O;
},
{
pos = (386,0);
ref = _tail.Q;
}
);
userData = {
com.hugojourdan.ColorFlow = {
"0" = 0;
"1" = 0;
"10" = 0;
"11" = 0;
"2" = 0;
"3" = 0;
"4" = 0;
"5" = 0;
"6" = 0;
"7" = 0;
"8" = 0;
"9" = 0;
};
};
width = 744;
},
{
background = {
shapes = (
{
closed = 1;
nodes = (
(391,0,l),
(431,-148,o),
(512,-199,o),
(666,-199,c),
(666,-31,l),
(543,-31,o),
(511,-22,o),
(484,42,c)
);
},
{
ref = O;
}
);
};
layerId = "3CA830F5-1E41-4F35-86DC-34C8110F5ED1";
shapes = (
{
ref = O;
},
{
pos = (346,0);
ref = _tail.Q;
}
);
userData = {
com.hugojourdan.ColorFlow = {
"0" = 0;
"1" = 0;
"10" = 0;
"11" = 0;
"2" = 0;
"3" = 0;
"4" = 0;
"5" = 0;
"6" = 0;
"7" = 0;
"8" = 0;
"9" = 0;
};
};
width = 720;
},
{
associatedMasterId = master01;
background = {
shapes = (
{
closed = 1;
nodes = (
(719,-123,l),
(517,-123,o),
(544,8,o),
(360,8,c),
(360,-5,l),
(519,-5,o),
(509,-149,o),
(705,-149,c)
);
}
);
};
layerId = "1B5DCDDA-B89A-427C-9846-1FEF7D31F5A6";
name = "22 May 23 03.00";
shapes = (
{
closed = 1;
nodes = (
(428,10,l),
(470,-101,o),
(516,-129,o),
(646,-129,c),
(646,-101,l),
(528,-101,o),
(487,-93,o),
(443,20,c)
);
},
{
ref = O;
}
);
width = 720;
},
{
associatedMasterId = "7F56E5C1-F146-4434-90E4-DA1B70285074";
background = {
shapes = (
{
closed = 1;
nodes = (
(730,-63,l),
(558,-63,o),
(591,14,o),
(375,14,c),
(375,-10,l),
(543,-10,o),
(542,-149,o),
(730,-149,c)
);
},
{
ref = O;
}
);
};
layerId = "A032C3EE-F56C-4DB2-9207-3ADFAFBDBEFB";
name = "22 May 23 03.00";
shapes = (
{
closed = 1;
nodes = (
(431,0,l),
(467,-111,o),
(561,-149,o),
(676,-149,c),
(676,-61,l),
(553,-61,o),
(521,-51,o),
(484,22,c)
);
},
{
ref = O;
}
);
vertWidth = 750;
width = 749;
},
{
associatedMasterId = "3CA830F5-1E41-4F35-86DC-34C8110F5ED1";
background = {
shapes = (
{
closed = 1;
nodes = (
(765,-23,l),
(515,-23,o),
(534,104,o),
(380,104,c),
(380,-10,l),
(485,-10,o),
(501,-199,o),
(685,-199,c)
);
}
);
};
layerId = "09B26D23-7543-4EB5-996A-DD98E676189B";
name = "22 May 23 03.00";
shapes = (
{
closed = 1;
nodes = (
(391,0,l),
(431,-148,o),
(512,-199,o),
(666,-199,c),
(666,-31,l),
(543,-31,o),
(511,-22,o),
(484,42,c)
);
},
{
ref = O;
}
);
width = 720;
}
);
metricLeft = O;
unicode = 81;
},
{
glyphname = R;
kernLeft = KO_H;
kernRight = KO_R;
lastChange = "2025-01-06 07:55:01 +0000";
layers = (
{
anchors = (
{
name = bottom;
pos = (278,0);
},
{
name = top;
pos = (278,700);
}
);
background = {
shapes = (
{
closed = 1;
nodes = (
(192,0,l),
(192,16,l),
(126,44,l),
(126,683,l),
(118,675,l),
(270,675,ls),
(385,675,o),
(446,619,o),
(446,503,cs),
(446,397,o),
(393,320,o),
(256,320,cs),
(121,320,l),
(121,300,l),
(256,300,ls),
(349,300,o),
(465,340,o),
(465,503,cs),
(465,641,o),
(379,700,o),
(270,700,cs),
(44,700,l),
(44,684,l),
(110,656,l),
(110,44,l),
(44,16,l),
(44,0,l)
);
},
{
closed = 1;
nodes = (
(532,0,l),
(532,16,l),
(466,34,l),
(290,313,l),
(276,305,l),
(451,26,l),
(451,0,l,{
name = "🧨";
})
);
}
);
};
layerId = master01;
shapes = (
{
closed = 1;
nodes = (
(192,0,l),
(192,16,l),
(126,44,l),
(126,683,l),
(118,675,l),
(270,675,ls),
(385,675,o),
(446,619,o),
(446,503,cs),
(446,397,o),
(393,320,o),
(256,320,cs),
(121,320,l),
(121,300,l),
(256,300,ls),
(349,300,o),
(465,340,o),
(465,503,cs),
(465,641,o),
(379,700,o),
(270,700,cs),
(44,700,l),
(44,684,l),
(110,656,l),
(110,44,l),
(44,16,l),
(44,0,l)
);
},
{
closed = 1;
nodes = (
(532,0,l),
(532,16,l),
(460,44,l),
(290,313,l),
(276,305,l),
(445,36,l),
(445,0,l,{
name = "🧨";
})
);
}
);
userData = {
com.hugojourdan.ColorFlow = {
"0" = 0;
"1" = 0;
"10" = 0;
"11" = 0;
"2" = 0;
"3" = 0;
"4" = 0;
"5" = 0;
"6" = 0;
"7" = 0;
"8" = 0;
"9" = 0;
};
};
vertWidth = 750;
width = 552;
},
{
anchors = (
{
name = bottom;
pos = (284,0);
},
{
name = top;
pos = (284,700);
}
);
background = {
shapes = (
{
closed = 1;
nodes = (
(268,295,l),
(271,306,l),
(369,307,o),
(476,351,o),
(476,502,cs),
(476,645,o),
(384,700,o),
(282,700,cs),
(114,700,l),
(114,615,l),
(295,615,ls),
(380,615,o),
(418,575,o),
(418,494,cs),
(418,411,o),
(378,350,o),
(279,350,cs),
(151,350,l),
(151,295,l)
);
},
{
closed = 1;
nodes = (
(572,75,l),
(403,105,o),
(424,325,o),
(247,325,c),
(247,295,l),
(370,295,o),
(360,16,o),
(535,-10,c)
);
},
{
closed = 1;
nodes = (
(112,700,l),
(112,0,l),
(167,0,l),
(167,700,l)
);
}
);
};
layerId = "7F56E5C1-F146-4434-90E4-DA1B70285074";
shapes = (
{
closed = 1;
nodes = (
(244,0,l),
(244,58,l),
(167,81,l),
(167,640,l),
(142,615,l),
(310,615,ls),
(395,615,o),
(433,575,o),
(433,489,cs),
(433,411,o),
(402,350,o),
(294,350,cs),
(153,350,l),
(153,295,l),
(283,295,ls),
(382,295,o),
(491,340,o),
(491,499,cs),
(491,645,o),
(399,700,o),
(297,700,cs),
(35,700,l),
(35,642,l),
(112,619,l),
(112,79,l),
(35,58,l),
(35,0,l)
);
},
{
closed = 1;
nodes = (
(539,0,l),
(539,58,l),
(462,81,l),
(328,324,l),
(274,298,l,{
name = "🧨";
}),
(404,66,l),
(404,0,l,{
name = "🧨";
})
);
}
);
userData = {
com.hugojourdan.ColorFlow = {
"0" = 0;
"1" = 0;
"10" = 0;
"11" = 0;
"2" = 0;
"3" = 0;
"4" = 0;
"5" = 0;
"6" = 0;
"7" = 0;
"8" = 0;
"9" = 0;
};
};
vertWidth = 750;
width = 557;
},
{
anchors = (
{
name = bottom;
pos = (288,0);
},
{
name = top;
pos = (288,700);
}
);
background = {
shapes = (
{
closed = 1;
nodes = (
(276,0,l),
(276,138,l),
(208,169,l),
(208,560,l),
(183,535,l),
(301,535,ls),
(376,535,o),
(409,517,o),
(409,452,cs),
(409,394,o),
(381,360,o),
(285,360,cs),
(192,360,l),
(192,265,l),
(274,265,ls),
(412,265,o),
(522,312,o),
(522,484,cs),
(522,641,o),
(431,700,o),
(288,700,cs),
(30,700,l),
(30,562,l),
(98,531,l),
(98,169,l),
(30,138,l),
(30,0,l)
);
},
{
closed = 1;
nodes = (
(565,0,l),
(565,138,l),
(463,169,l),
(375,319,l),
(280,295,l),
(434,0,l,{
name = "🧨";
})
);
}
);
};
layerId = "3CA830F5-1E41-4F35-86DC-34C8110F5ED1";
shapes = (
{
closed = 1;
nodes = (
(276,0,l),
(276,138,l),
(208,169,l),
(208,560,l),
(183,535,l),
(301,535,ls),
(376,535,o),
(409,520,o),
(409,464,cs),
(409,417,o),
(386,390,o),
(305,390,cs),
(192,390,l),
(192,245,l),
(274,245,ls),
(412,245,o),
(522,294,o),
(522,474,cs),
(522,638,o),
(431,700,o),
(288,700,cs),
(30,700,l),
(30,562,l),
(98,531,l),
(98,169,l),
(30,138,l),
(30,0,l)
);
},
{
closed = 1;
nodes = (
(565,0,l),
(565,138,l),
(463,169,l),
(375,319,l),
(280,295,l),
(364,135,l),
(364,0,l,{
name = "🧨";
})
);
}
);
userData = {
com.hugojourdan.ColorFlow = {
"0" = 0;
"1" = 0;
"10" = 0;
"11" = 0;
"2" = 0;
"3" = 0;
"4" = 0;
"5" = 0;
"6" = 0;
"7" = 0;
"8" = 0;
"9" = 0;
};
};
vertWidth = 750;
width = 576;
},
{
anchors = (
{
name = bottom;
pos = (289,0);
},
{
name = left;
pos = (112,621);
},
{
name = right;
pos = (167,81);
},
{
name = top;
pos = (259,700);
}
);
associatedMasterId = "7F56E5C1-F146-4434-90E4-DA1B70285074";
background = {
shapes = (
{
closed = 1;
nodes = (
(268,295,l),
(271,306,l),
(369,307,o),
(476,351,o),
(476,502,cs),
(476,645,o),
(384,700,o),
(282,700,cs),
(114,700,l),
(114,615,l),
(295,615,ls),
(380,615,o),
(418,575,o),
(418,494,cs),
(418,411,o),
(378,350,o),
(279,350,cs),
(151,350,l),
(151,295,l)
);
},
{
closed = 1;
nodes = (
(572,75,l),
(403,105,o),
(424,325,o),
(247,325,c),
(247,295,l),
(370,295,o),
(360,16,o),
(535,-10,c)
);
},
{
closed = 1;
nodes = (
(112,700,l),
(112,0,l),
(167,0,l),
(167,700,l)
);
}
);
};
layerId = "FDAE7F1B-7416-4CFD-B6DD-4D9A43674C8C";
name = "29 Jan 23 16.57";
shapes = (
{
closed = 1;
nodes = (
(268,295,l),
(271,306,l),
(369,307,o),
(476,351,o),
(476,502,cs),
(476,645,o),
(384,700,o),
(282,700,cs),
(114,700,l),
(114,615,l),
(295,615,ls),
(380,615,o),
(418,575,o),
(418,494,cs),
(418,411,o),
(378,350,o),
(279,350,cs),
(151,350,l),
(151,295,l)
);
},
{
closed = 1;
nodes = (
(572,75,l),
(403,105,o),
(424,325,o),
(247,325,c),
(247,295,l),
(370,295,o),
(360,16,o),
(535,-10,c)
);
},
{
closed = 1;
nodes = (
(112,700,l),
(112,0,l),
(167,0,l),
(167,700,l)
);
},
{
closed = 0;
nodes = (
(142,700,l),
(35,700,l),
(35,642,l),
(112,621,l)
);
},
{
closed = 0;
nodes = (
(112,79,l),
(35,58,l),
(35,0,l),
(142,0,l)
);
},
{
closed = 0;
nodes = (
(137,0,l),
(244,0,l),
(244,58,l),
(167,81,l)
);
},
{
ref = P;
}
);
vertWidth = 750;
width = 577;
}
);
metricLeft = H;
unicode = 82;
userData = {
KernOnName = R;
};
},
{
glyphname = S;
kernLeft = KO_S;
kernRight = KO_S;
lastChange = "2025-01-06 07:55:01 +0000";
layers = (
{
anchors = (
{
name = bottom;
pos = (261,0);
},
{
name = cedilla;
pos = (251,0);
},
{
name = top;
pos = (261,700);
}
);
background = {
shapes = (
{
closed = 1;
nodes = (
(390,-5,o),
(472,63,o),
(472,183,cs),
(472,300,o),
(397,343,o),
(316,366,cs),
(193,401,ls),
(130,419,o),
(86,457,o),
(86,533,cs),
(86,636,o),
(165,677,o),
(273,677,cs),
(346,677,o),
(397,656,o),
(421,639,c),
(394,667,l),
(422,550,l),
(440,552,l),
(431,660,l),
(397,692,o),
(332,705,o),
(272,705,cs),
(131,705,o),
(68,636,o),
(68,532,cs),
(68,442,o),
(114,394,o),
(203,369,cs),
(321,336,ls),
(381,319,o),
(454,283,o),
(454,183,cs),
(454,61,o),
(347,23,o),
(243,23,cs),
(179,23,o),
(127,38,o),
(71,69,c),
(89,35,l),
(64,186,l),
(45,184,l),
(54,51,l),
(101,14,o),
(166,-5,o),
(243,-5,cs)
);
}
);
};
layerId = master01;
shapes = (
{
closed = 1;
nodes = (
(390,-5,o),
(472,63,o),
(472,183,cs),
(472,300,o),
(397,343,o),
(316,366,cs),
(203,398,ls),
(130,419,o),
(86,457,o),
(86,533,cs),
(86,636,o),
(165,677,o),
(273,677,cs),
(346,677,o),
(397,656,o),
(421,639,c),
(384,668,l),
(422,550,l),
(440,552,l),
(431,669,l),
(387,694,o),
(332,705,o),
(272,705,cs),
(131,705,o),
(68,636,o),
(68,532,cs),
(68,442,o),
(114,394,o),
(203,369,cs),
(321,336,ls),
(381,319,o),
(454,283,o),
(454,183,cs),
(454,61,o),
(346,23,o),
(245,23,cs),
(180,23,o),
(123,39,o),
(71,67,c),
(99,35,l),
(64,186,l),
(45,184,l),
(54,44,l),
(101,14,o),
(166,-5,o),
(243,-5,cs)
);
}
);
userData = {
com.hugojourdan.ColorFlow = {
"0" = 0;
"1" = 0;
"10" = 0;
"11" = 0;
"2" = 0;
"3" = 0;
"4" = 0;
"5" = 0;
"6" = 0;
"7" = 0;
"8" = 0;
"9" = 0;
};
};
vertWidth = 750;
width = 522;
},
{
anchors = (
{
name = bottom;
pos = (261,0);
},
{
name = cedilla;
pos = (251,0);
},
{
name = top;
pos = (261,700);
}
);
background = {
shapes = (
{
closed = 1;
nodes = (
(386,-10,o),
(480,64,o),
(480,197,cs),
(480,315,o),
(407,358,o),
(326,381,cs),
(196,418,ls),
(132,436,o),
(107,471,o),
(107,519,cs),
(107,593,o),
(167,622,o),
(264,622,cs),
(314,622,o),
(353,614,o),
(379,602,c),
(359,623,l),
(397,530,l),
(445,537,l),
(436,670,l),
(398,695,o),
(333,710,o),
(268,710,cs),
(118,710,o),
(49,632,o),
(49,521,cs),
(49,427,o),
(98,379,o),
(198,350,cs),
(323,314,ls),
(379,298,o),
(422,266,o),
(422,197,cs),
(422,101,o),
(338,78,o),
(253,78,cs),
(195,78,o),
(143,88,o),
(96,123,c),
(122,94,l),
(88,206,l),
(40,199,l),
(49,51,l),
(95,12,o),
(169,-10,o),
(246,-10,cs)
);
}
);
};
layerId = "7F56E5C1-F146-4434-90E4-DA1B70285074";
shapes = (
{
closed = 1;
nodes = (
(386,-10,o),
(480,63,o),
(480,200,cs),
(480,321,o),
(406,373,o),
(326,391,cs),
(206,418,ls),
(131,435,o),
(107,471,o),
(107,519,cs),
(107,595,o),
(169,622,o),
(263,622,cs),
(314,622,o),
(353,614,o),
(379,602,c),
(359,623,l),
(397,530,l),
(445,537,l),
(436,670,l),
(398,695,o),
(333,710,o),
(267,710,cs),
(119,710,o),
(49,634,o),
(49,516,cs),
(49,417,o),
(98,356,o),
(198,333,cs),
(323,304,ls),
(380,291,o),
(422,261,o),
(422,195,cs),
(422,101,o),
(337,78,o),
(252,78,cs),
(196,78,o),
(143,88,o),
(96,123,c),
(122,94,l),
(88,206,l),
(40,199,l),
(49,51,l),
(95,12,o),
(169,-10,o),
(246,-10,cs)
);
}
);
userData = {
com.hugojourdan.ColorFlow = {
"0" = 0;
"1" = 0;
"10" = 0;
"11" = 0;
"2" = 0;
"3" = 0;
"4" = 0;
"5" = 0;
"6" = 0;
"7" = 0;
"8" = 0;
"9" = 0;
};
};
vertWidth = 750;
width = 522;
},
{
anchors = (
{
name = bottom;
pos = (289,0);
},
{
name = cedilla;
pos = (287,0);
},
{
name = top;
pos = (289,700);
}
);
background = {
shapes = (
{
closed = 1;
nodes = (
(441,-10,o),
(534,82,o),
(534,217,cs),
(534,328,o),
(471,395,o),
(366,420,cs),
(230,452,ls),
(185,463,o),
(167,477,o),
(167,502,cs),
(167,541,o),
(215,552,o),
(281,552,cs),
(353,552,o),
(382,539,o),
(408,524,c),
(369,571,l),
(406,480,l),
(495,497,l),
(485,665,l),
(438,696,o),
(371,710,o),
(304,710,cs),
(127,710,o),
(53,614,o),
(53,494,cs),
(53,384,o),
(115,320,o),
(234,292,cs),
(354,264,ls),
(397,254,o),
(420,233,o),
(420,205,cs),
(420,156,o),
(350,148,o),
(286,148,cs),
(207,148,o),
(154,160,o),
(96,202,c),
(182,84,l),
(130,233,l),
(41,216,l),
(57,44,l),
(107,11,o),
(186,-10,o),
(269,-10,cs)
);
}
);
};
layerId = "3CA830F5-1E41-4F35-86DC-34C8110F5ED1";
shapes = (
{
closed = 1;
nodes = (
(441,-10,o),
(534,87,o),
(534,223,cs),
(534,333,o),
(473,403,o),
(366,420,cs),
(230,442,ls),
(183,450,o),
(167,469,o),
(167,495,cs),
(167,539,o),
(215,552,o),
(284,552,cs),
(352,552,o),
(382,539,o),
(408,524,c),
(369,571,l),
(406,480,l),
(495,497,l),
(485,665,l),
(438,696,o),
(371,710,o),
(304,710,cs),
(127,710,o),
(53,610,o),
(53,486,cs),
(53,375,o),
(113,300,o),
(234,282,cs),
(354,264,ls),
(398,257,o),
(420,237,o),
(420,210,cs),
(420,168,o),
(369,148,o),
(281,148,cs),
(207,148,o),
(150,162,o),
(96,202,c),
(182,84,l),
(130,233,l),
(41,216,l),
(57,44,l),
(107,11,o),
(187,-10,o),
(268,-10,cs)
);
}
);
userData = {
com.hugojourdan.ColorFlow = {
"0" = 0;
"1" = 0;
"10" = 0;
"11" = 0;
"2" = 0;
"3" = 0;
"4" = 0;
"5" = 0;
"6" = 0;
"7" = 0;
"8" = 0;
"9" = 0;
};
};
vertWidth = 750;
width = 577;
},
{
anchors = (
{
name = bottom;
pos = (261,0);
},
{
name = cedilla;
pos = (251,0);
},
{
name = top;
pos = (261,700);
}
);
associatedMasterId = "7F56E5C1-F146-4434-90E4-DA1B70285074";
layerId = "5F365042-876E-4A9E-94AE-AA936F50083B";
name = "29 Jan 23 16.52";
shapes = (
{
closed = 1;
nodes = (
(386,-10,o),
(480,63,o),
(480,201,cs),
(480,323,o),
(407,373,o),
(326,396,cs),
(196,433,ls),
(139,449,o),
(117,477,o),
(117,521,cs),
(117,593,o),
(174,622,o),
(266,622,cs),
(326,622,o),
(372,610,o),
(396,592,c),
(436,670,l),
(398,695,o),
(333,710,o),
(268,710,cs),
(125,710,o),
(59,633,o),
(59,517,cs),
(59,421,o),
(104,362,o),
(198,335,cs),
(323,299,ls),
(380,283,o),
(422,257,o),
(422,194,cs),
(422,101,o),
(336,78,o),
(252,78,cs),
(191,78,o),
(135,90,o),
(85,132,c),
(49,51,l),
(95,12,o),
(169,-10,o),
(246,-10,cs)
);
},
{
closed = 1;
nodes = (
(125,84,l),
(88,206,l),
(40,199,l),
(49,51,l)
);
},
{
closed = 1;
nodes = (
(445,537,l),
(436,670,l),
(362,614,l),
(397,530,l)
);
}
);
vertWidth = 750;
width = 522;
}
);
unicode = 83;
userData = {
KernOnName = S;
};
},
{
glyphname = Germandbls;
kernLeft = KO_H;
lastChange = "2025-01-05 09:40:56 +0000";
layers = (
{
background = {
shapes = (
{
closed = 1;
nodes = (
(116,0,l),
(116,440,ls),
(116,630,o),
(191,677,o),
(291,677,cs),
(355,677,o),
(411,658,o),
(443,617,c),
(454,631,l),
(420,680,o),
(363,705,o),
(293,705,cs),
(185,705,o),
(100,646,o),
(100,440,cs),
(100,0,l)
);
},
{
closed = 1;
nodes = (
(274,33,l),
(249,164,l),
(230,162,l),
(239,49,l)
);
},
{
closed = 1;
nodes = (
(480,-5,o),
(535,59,o),
(535,151,cs),
(535,257,o),
(464,293,o),
(408,323,cs),
(334,363,o),
(305,399,o),
(305,469,cs),
(305,576,o),
(371,611,o),
(443,617,c),
(444,623,l),
(437,630,l),
(367,629,o),
(287,586,o),
(287,469,cs),
(287,383,o),
(329,346,o),
(396,309,cs),
(462,272,o),
(517,244,o),
(517,151,cs),
(517,55,o),
(455,23,o),
(382,23,cs),
(335,23,o),
(292,37,o),
(255,73,c),
(239,49,l),
(277,18,o),
(322,-5,o),
(382,-5,cs)
);
}
);
};
layerId = master01;
shapes = (
{
closed = 1;
nodes = (
(495,-5,o),
(555,77,o),
(555,197,cs),
(555,339,o),
(465,403,o),
(303,413,c),
(305,409,l),
(536,685,l),
(536,700,l),
(44,700,l),
(44,684,l),
(110,656,l),
(110,44,l),
(44,16,l),
(44,0,l),
(126,0,l),
(126,684,l),
(120,675,l),
(513,675,l),
(513,681,l),
(286,409,l),
(286,391,l),
(462,381,o),
(537,322,o),
(537,195,cs),
(537,67,o),
(466,23,o),
(376,23,cs),
(337,23,o),
(295,31,o),
(258,53,c),
(280,30,l),
(251,126,l),
(232,124,l),
(239,31,l),
(276,6,o),
(324,-5,o),
(375,-5,cs)
);
}
);
userData = {
com.hugojourdan.ColorFlow = {
"0" = 0;
"1" = 0;
"10" = 0;
"11" = 0;
"2" = 0;
"3" = 0;
"4" = 0;
"5" = 0;
"6" = 0;
"7" = 0;
"8" = 0;
"9" = 0;
};
};
width = 608;
},
{
background = {
shapes = (
{
closed = 1;
nodes = (
(167,0,l),
(167,440,ls),
(167,587,o),
(227,622,o),
(322,622,cs),
(392,622,o),
(436,605,o),
(466,567,c),
(491,616,l),
(455,675,o),
(409,710,o),
(322,710,cs),
(199,710,o),
(112,640,o),
(112,440,cs),
(112,0,l)
);
},
{
closed = 1;
nodes = (
(345,74,l),
(308,176,l),
(260,169,l),
(269,41,l)
);
},
{
closed = 1;
nodes = (
(531,-10,o),
(587,65,o),
(587,162,cs),
(587,273,o),
(517,314,o),
(444,346,cs),
(377,375,o),
(357,404,o),
(357,453,cs),
(357,528,o),
(404,549,o),
(466,567,c),
(455,591,l),
(436,600,l),
(363,589,o),
(299,547,o),
(299,446,cs),
(299,358,o),
(348,326,o),
(419,294,cs),
(489,262,o),
(529,239,o),
(529,171,cs),
(529,102,o),
(486,78,o),
(425,78,cs),
(384,78,o),
(339,89,o),
(305,122,c),
(269,41,l),
(308,12,o),
(359,-10,o),
(420,-10,cs)
);
}
);
};
layerId = "7F56E5C1-F146-4434-90E4-DA1B70285074";
shapes = (
{
closed = 1;
nodes = (
(525,-10,o),
(587,77,o),
(587,192,cs),
(587,323,o),
(502,398,o),
(364,414,c),
(353,387,l),
(551,635,l),
(551,700,l),
(35,700,l),
(35,642,l),
(112,619,l),
(112,79,l),
(35,58,l),
(35,0,l),
(167,0,l),
(167,645,l),
(146,615,l),
(491,615,l),
(506,658,l),
(309,411,l),
(309,334,l),
(480,322,o),
(529,283,o),
(529,199,cs),
(529,115,o),
(481,78,o),
(409,78,cs),
(382,78,o),
(349,84,o),
(318,101,c),
(343,69,l),
(308,176,l),
(260,169,l),
(269,26,l),
(305,3,o),
(354,-10,o),
(402,-10,cs)
);
}
);
userData = {
com.hugojourdan.ColorFlow = {
"0" = 0;
"1" = 0;
"10" = 0;
"11" = 0;
"2" = 0;
"3" = 0;
"4" = 0;
"5" = 0;
"6" = 0;
"7" = 0;
"8" = 0;
"9" = 0;
};
};
width = 631;
},
{
background = {
shapes = (
{
closed = 1;
nodes = (
(553,-10,o),
(626,73,o),
(626,199,cs),
(626,321,o),
(557,384,o),
(420,402,c),
(434,374,l),
(595,575,l),
(595,700,l),
(132,700,l),
(30,700,l),
(30,562,l),
(98,531,l),
(98,169,l),
(30,138,l),
(30,0,l),
(132,0,l),
(208,0,l),
(208,573,l),
(180,535,l),
(481,535,l),
(481,594,l),
(322,392,l),
(322,315,l),
(465,310,o),
(513,276,o),
(513,220,cs),
(513,169,o),
(473,148,o),
(426,148,cs),
(403,148,o),
(374,153,o),
(352,166,c),
(379,136,l),
(349,216,l),
(261,199,l),
(270,28,l),
(309,6,o),
(362,-10,o),
(418,-10,cs)
);
}
);
};
layerId = "3CA830F5-1E41-4F35-86DC-34C8110F5ED1";
shapes = (
{
closed = 1;
nodes = (
(553,-10,o),
(626,78,o),
(626,211,cs),
(626,344,o),
(557,412,o),
(420,432,c),
(424,374,l),
(595,575,l),
(595,700,l),
(30,700,l),
(30,562,l),
(98,531,l),
(98,169,l),
(30,138,l),
(30,0,l),
(208,0,l),
(208,573,l),
(180,535,l),
(481,535,l),
(491,594,l),
(322,392,l),
(322,295,l),
(465,291,o),
(513,261,o),
(513,212,cs),
(513,167,o),
(473,148,o),
(426,148,cs),
(403,148,o),
(374,153,o),
(352,166,c),
(379,136,l),
(349,216,l),
(261,199,l),
(270,28,l),
(309,6,o),
(362,-10,o),
(418,-10,cs)
);
}
);
userData = {
com.hugojourdan.ColorFlow = {
"0" = 0;
"1" = 0;
"10" = 0;
"11" = 0;
"2" = 0;
"3" = 0;
"4" = 0;
"5" = 0;
"6" = 0;
"7" = 0;
"8" = 0;
"9" = 0;
};
};
width = 663;
},
{
anchors = (
{
name = left;
pos = (102,79);
}
);
associatedMasterId = "7F56E5C1-F146-4434-90E4-DA1B70285074";
layerId = "9E927096-7934-4D34-A64D-F183B64ACC15";
name = "Apr 18 19, 13:39";
shapes = (
{
closed = 1;
nodes = (
(157,0,l),
(157,440,ls),
(157,587,o),
(219,622,o),
(314,622,cs),
(379,622,o),
(417,605,o),
(445,567,c),
(481,616,l),
(445,672,o),
(396,710,o),
(309,710,cs),
(191,710,o),
(102,640,o),
(102,440,cs),
(102,0,l)
);
},
{
closed = 1;
nodes = (
(335,74,l),
(298,176,l),
(250,169,l),
(259,41,l)
);
},
{
closed = 1;
nodes = (
(515,-10,o),
(577,61,o),
(577,171,cs),
(577,284,o),
(512,324,o),
(439,361,cs),
(384,389,o),
(347,409,o),
(347,469,cs),
(347,529,o),
(385,560,o),
(445,567,c),
(445,591,l),
(418,600,l),
(349,589,o),
(289,547,o),
(289,442,cs),
(289,346,o),
(338,310,o),
(409,274,cs),
(468,243,o),
(519,222,o),
(519,160,cs),
(519,102,o),
(476,78,o),
(415,78,cs),
(374,78,o),
(329,89,o),
(295,122,c),
(259,41,l),
(298,12,o),
(343,-10,o),
(404,-10,cs)
);
},
{
closed = 0;
nodes = (
(102,79,l),
(25,58,l),
(25,0,l),
(132,0,l)
);
}
);
width = 602;
}
);
metricLeft = H;
unicode = 7838;
},
{
glyphname = T;
kernLeft = KO_T;
kernRight = KO_T;
lastChange = "2025-01-06 07:55:01 +0000";
layers = (
{
anchors = (
{
name = bottom;
pos = (282,0);
},
{
name = cedilla;
pos = (282,0);
},
{
name = center;
pos = (282,350);
},
{
name = top;
pos = (282,700);
}
);
layerId = master01;
shapes = (
{
closed = 1;
nodes = (
(79,683,l),
(60,675,l),
(506,675,l),
(486,685,l),
(530,564,l),
(546,567,l),
(531,700,l),
(35,700,l),
(20,565,l),
(36,564,l)
);
},
{
closed = 1;
nodes = (
(354,0,l),
(354,16,l),
(288,44,l),
(288,679,l),
(272,679,l),
(272,44,l),
(206,16,l),
(206,0,l)
);
}
);
userData = {
com.hugojourdan.ColorFlow = {
"0" = 0;
"1" = 0;
"10" = 0;
"11" = 0;
"2" = 0;
"3" = 0;
"4" = 0;
"5" = 0;
"6" = 0;
"7" = 0;
"8" = 0;
"9" = 0;
};
};
vertWidth = 750;
width = 566;
},
{
anchors = (
{
name = bottom;
pos = (278,0);
},
{
name = cedilla;
pos = (278,0);
},
{
name = center;
pos = (278,350);
},
{
name = top;
pos = (278,700);
}
);
layerId = "7F56E5C1-F146-4434-90E4-DA1B70285074";
shapes = (
{
closed = 1;
nodes = (
(92,638,l),
(58,615,l),
(498,615,l),
(464,638,l),
(499,510,l),
(541,517,l),
(526,700,l),
(30,700,l),
(15,517,l),
(57,510,l)
);
},
{
closed = 1;
nodes = (
(380,0,l),
(380,58,l),
(303,81,l),
(303,629,l),
(248,629,l),
(248,79,l),
(171,58,l),
(171,0,l)
);
}
);
userData = {
com.hugojourdan.ColorFlow = {
"0" = 0;
"1" = 0;
"10" = 0;
"11" = 0;
"2" = 0;
"3" = 0;
"4" = 0;
"5" = 0;
"6" = 0;
"7" = 0;
"8" = 0;
"9" = 0;
};
};
vertWidth = 750;
width = 556;
},
{
anchors = (
{
name = bottom;
pos = (301,0);
},
{
name = cedilla;
pos = (301,0);
},
{
name = center;
pos = (301,350);
},
{
name = top;
pos = (301,700);
}
);
layerId = "3CA830F5-1E41-4F35-86DC-34C8110F5ED1";
shapes = (
{
closed = 1;
nodes = (
(139,554,l),
(88,535,l),
(513,535,l),
(462,554,l),
(497,446,l),
(586,460,l),
(571,700,l),
(30,700,l),
(15,460,l),
(104,446,l)
);
},
{
closed = 1;
nodes = (
(424,0,l),
(424,138,l),
(356,169,l),
(356,551,l),
(246,551,l),
(246,169,l),
(178,138,l),
(178,0,l)
);
}
);
userData = {
com.hugojourdan.ColorFlow = {
"0" = 0;
"1" = 0;
"10" = 0;
"11" = 0;
"2" = 0;
"3" = 0;
"4" = 0;
"5" = 0;
"6" = 0;
"7" = 0;
"8" = 0;
"9" = 0;
};
};
vertWidth = 750;
width = 601;
}
);
metricRight = "=|";
unicode = 84;
userData = {
KernOnName = T;
};
},
{
glyphname = U;
kernLeft = KO_U;
kernRight = KO_U;
lastChange = "2025-01-06 07:55:01 +0000";
layers = (
{
anchors = (
{
name = bottom;
pos = (317,0);
},
{
name = ogonek;
pos = (385,0);
},
{
name = top;
pos = (317,700);
},
{
name = topright;
pos = (614,700);
}
);
layerId = master01;
shapes = (
{
closed = 1;
nodes = (
(454,-5,o),
(538,59,o),
(538,260,cs),
(538,656,l),
(604,684,l),
(604,700,l),
(456,700,l),
(456,684,l),
(522,656,l),
(522,260,ls),
(522,69,o),
(443,23,o),
(315,23,cs),
(187,23,o),
(112,69,o),
(112,260,cs),
(112,656,l),
(178,684,l),
(178,700,l),
(30,700,l),
(30,684,l),
(96,656,l),
(96,260,ls),
(96,59,o),
(175,-5,o),
(315,-5,cs)
);
}
);
userData = {
com.hugojourdan.ColorFlow = {
"0" = 0;
"1" = 0;
"10" = 0;
"11" = 0;
"2" = 0;
"3" = 0;
"4" = 0;
"5" = 0;
"6" = 0;
"7" = 0;
"8" = 0;
"9" = 0;
};
com.typemytype.robofont.guides = (
{
isGlobal = 0;
magnetic = 5;
x = 0;
y = 280;
}
);
};
vertWidth = 750;
width = 634;
},
{
anchors = (
{
name = bottom;
pos = (337,0);
},
{
name = ogonek;
pos = (419,0);
},
{
name = top;
pos = (337,700);
},
{
name = topright;
pos = (653,700);
}
);
layerId = "7F56E5C1-F146-4434-90E4-DA1B70285074";
shapes = (
{
closed = 1;
nodes = (
(483,-10,o),
(571,60,o),
(571,260,cs),
(571,621,l),
(648,642,l),
(648,700,l),
(439,700,l),
(439,642,l),
(516,619,l),
(516,260,ls),
(516,113,o),
(452,78,o),
(336,78,cs),
(219,78,o),
(157,113,o),
(157,260,cs),
(157,621,l),
(234,642,l),
(234,700,l),
(25,700,l),
(25,642,l),
(102,619,l),
(102,260,ls),
(102,60,o),
(188,-10,o),
(336,-10,cs)
);
}
);
userData = {
com.hugojourdan.ColorFlow = {
"0" = 0;
"1" = 0;
"10" = 0;
"11" = 0;
"2" = 0;
"3" = 0;
"4" = 0;
"5" = 0;
"6" = 0;
"7" = 0;
"8" = 0;
"9" = 0;
};
};
vertWidth = 750;
width = 673;
},
{
anchors = (
{
name = bottom;
pos = (350,0);
},
{
name = ogonek;
pos = (442,0);
},
{
name = top;
pos = (350,700);
},
{
name = topright;
pos = (680,700);
}
);
layerId = "3CA830F5-1E41-4F35-86DC-34C8110F5ED1";
shapes = (
{
closed = 1;
nodes = (
(513,-10,o),
(612,68,o),
(612,290,cs),
(612,531,l),
(680,562,l),
(680,700,l),
(434,700,l),
(434,562,l),
(502,531,l),
(502,310,ls),
(502,199,o),
(446,158,o),
(348,158,cs),
(249,158,o),
(198,199,o),
(198,310,cs),
(198,531,l),
(266,562,l),
(266,700,l),
(20,700,l),
(20,562,l),
(88,531,l),
(88,290,ls),
(88,68,o),
(184,-10,o),
(348,-10,cs)
);
}
);
userData = {
com.hugojourdan.ColorFlow = {
"0" = 0;
"1" = 0;
"10" = 0;
"11" = 0;
"2" = 0;
"3" = 0;
"4" = 0;
"5" = 0;
"6" = 0;
"7" = 0;
"8" = 0;
"9" = 0;
};
};
vertWidth = 750;
width = 700;
}
);
metricRight = "=|";
unicode = 85;
userData = {
KernOnName = U;
};
},
{
glyphname = Uhorn;
kernLeft = KO_U;
kernRight = KO_Uhorn;
lastChange = "2025-01-05 08:41:39 +0000";
layers = (
{
anchors = (
{
name = bottom;
pos = (317,0);
},
{
name = top;
pos = (317,700);
}
);
background = {
shapes = (
{
ref = U;
},
{
pos = (558,205);
ref = horncomb;
}
);
};
layerId = master01;
shapes = (
{
closed = 1;
nodes = (
(454,-5,o),
(538,59,o),
(538,260,cs),
(538,690,l),
(532,685,l),
(614,685,o),
(674,717,o),
(662,837,c),
(638,842,l),
(630,840,l),
(644,718,o),
(597,700,o),
(538,700,cs,{
name = "🧨";
}),
(456,700,l),
(456,684,l),
(522,656,l),
(522,260,ls),
(522,69,o),
(443,23,o),
(315,23,cs),
(186,23,o),
(112,69,o),
(112,260,cs),
(112,656,l),
(178,684,l),
(178,700,l),
(30,700,l),
(30,684,l),
(96,656,l),
(96,260,ls),
(96,59,o),
(175,-5,o),
(315,-5,cs)
);
}
);
userData = {
com.hugojourdan.ColorFlow = {
"0" = 0;
"1" = 0;
"10" = 0;
"11" = 0;
"2" = 0;
"3" = 0;
"4" = 0;
"5" = 0;
"6" = 0;
"7" = 0;
"8" = 0;
"9" = 0;
};
};
width = 654;
},
{
anchors = (
{
name = bottom;
pos = (337,0);
},
{
name = top;
pos = (337,700);
}
);
background = {
shapes = (
{
ref = U;
},
{
pos = (598,200);
ref = horncomb;
}
);
};
layerId = "7F56E5C1-F146-4434-90E4-DA1B70285074";
shapes = (
{
closed = 1;
nodes = (
(483,-10,o),
(571,60,o),
(571,260,cs),
(571,680,l),
(551,664,l),
(677,664,o),
(722,715,o),
(722,820,c),
(677,847,l),
(641,837,l),
(646,744,o),
(630,700,o),
(548,700,cs,{
name = "🧨";
}),
(439,700,l),
(439,642,l),
(516,619,l),
(516,260,ls),
(516,113,o),
(452,78,o),
(336,78,cs),
(219,78,o),
(157,113,o),
(157,260,cs),
(157,621,l),
(234,642,l),
(234,700,l),
(25,700,l),
(25,642,l),
(102,619,l),
(102,260,ls),
(102,60,o),
(188,-10,o),
(336,-10,cs)
);
}
);
userData = {
com.hugojourdan.ColorFlow = {
"0" = 0;
"1" = 0;
"10" = 0;
"11" = 0;
"2" = 0;
"3" = 0;
"4" = 0;
"5" = 0;
"6" = 0;
"7" = 0;
"8" = 0;
"9" = 0;
};
};
width = 713;
},
{
anchors = (
{
name = bottom;
pos = (350,0);
},
{
name = top;
pos = (350,700);
}
);
background = {
shapes = (
{
ref = U;
},
{
pos = (638,190);
ref = horncomb;
}
);
};
layerId = "3CA830F5-1E41-4F35-86DC-34C8110F5ED1";
shapes = (
{
closed = 1;
nodes = (
(513,-10,o),
(612,68,o),
(612,290,cs),
(612,677,l),
(566,639,l),
(708,639,o),
(767,711,o),
(767,826,c),
(682,853,l),
(646,843,l),
(651,757,o),
(639,700,o),
(553,700,cs,{
name = "🧨";
}),
(434,700,l),
(434,562,l),
(502,531,l),
(502,310,ls),
(502,199,o),
(446,158,o),
(348,158,cs),
(249,158,o),
(198,199,o),
(198,310,cs),
(198,531,l),
(266,562,l),
(266,700,l),
(20,700,l),
(20,562,l),
(88,531,l),
(88,290,ls),
(88,68,o),
(184,-10,o),
(348,-10,cs)
);
}
);
userData = {
com.hugojourdan.ColorFlow = {
"0" = 0;
"1" = 0;
"10" = 0;
"11" = 0;
"2" = 0;
"3" = 0;
"4" = 0;
"5" = 0;
"6" = 0;
"7" = 0;
"8" = 0;
"9" = 0;
};
};
width = 730;
}
);
metricLeft = U;
unicode = 431;
},
{
glyphname = V;
kernLeft = KO_V;
kernRight = KO_V;
lastChange = "2025-01-06 07:55:01 +0000";
layers = (
{
anchors = (
{
name = bottom;
pos = (303,0);
},
{
name = top;
pos = (303,700);
}
);
background = {
shapes = (
{
closed = 1;
nodes = (
(309,-5,l,{
name = "🧨";
}),
(533,666,l),
(599,684,l),
(599,700,l),
(449,700,l),
(449,684,l),
(515,666,l),
(314,56,l),
(328,68,l),
(273,68,l),
(287,57,l),
(86,666,l),
(152,684,l),
(152,700,l),
(2,700,l),
(2,684,l),
(68,666,l),
(293,-5,l,{
name = "🧨";
})
);
}
);
};
layerId = master01;
shapes = (
{
closed = 1;
nodes = (
(309,-5,l,{
name = "🧨";
}),
(530,656,l),
(599,684,l),
(599,700,l),
(449,700,l),
(449,684,l),
(512,656,l),
(314,56,l),
(328,68,l),
(273,68,l),
(287,57,l),
(89,656,l),
(152,684,l),
(152,700,l),
(2,700,l),
(2,684,l),
(71,656,l),
(293,-5,l,{
name = "🧨";
})
);
}
);
userData = {
com.hugojourdan.ColorFlow = {
"0" = 0;
"1" = 0;
"10" = 0;
"11" = 0;
"2" = 0;
"3" = 0;
"4" = 0;
"5" = 0;
"6" = 0;
"7" = 0;
"8" = 0;
"9" = 0;
};
com.typemytype.robofont.guides = (
{
isGlobal = 0;
magnetic = 5;
x = 0;
y = 629;
}
);
};
width = 601;
},
{
anchors = (
{
name = bottom;
pos = (332,0);
},
{
name = top;
pos = (332,700);
}
);
background = {
shapes = (
{
closed = 1;
nodes = (
(363,-5,l),
(594,648,l),
(566,611,l),
(658,642,l),
(658,700,l),
(471,700,l),
(471,643,l),
(543,612,l),
(531,642,l),
(308,-5,l)
);
},
{
closed = 1;
nodes = (
(365,41,l),
(384,126,l),
(277,126,l),
(298,41,l)
);
},
{
closed = 1;
nodes = (
(355,-5,l),
(132,642,l),
(120,612,l),
(192,643,l),
(192,700,l),
(5,700,l),
(5,642,l),
(97,611,l),
(69,648,l),
(300,-5,l)
);
}
);
};
layerId = "7F56E5C1-F146-4434-90E4-DA1B70285074";
shapes = (
{
closed = 1;
nodes = (
(358,-5,l,{
name = "🧨";
}),
(584,619,l),
(661,642,l),
(661,700,l),
(451,700,l),
(451,642,l),
(528,621,l),
(346,104,l),
(381,126,l),
(291,126,l),
(318,103,l),
(136,619,l),
(202,642,l),
(202,700,l),
(2,700,l),
(2,642,l),
(79,621,l),
(305,-5,l,{
name = "🧨";
})
);
}
);
userData = {
com.hugojourdan.ColorFlow = {
"0" = 0;
"1" = 0;
"10" = 0;
"11" = 0;
"2" = 0;
"3" = 0;
"4" = 0;
"5" = 0;
"6" = 0;
"7" = 0;
"8" = 0;
"9" = 0;
};
com.typemytype.robofont.guides = (
{
isGlobal = 0;
magnetic = 5;
x = 0;
y = 629;
}
);
};
width = 663;
},
{
anchors = (
{
name = bottom;
pos = (340,0);
},
{
name = top;
pos = (340,700);
}
);
background = {
shapes = (
{
closed = 1;
nodes = (
(417,-5,l),
(676,648,l),
(618,531,l),
(710,562,l),
(710,700,l),
(449,700,l),
(449,563,l),
(521,532,l),
(543,642,l),
(307,-5,l)
);
},
{
closed = 1;
nodes = (
(400,44,l),
(421,204,l),
(314,204,l),
(333,44,l)
);
},
{
closed = 1;
nodes = (
(412,-5,l),
(176,642,l),
(198,532,l),
(270,563,l),
(270,700,l),
(5,700,l),
(5,562,l),
(97,531,l),
(39,648,l),
(298,-5,l)
);
}
);
};
layerId = "3CA830F5-1E41-4F35-86DC-34C8110F5ED1";
shapes = (
{
closed = 1;
nodes = (
(408,-5,l),
(599,531,l),
(667,562,l),
(667,700,l),
(412,700,l),
(412,562,l),
(480,531,l),
(357,163,l),
(390,186,l),
(286,186,l),
(323,163,l),
(199,531,l),
(267,562,l),
(267,700,l),
(12,700,l),
(12,562,l),
(80,531,l),
(271,-5,l)
);
}
);
userData = {
com.hugojourdan.ColorFlow = {
"0" = 0;
"1" = 0;
"10" = 0;
"11" = 0;
"2" = 0;
"3" = 0;
"4" = 0;
"5" = 0;
"6" = 0;
"7" = 0;
"8" = 0;
"9" = 0;
};
com.typemytype.robofont.guides = (
{
isGlobal = 0;
magnetic = 5;
x = 0;
y = 629;
}
);
};
width = 679;
}
);
metricRight = "=|";
unicode = 86;
userData = {
KernOnName = V;
};
},
{
glyphname = W;
kernLeft = KO_W;
kernRight = KO_W;
lastChange = "2025-01-06 07:55:01 +0000";
layers = (
{
anchors = (
{
name = bottom;
pos = (472,0);
},
{
name = top;
pos = (472,700);
}
);
background = {
shapes = (
{
closed = 1;
nodes = (
(278,0,l),
(455,626,l),
(487,626,l),
(664,0,l),
(683,0,l),
(866,666,l),
(932,684,l),
(932,700,l),
(782,700,l),
(782,684,l),
(848,666,l),
(689,78,l),
(658,78,l),
(482,700,l),
(460,700,l),
(284,78,l),
(253,78,l),
(95,666,l),
(161,684,l),
(161,700,l),
(11,700,l),
(11,684,l),
(77,666,l),
(259,0,l)
);
}
);
};
layerId = master01;
shapes = (
{
closed = 1;
nodes = (
(278,0,l),
(455,626,l),
(487,626,l),
(664,0,l),
(683,0,l),
(863,656,l),
(932,684,l),
(932,700,l),
(782,700,l),
(782,684,l),
(845,656,l),
(689,78,l),
(658,78,l),
(482,700,l),
(460,700,l),
(284,78,l),
(253,78,l),
(98,656,l),
(161,684,l),
(161,700,l),
(11,700,l),
(11,684,l),
(80,656,l),
(259,0,l)
);
}
);
userData = {
com.hugojourdan.ColorFlow = {
"0" = 0;
"1" = 0;
"10" = 0;
"11" = 0;
"2" = 0;
"3" = 0;
"4" = 0;
"5" = 0;
"6" = 0;
"7" = 0;
"8" = 0;
"9" = 0;
};
};
vertWidth = 750;
width = 943;
},
{
anchors = (
{
name = bottom;
pos = (494,0);
},
{
name = top;
pos = (494,700);
}
);
layerId = "7F56E5C1-F146-4434-90E4-DA1B70285074";
shapes = (
{
closed = 1;
nodes = (
(312,-5,l),
(473,550,l),
(513,550,l),
(674,-5,l),
(740,-5,l),
(900,621,l),
(977,642,l),
(977,700,l),
(766,700,l),
(766,642,l),
(843,619,l),
(723,131,l),
(688,131,l),
(526,700,l),
(460,700,l),
(300,131,l),
(267,131,l),
(145,621,l),
(222,642,l),
(222,700,l),
(11,700,l),
(11,642,l),
(88,619,l),
(248,-5,l)
);
}
);
userData = {
com.hugojourdan.ColorFlow = {
"0" = 0;
"1" = 0;
"10" = 0;
"11" = 0;
"2" = 0;
"3" = 0;
"4" = 0;
"5" = 0;
"6" = 0;
"7" = 0;
"8" = 0;
"9" = 0;
};
};
vertWidth = 750;
width = 988;
},
{
anchors = (
{
name = bottom;
pos = (501,0);
},
{
name = top;
pos = (501,700);
}
);
layerId = "3CA830F5-1E41-4F35-86DC-34C8110F5ED1";
shapes = (
{
closed = 1;
nodes = (
(347,0,l),
(483,460,l),
(520,460,l),
(653,0,l),
(797,0,l),
(927,531,l),
(995,562,l),
(995,700,l),
(743,700,l),
(743,562,l),
(811,531,l),
(736,209,l),
(704,209,l),
(564,700,l),
(439,700,l),
(296,209,l),
(264,209,l),
(191,531,l),
(259,562,l),
(259,700,l),
(5,700,l),
(5,562,l),
(73,531,l),
(201,0,l)
);
}
);
userData = {
com.hugojourdan.ColorFlow = {
"0" = 0;
"1" = 0;
"10" = 0;
"11" = 0;
"2" = 0;
"3" = 0;
"4" = 0;
"5" = 0;
"6" = 0;
"7" = 0;
"8" = 0;
"9" = 0;
};
};
vertWidth = 750;
width = 1000;
}
);
metricRight = "=|";
unicode = 87;
userData = {
KernOnName = W;
};
},
{
glyphname = X;
kernLeft = KO_X;
kernRight = KO_X;
lastChange = "2025-01-06 07:55:01 +0000";
layers = (
{
background = {
shapes = (
{
closed = 1;
nodes = (
(594,0,l),
(594,14,l),
(527,37,l),
(537,27,l),
(315,356,l),
(311,360,l),
(101,669,l),
(101,662,l),
(159,686,l),
(159,700,l),
(22,700,l),
(22,686,l),
(92,663,l),
(80,670,l),
(300,346,l),
(305,341,l),
(515,30,l),
(517,38,l),
(456,14,l),
(456,0,l)
);
},
{
closed = 1;
nodes = (
(161,0,l),
(161,14,l),
(100,38,l),
(102,32,l),
(311,341,l),
(316,345,l),
(539,675,l),
(526,662,l),
(593,686,l),
(593,700,l),
(456,700,l),
(456,686,l),
(515,663,l),
(515,669,l),
(305,360,l),
(300,356,l),
(81,30,l),
(93,38,l),
(23,14,l),
(23,0,l)
);
}
);
};
layerId = master01;
shapes = (
{
closed = 1;
nodes = (
(594,0,l),
(594,14,l),
(519,47,l),
(537,27,l),
(315,356,l),
(311,360,l),
(101,669,l),
(105,654,l),
(159,686,l),
(159,700,l),
(22,700,l),
(22,686,l),
(96,653,l),
(80,670,l),
(300,346,l),
(305,341,l),
(515,30,l),
(509,48,l),
(456,14,l),
(456,0,l)
);
},
{
closed = 1;
nodes = (
(161,0,l),
(161,14,l),
(104,48,l),
(102,32,l),
(311,341,l),
(316,345,l),
(539,675,l),
(520,652,l),
(593,686,l),
(593,700,l),
(456,700,l),
(456,686,l),
(509,653,l),
(515,669,l),
(305,360,l),
(300,356,l),
(81,30,l),
(97,48,l),
(23,14,l),
(23,0,l)
);
}
);
userData = {
com.hugojourdan.ColorFlow = {
"0" = 0;
"1" = 0;
"10" = 0;
"11" = 0;
"2" = 0;
"3" = 0;
"4" = 0;
"5" = 0;
"6" = 0;
"7" = 0;
"8" = 0;
"9" = 0;
};
};
vertWidth = 750;
width = 616;
},
{
layerId = "7F56E5C1-F146-4434-90E4-DA1B70285074";
shapes = (
{
closed = 1;
nodes = (
(628,0,l),
(628,58,l),
(507,103,l),
(574,50,l),
(361,363,l),
(341,382,l),
(149,642,l),
(149,615,l),
(224,642,l),
(224,700,l),
(35,700,l),
(35,642,l),
(144,600,l),
(76,653,l),
(311,334,l),
(325,323,l),
(509,57,l),
(511,86,l),
(439,58,l),
(439,0,l)
);
},
{
closed = 1;
nodes = (
(224,0,l),
(224,58,l),
(153,87,l),
(156,59,l),
(342,323,l),
(349,329,l),
(587,652,l),
(519,600,l),
(628,642,l),
(628,700,l),
(442,700,l),
(442,642,l),
(515,614,l),
(518,644,l),
(320,374,l),
(307,362,l),
(102,70,l),
(136,95,l),
(35,58,l),
(35,0,l)
);
}
);
userData = {
com.hugojourdan.ColorFlow = {
"0" = 0;
"1" = 0;
"10" = 0;
"11" = 0;
"2" = 0;
"3" = 0;
"4" = 0;
"5" = 0;
"6" = 0;
"7" = 0;
"8" = 0;
"9" = 0;
};
};
vertWidth = 750;
width = 663;
},
{
layerId = "3CA830F5-1E41-4F35-86DC-34C8110F5ED1";
shapes = (
{
closed = 1;
nodes = (
(620,0,l),
(620,138,l),
(502,176,l),
(574,130,l),
(374,373,l),
(339,405,l),
(191,581,l),
(177,532,l),
(276,562,l),
(276,700,l),
(34,700,l),
(34,562,l),
(138,529,l),
(68,575,l),
(275,330,l),
(303,306,l),
(459,116,l),
(474,170,l),
(378,138,l),
(378,0,l)
);
},
{
closed = 1;
nodes = (
(274,0,l),
(274,138,l),
(179,172,l),
(193,117,l),
(342,300,l),
(375,327,l),
(583,575,l),
(515,529,l),
(619,562,l),
(619,700,l),
(376,700,l),
(376,562,l),
(475,531,l),
(458,579,l),
(310,398,l),
(271,364,l),
(81,132,l),
(152,176,l),
(32,138,l),
(32,0,l)
);
}
);
userData = {
com.hugojourdan.ColorFlow = {
"0" = 0;
"1" = 0;
"10" = 0;
"11" = 0;
"2" = 0;
"3" = 0;
"4" = 0;
"5" = 0;
"6" = 0;
"7" = 0;
"8" = 0;
"9" = 0;
};
};
vertWidth = 750;
width = 652;
}
);
metricRight = "=|";
unicode = 88;
userData = {
KernOnName = X;
};
},
{
glyphname = Y;
kernLeft = KO_Y;
kernRight = KO_Y;
lastChange = "2025-01-06 07:55:01 +0000";
layers = (
{
anchors = (
{
name = bottom;
pos = (311,0);
},
{
name = top;
pos = (311,700);
},
{
name = topleft;
pos = (20,700);
}
);
layerId = master01;
shapes = (
{
closed = 1;
nodes = (
(385,0,l),
(385,16,l),
(319,44,l),
(319,300,l),
(544,673,l),
(530,655,l),
(601,686,l),
(601,700,l),
(463,700,l),
(463,687,l),
(520,656,l),
(525,673,l),
(315,322,l),
(340,350,l),
(281,350,l),
(306,325,l),
(97,672,l),
(98,656,l),
(158,687,l),
(158,700,l),
(20,700,l),
(20,686,l),
(93,655,l),
(77,672,l),
(303,298,l),
(303,44,l),
(237,16,l),
(237,0,l)
);
}
);
userData = {
com.hugojourdan.ColorFlow = {
"0" = 0;
"1" = 0;
"10" = 0;
"11" = 0;
"2" = 0;
"3" = 0;
"4" = 0;
"5" = 0;
"6" = 0;
"7" = 0;
"8" = 0;
"9" = 0;
};
};
vertWidth = 750;
width = 621;
},
{
anchors = (
{
name = bottom;
pos = (305,0);
},
{
name = top;
pos = (305,700);
},
{
name = topleft;
pos = (20,700);
}
);
layerId = "7F56E5C1-F146-4434-90E4-DA1B70285074";
shapes = (
{
closed = 1;
nodes = (
(410,0,l),
(410,58,l),
(333,81,l),
(333,300,l),
(553,661,l),
(488,612,l),
(595,646,l),
(595,700,l),
(418,700,l),
(418,647,l),
(486,622,l),
(479,644,l),
(313,364,l),
(362,394,l),
(248,394,l),
(294,369,l),
(127,650,l),
(127,623,l),
(192,647,l),
(192,700,l),
(15,700,l),
(15,646,l),
(122,613,l),
(57,661,l),
(278,298,l),
(278,79,l),
(201,58,l),
(201,0,l)
);
}
);
userData = {
com.hugojourdan.ColorFlow = {
"0" = 0;
"1" = 0;
"10" = 0;
"11" = 0;
"2" = 0;
"3" = 0;
"4" = 0;
"5" = 0;
"6" = 0;
"7" = 0;
"8" = 0;
"9" = 0;
};
};
vertWidth = 750;
width = 610;
},
{
anchors = (
{
name = bottom;
pos = (298,0);
},
{
name = top;
pos = (298,700);
},
{
name = topleft;
pos = (10,700);
}
);
layerId = "3CA830F5-1E41-4F35-86DC-34C8110F5ED1";
shapes = (
{
closed = 1;
nodes = (
(421,0,l),
(421,138,l),
(353,169,l),
(353,280,l),
(540,583,l),
(472,532,l),
(580,561,l),
(580,700,l),
(358,700,l),
(358,562,l),
(446,532,l),
(427,592,l),
(311,393,l),
(348,414,l),
(246,414,l),
(283,393,l),
(169,592,l),
(149,532,l),
(237,562,l),
(237,700,l),
(15,700,l),
(15,561,l),
(123,535,l),
(56,581,l),
(243,278,l),
(243,169,l),
(175,138,l),
(175,0,l)
);
}
);
userData = {
com.hugojourdan.ColorFlow = {
"0" = 0;
"1" = 0;
"10" = 0;
"11" = 0;
"2" = 0;
"3" = 0;
"4" = 0;
"5" = 0;
"6" = 0;
"7" = 0;
"8" = 0;
"9" = 0;
};
};
vertWidth = 750;
width = 595;
}
);
metricRight = "=|";
unicode = 89;
userData = {
KernOnName = Y;
};
},
{
glyphname = Z;
kernLeft = KO_Z;
kernRight = KO_Z;
lastChange = "2025-01-06 07:55:01 +0000";
layers = (
{
anchors = (
{
name = bottom;
pos = (298,0);
},
{
name = center;
pos = (298,350);
},
{
name = top;
pos = (298,700);
}
);
layerId = master01;
shapes = (
{
closed = 1;
nodes = (
(516,0,l),
(531,133,l),
(513,135,l),
(471,7,l),
(504,25,l),
(71,25,l),
(71,15,l),
(523,685,l),
(516,700,l),
(75,700,l),
(60,567,l),
(77,565,l),
(119,688,l),
(85,675,l),
(506,675,l),
(502,685,l),
(50,15,l),
(58,0,l)
);
}
);
userData = {
com.hugojourdan.ColorFlow = {
"0" = 0;
"1" = 0;
"10" = 0;
"11" = 0;
"2" = 0;
"3" = 0;
"4" = 0;
"5" = 0;
"6" = 0;
"7" = 0;
"8" = 0;
"9" = 0;
};
};
vertWidth = 750;
width = 581;
},
{
anchors = (
{
name = bottom;
pos = (285,0);
},
{
name = center;
pos = (285,350);
},
{
name = top;
pos = (285,700);
}
);
background = {
shapes = (
{
closed = 1;
nodes = (
(94,65,l),
(508,635,l),
(449,635,l),
(35,65,l)
);
},
{
closed = 1;
nodes = (
(501,0,l),
(501,85,l),
(103,85,l),
(35,65,l),
(45,0,l)
);
},
{
closed = 1;
nodes = (
(526,163,l),
(494,173,l),
(445,50,l),
(501,0,l)
);
},
{
closed = 1;
nodes = (
(116,650,l),
(60,700,l),
(35,537,l),
(67,527,l)
);
},
{
closed = 1;
nodes = (
(444,615,l),
(508,635,l),
(498,700,l),
(60,700,l),
(60,615,l)
);
}
);
};
layerId = "7F56E5C1-F146-4434-90E4-DA1B70285074";
shapes = (
{
closed = 1;
nodes = (
(501,0,l),
(516,183,l),
(474,189,l),
(439,62,l),
(473,85,l),
(87,85,l),
(98,65,l),
(511,635,l),
(501,700,l),
(63,700,l),
(48,517,l),
(90,510,l),
(125,638,l),
(91,615,l),
(443,615,l),
(448,635,l),
(35,65,l),
(45,0,l)
);
}
);
userData = {
com.hugojourdan.ColorFlow = {
"0" = 0;
"1" = 0;
"10" = 0;
"11" = 0;
"2" = 0;
"3" = 0;
"4" = 0;
"5" = 0;
"6" = 0;
"7" = 0;
"8" = 0;
"9" = 0;
};
};
vertWidth = 750;
width = 554;
},
{
anchors = (
{
name = bottom;
pos = (313,0);
},
{
name = center;
pos = (313,350);
},
{
name = top;
pos = (313,700);
}
);
layerId = "3CA830F5-1E41-4F35-86DC-34C8110F5ED1";
shapes = (
{
closed = 1;
nodes = (
(531,0,l),
(556,243,l),
(464,253,l),
(415,50,l),
(511,165,l),
(108,165,l),
(179,125,l),
(547,595,l),
(537,700,l),
(74,700,l),
(49,477,l),
(141,467,l),
(190,650,l),
(104,555,l),
(483,555,l),
(408,595,l),
(40,125,l),
(50,0,l)
);
}
);
userData = {
com.hugojourdan.ColorFlow = {
"0" = 0;
"1" = 0;
"10" = 0;
"11" = 0;
"2" = 0;
"3" = 0;
"4" = 0;
"5" = 0;
"6" = 0;
"7" = 0;
"8" = 0;
"9" = 0;
};
};
vertWidth = 750;
width = 586;
}
);
unicode = 90;
userData = {
KernOnName = Z;
};
},
{
glyphname = Saltillo;
lastChange = "2025-01-05 07:57:35 +0000";
layers = (
{
layerId = master01;
shapes = (
{
closed = 1;
nodes = (
(113,700,l),
(101,705,o),
(91,704,o),
(80,700,c),
(85,385,l),
(88,381,o),
(96,379,o),
(102,380,c)
);
}
);
userData = {
com.hugojourdan.ColorFlow = {
"0" = 0;
"1" = 0;
"10" = 0;
"11" = 0;
"2" = 0;
"3" = 0;
"4" = 0;
"5" = 0;
"6" = 0;
"7" = 0;
"8" = 0;
"9" = 0;
};
};
width = 193;
},
{
layerId = "7F56E5C1-F146-4434-90E4-DA1B70285074";
shapes = (
{
closed = 1;
nodes = (
(168,700,l),
(133,709,o),
(98,709,o),
(63,700,c),
(76,380,l),
(98,370,o),
(117,367,o),
(151,370,c)
);
}
);
userData = {
com.hugojourdan.ColorFlow = {
"0" = 0;
"1" = 0;
"10" = 0;
"11" = 0;
"2" = 0;
"3" = 0;
"4" = 0;
"5" = 0;
"6" = 0;
"7" = 0;
"8" = 0;
"9" = 0;
};
};
width = 231;
},
{
layerId = "3CA830F5-1E41-4F35-86DC-34C8110F5ED1";
shapes = (
{
closed = 1;
nodes = (
(241,700,l),
(205,716,o),
(92,716,o),
(50,700,c),
(71,380,l),
(100,360,o),
(150,349,o),
(216,360,c)
);
}
);
userData = {
com.hugojourdan.ColorFlow = {
"0" = 0;
"1" = 0;
"10" = 0;
"11" = 0;
"2" = 0;
"3" = 0;
"4" = 0;
"5" = 0;
"6" = 0;
"7" = 0;
"8" = 0;
"9" = 0;
};
};
width = 291;
}
);
metricRight = "=|";
unicode = 42891;
},
{
color = 0;
export = 0;
glyphname = P.registered;
lastChange = "2025-01-05 11:04:30 +0000";
layers = (
{
anchors = (
{
name = bottom;
pos = (127,0);
},
{
name = top;
pos = (127,700);
}
);
background = {
shapes = (
{
closed = 1;
nodes = (
(188,0,l),
(188,16,l),
(122,44,l),
(122,683,l),
(114,675,l),
(266,675,ls),
(381,675,o),
(442,619,o),
(442,503,cs),
(442,397,o),
(389,320,o),
(252,320,cs),
(117,320,l),
(117,300,l),
(252,300,ls),
(345,300,o),
(461,340,o),
(461,503,cs),
(461,641,o),
(375,700,o),
(266,700,cs),
(40,700,l),
(40,684,l),
(106,656,l),
(106,44,l),
(40,16,l),
(40,0,l)
);
},
{
closed = 1;
nodes = (
(528,0,l),
(528,16,l),
(462,34,l),
(286,313,l),
(272,305,l),
(447,26,l),
(447,0,l,{
name = "🧨";
})
);
}
);
};
layerId = master01;
shapes = (
{
closed = 1;
nodes = (
(98,0,l),
(98,16,l),
(65,28,l),
(65,291,l),
(58,284,l),
(131,284,ls),
(177,284,o),
(201,263,o),
(201,218,cs),
(201,177,o),
(181,147,o),
(125,147,cs),
(61,147,l),
(61,131,l),
(122,131,ls),
(166,131,o),
(218,150,o),
(218,220,cs),
(218,283,o),
(177,308,o),
(129,308,cs),
(17,308,l),
(17,292,l),
(50,281,l),
(50,27,l),
(17,16,l),
(17,0,l)
);
}
);
userData = {
RMXScaler = {
height = 44;
weight = 10;
width = 46;
};
com.hugojourdan.ColorFlow = {
"0" = 0;
"1" = 0;
"10" = 0;
"11" = 0;
"2" = 0;
"3" = 0;
"4" = 0;
"5" = 0;
"6" = 0;
"7" = 0;
"8" = 0;
"9" = 0;
};
};
vertWidth = 750;
width = 254;
},
{
anchors = (
{
name = bottom;
pos = (131,0);
},
{
name = top;
pos = (131,700);
}
);
background = {
shapes = (
{
closed = 1;
nodes = (
(268,295,l),
(271,306,l),
(369,307,o),
(476,351,o),
(476,502,cs),
(476,645,o),
(384,700,o),
(282,700,cs),
(114,700,l),
(114,615,l),
(295,615,ls),
(380,615,o),
(418,575,o),
(418,494,cs),
(418,411,o),
(378,350,o),
(279,350,cs),
(151,350,l),
(151,295,l)
);
},
{
closed = 1;
nodes = (
(572,75,l),
(403,105,o),
(424,325,o),
(247,325,c),
(247,295,l),
(370,295,o),
(360,16,o),
(535,-10,c)
);
},
{
closed = 1;
nodes = (
(112,700,l),
(112,0,l),
(167,0,l),
(167,700,l)
);
}
);
};
layerId = "7F56E5C1-F146-4434-90E4-DA1B70285074";
shapes = (
{
closed = 1;
nodes = (
(122,0,l),
(122,53,l),
(90,66,l),
(90,254,l),
(78,243,l),
(139,243,ls),
(175,243,o),
(191,234,o),
(191,206,cs),
(191,183,o),
(179,168,o),
(138,168,cs),
(83,168,l),
(83,112,l),
(127,112,ls),
(185,112,o),
(236,133,o),
(236,211,cs),
(236,281,o),
(194,308,o),
(133,308,cs),
(14,308,l),
(14,255,l),
(46,242,l),
(46,66,l),
(14,53,l),
(14,0,l)
);
}
);
userData = {
RMXScaler = {
height = 44;
weight = -50;
width = 46;
};
com.hugojourdan.ColorFlow = {
"0" = 0;
"1" = 0;
"10" = 0;
"11" = 0;
"2" = 0;
"3" = 0;
"4" = 0;
"5" = 0;
"6" = 0;
"7" = 0;
"8" = 0;
"9" = 0;
};
};
vertWidth = 750;
width = 262;
},
{
anchors = (
{
name = bottom;
pos = (134,0);
},
{
name = top;
pos = (134,700);
}
);
background = {
shapes = (
{
closed = 1;
nodes = (
(276,0,l),
(276,138,l),
(208,169,l),
(208,560,l),
(183,535,l),
(301,535,ls),
(376,535,o),
(409,517,o),
(409,452,cs),
(409,394,o),
(381,360,o),
(285,360,cs),
(192,360,l),
(192,265,l),
(274,265,ls),
(412,265,o),
(522,312,o),
(522,484,cs),
(522,641,o),
(431,700,o),
(288,700,cs),
(30,700,l),
(30,562,l),
(98,531,l),
(98,169,l),
(30,138,l),
(30,0,l)
);
},
{
closed = 1;
nodes = (
(565,0,l),
(565,138,l),
(463,169,l),
(375,319,l),
(280,295,l),
(434,0,l,{
name = "🧨";
})
);
}
);
};
layerId = "3CA830F5-1E41-4F35-86DC-34C8110F5ED1";
shapes = (
{
closed = 1;
nodes = (
(130,0,l),
(130,70,l),
(100,85,l),
(100,244,l),
(88,232,l),
(139,232,ls),
(171,232,o),
(186,228,o),
(186,206,cs),
(186,189,o),
(177,180,o),
(142,180,cs),
(92,180,l),
(92,106,l),
(126,106,ls),
(193,106,o),
(243,129,o),
(243,211,cs),
(243,286,o),
(201,315,o),
(132,315,cs),
(13,315,l),
(13,245,l),
(44,230,l),
(44,85,l),
(13,70,l),
(13,0,l)
);
}
);
userData = {
RMXScaler = {
height = 45;
weight = -442;
width = 46;
};
com.hugojourdan.ColorFlow = {
"0" = 0;
"1" = 0;
"10" = 0;
"11" = 0;
"2" = 0;
"3" = 0;
"4" = 0;
"5" = 0;
"6" = 0;
"7" = 0;
"8" = 0;
"9" = 0;
};
};
vertWidth = 750;
width = 267;
},
{
anchors = (
{
name = bottom;
pos = (289,0);
},
{
name = left;
pos = (112,621);
},
{
name = right;
pos = (167,81);
},
{
name = top;
pos = (259,700);
}
);
associatedMasterId = "7F56E5C1-F146-4434-90E4-DA1B70285074";
background = {
shapes = (
{
closed = 1;
nodes = (
(268,295,l),
(271,306,l),
(369,307,o),
(476,351,o),
(476,502,cs),
(476,645,o),
(384,700,o),
(282,700,cs),
(114,700,l),
(114,615,l),
(295,615,ls),
(380,615,o),
(418,575,o),
(418,494,cs),
(418,411,o),
(378,350,o),
(279,350,cs),
(151,350,l),
(151,295,l)
);
},
{
closed = 1;
nodes = (
(572,75,l),
(403,105,o),
(424,325,o),
(247,325,c),
(247,295,l),
(370,295,o),
(360,16,o),
(535,-10,c)
);
},
{
closed = 1;
nodes = (
(112,700,l),
(112,0,l),
(167,0,l),
(167,700,l)
);
}
);
};
layerId = "FDAE7F1B-7416-4CFD-B6DD-4D9A43674C8C";
name = "29 Jan 23 16.57";
shapes = (
{
closed = 1;
nodes = (
(268,295,l),
(271,306,l),
(369,307,o),
(476,351,o),
(476,502,cs),
(476,645,o),
(384,700,o),
(282,700,cs),
(114,700,l),
(114,615,l),
(295,615,ls),
(380,615,o),
(418,575,o),
(418,494,cs),
(418,411,o),
(378,350,o),
(279,350,cs),
(151,350,l),
(151,295,l)
);
},
{
closed = 1;
nodes = (
(572,75,l),
(403,105,o),
(424,325,o),
(247,325,c),
(247,295,l),
(370,295,o),
(360,16,o),
(535,-10,c)
);
},
{
closed = 1;
nodes = (
(112,700,l),
(112,0,l),
(167,0,l),
(167,700,l)
);
},
{
closed = 0;
nodes = (
(142,700,l),
(35,700,l),
(35,642,l),
(112,621,l)
);
},
{
closed = 0;
nodes = (
(112,79,l),
(35,58,l),
(35,0,l),
(142,0,l)
);
},
{
closed = 0;
nodes = (
(137,0,l),
(244,0,l),
(244,58,l),
(167,81,l)
);
},
{
closed = 1;
nodes = (
(244,0,l),
(244,58,l),
(167,81,l),
(167,640,l),
(142,615,l),
(310,615,ls),
(395,615,o),
(433,575,o),
(433,489,cs),
(433,411,o),
(402,350,o),
(294,350,cs),
(153,350,l),
(153,295,l),
(283,295,ls),
(382,295,o),
(491,340,o),
(491,499,cs),
(491,645,o),
(399,700,o),
(297,700,cs),
(35,700,l),
(35,642,l),
(112,619,l),
(112,79,l),
(35,58,l),
(35,0,l)
);
}
);
vertWidth = 750;
width = 577;
}
);
userData = {
RMXScaler = {
source = R;
};
};
},
{
color = 0;
export = 0;
glyphname = R.registered;
lastChange = "2025-01-05 11:04:30 +0000";
layers = (
{
anchors = (
{
name = bottom;
pos = (127,0);
},
{
name = top;
pos = (127,700);
}
);
background = {
shapes = (
{
closed = 1;
nodes = (
(188,0,l),
(188,16,l),
(122,44,l),
(122,683,l),
(114,675,l),
(266,675,ls),
(381,675,o),
(442,619,o),
(442,503,cs),
(442,397,o),
(389,320,o),
(252,320,cs),
(117,320,l),
(117,300,l),
(252,300,ls),
(345,300,o),
(461,340,o),
(461,503,cs),
(461,641,o),
(375,700,o),
(266,700,cs),
(40,700,l),
(40,684,l),
(106,656,l),
(106,44,l),
(40,16,l),
(40,0,l)
);
},
{
closed = 1;
nodes = (
(528,0,l),
(528,16,l),
(462,34,l),
(286,313,l),
(272,305,l),
(447,26,l),
(447,0,l,{
name = "🧨";
})
);
}
);
};
layerId = master01;
shapes = (
{
closed = 1;
nodes = (
(98,0,l),
(98,16,l),
(65,28,l),
(65,291,l),
(58,284,l),
(131,284,ls),
(177,284,o),
(201,263,o),
(201,218,cs),
(201,177,o),
(181,147,o),
(125,147,cs),
(61,147,l),
(61,131,l),
(122,131,ls),
(166,131,o),
(218,150,o),
(218,220,cs),
(218,283,o),
(177,308,o),
(129,308,cs),
(17,308,l),
(17,292,l),
(50,281,l),
(50,27,l),
(17,16,l),
(17,0,l)
);
},
{
closed = 1;
nodes = (
(245,0,l),
(245,16,l),
(211,28,l),
(140,140,l),
(125,133,l),
(195,22,l),
(195,0,l,{
name = "🧨";
})
);
}
);
userData = {
RMXScaler = {
height = 44;
weight = 10;
width = 46;
};
com.hugojourdan.ColorFlow = {
"0" = 0;
"1" = 0;
"10" = 0;
"11" = 0;
"2" = 0;
"3" = 0;
"4" = 0;
"5" = 0;
"6" = 0;
"7" = 0;
"8" = 0;
"9" = 0;
};
};
vertWidth = 750;
width = 254;
},
{
anchors = (
{
name = bottom;
pos = (131,0);
},
{
name = top;
pos = (131,700);
}
);
background = {
shapes = (
{
closed = 1;
nodes = (
(268,295,l),
(271,306,l),
(369,307,o),
(476,351,o),
(476,502,cs),
(476,645,o),
(384,700,o),
(282,700,cs),
(114,700,l),
(114,615,l),
(295,615,ls),
(380,615,o),
(418,575,o),
(418,494,cs),
(418,411,o),
(378,350,o),
(279,350,cs),
(151,350,l),
(151,295,l)
);
},
{
closed = 1;
nodes = (
(572,75,l),
(403,105,o),
(424,325,o),
(247,325,c),
(247,295,l),
(370,295,o),
(360,16,o),
(535,-10,c)
);
},
{
closed = 1;
nodes = (
(112,700,l),
(112,0,l),
(167,0,l),
(167,700,l)
);
}
);
};
layerId = "7F56E5C1-F146-4434-90E4-DA1B70285074";
shapes = (
{
closed = 1;
nodes = (
(122,0,l),
(122,53,l),
(90,66,l),
(90,254,l),
(78,243,l),
(139,243,ls),
(175,243,o),
(191,234,o),
(191,206,cs),
(191,183,o),
(179,168,o),
(138,168,cs),
(83,168,l),
(83,112,l),
(127,112,ls),
(185,112,o),
(236,133,o),
(236,211,cs),
(236,281,o),
(194,308,o),
(133,308,cs),
(14,308,l),
(14,255,l),
(46,242,l),
(46,66,l),
(14,53,l),
(14,0,l)
);
},
{
closed = 1;
nodes = (
(256,0,l),
(256,53,l),
(212,66,l),
(166,141,l),
(128,130,l,{
name = "🧨";
}),
(172,53,l),
(172,0,l,{
name = "🧨";
})
);
}
);
userData = {
RMXScaler = {
height = 44;
weight = -50;
width = 46;
};
com.hugojourdan.ColorFlow = {
"0" = 0;
"1" = 0;
"10" = 0;
"11" = 0;
"2" = 0;
"3" = 0;
"4" = 0;
"5" = 0;
"6" = 0;
"7" = 0;
"8" = 0;
"9" = 0;
};
};
vertWidth = 750;
width = 262;
},
{
anchors = (
{
name = bottom;
pos = (134,0);
},
{
name = top;
pos = (134,700);
}
);
background = {
shapes = (
{
closed = 1;
nodes = (
(276,0,l),
(276,138,l),
(208,169,l),
(208,560,l),
(183,535,l),
(301,535,ls),
(376,535,o),
(409,517,o),
(409,452,cs),
(409,394,o),
(381,360,o),
(285,360,cs),
(192,360,l),
(192,265,l),
(274,265,ls),
(412,265,o),
(522,312,o),
(522,484,cs),
(522,641,o),
(431,700,o),
(288,700,cs),
(30,700,l),
(30,562,l),
(98,531,l),
(98,169,l),
(30,138,l),
(30,0,l)
);
},
{
closed = 1;
nodes = (
(565,0,l),
(565,138,l),
(463,169,l),
(375,319,l),
(280,295,l),
(434,0,l,{
name = "🧨";
})
);
}
);
};
layerId = "3CA830F5-1E41-4F35-86DC-34C8110F5ED1";
shapes = (
{
closed = 1;
nodes = (
(130,0,l),
(130,70,l),
(100,85,l),
(100,244,l),
(88,232,l),
(139,232,ls),
(171,232,o),
(186,228,o),
(186,206,cs),
(186,189,o),
(177,180,o),
(142,180,cs),
(92,180,l),
(92,106,l),
(126,106,ls),
(193,106,o),
(243,129,o),
(243,211,cs),
(243,286,o),
(201,315,o),
(132,315,cs),
(13,315,l),
(13,245,l),
(44,230,l),
(44,85,l),
(13,70,l),
(13,0,l)
);
},
{
closed = 1;
nodes = (
(262,0,l),
(262,70,l),
(213,85,l),
(177,143,l),
(129,132,l),
(163,68,l),
(163,0,l,{
name = "🧨";
})
);
}
);
userData = {
RMXScaler = {
height = 45;
weight = -442;
width = 46;
};
com.hugojourdan.ColorFlow = {
"0" = 0;
"1" = 0;
"10" = 0;
"11" = 0;
"2" = 0;
"3" = 0;
"4" = 0;
"5" = 0;
"6" = 0;
"7" = 0;
"8" = 0;
"9" = 0;
};
};
vertWidth = 750;
width = 267;
},
{
anchors = (
{
name = bottom;
pos = (289,0);
},
{
name = left;
pos = (112,621);
},
{
name = right;
pos = (167,81);
},
{
name = top;
pos = (259,700);
}
);
associatedMasterId = "7F56E5C1-F146-4434-90E4-DA1B70285074";
background = {
shapes = (
{
closed = 1;
nodes = (
(268,295,l),
(271,306,l),
(369,307,o),
(476,351,o),
(476,502,cs),
(476,645,o),
(384,700,o),
(282,700,cs),
(114,700,l),
(114,615,l),
(295,615,ls),
(380,615,o),
(418,575,o),
(418,494,cs),
(418,411,o),
(378,350,o),
(279,350,cs),
(151,350,l),
(151,295,l)
);
},
{
closed = 1;
nodes = (
(572,75,l),
(403,105,o),
(424,325,o),
(247,325,c),
(247,295,l),
(370,295,o),
(360,16,o),
(535,-10,c)
);
},
{
closed = 1;
nodes = (
(112,700,l),
(112,0,l),
(167,0,l),
(167,700,l)
);
}
);
};
layerId = "FDAE7F1B-7416-4CFD-B6DD-4D9A43674C8C";
name = "29 Jan 23 16.57";
shapes = (
{
closed = 1;
nodes = (
(268,295,l),
(271,306,l),
(369,307,o),
(476,351,o),
(476,502,cs),
(476,645,o),
(384,700,o),
(282,700,cs),
(114,700,l),
(114,615,l),
(295,615,ls),
(380,615,o),
(418,575,o),
(418,494,cs),
(418,411,o),
(378,350,o),
(279,350,cs),
(151,350,l),
(151,295,l)
);
},
{
closed = 1;
nodes = (
(572,75,l),
(403,105,o),
(424,325,o),
(247,325,c),
(247,295,l),
(370,295,o),
(360,16,o),
(535,-10,c)
);
},
{
closed = 1;
nodes = (
(112,700,l),
(112,0,l),
(167,0,l),
(167,700,l)
);
},
{
closed = 0;
nodes = (
(142,700,l),
(35,700,l),
(35,642,l),
(112,621,l)
);
},
{
closed = 0;
nodes = (
(112,79,l),
(35,58,l),
(35,0,l),
(142,0,l)
);
},
{
closed = 0;
nodes = (
(137,0,l),
(244,0,l),
(244,58,l),
(167,81,l)
);
},
{
closed = 1;
nodes = (
(244,0,l),
(244,58,l),
(167,81,l),
(167,640,l),
(142,615,l),
(310,615,ls),
(395,615,o),
(433,575,o),
(433,489,cs),
(433,411,o),
(402,350,o),
(294,350,cs),
(153,350,l),
(153,295,l),
(283,295,ls),
(382,295,o),
(491,340,o),
(491,499,cs),
(491,645,o),
(399,700,o),
(297,700,cs),
(35,700,l),
(35,642,l),
(112,619,l),
(112,79,l),
(35,58,l),
(35,0,l)
);
}
);
vertWidth = 750;
width = 577;
}
);
userData = {
RMXScaler = {
source = R;
};
};
},
{
glyphname = a;
kernLeft = KO_a;
kernRight = KO_a;
lastChange = "2025-01-06 07:55:01 +0000";
layers = (
{
anchors = (
{
name = bottom;
pos = (221,0);
},
{
name = ogonek;
pos = (432,0);
},
{
name = top;
pos = (207,495);
}
);
background = {
shapes = (
{
closed = 1;
nodes = (
(294,474,o),
(345,441,o),
(345,344,cs),
(345,34,l),
(334,6,l),
(344,-2,l),
(422,9,l),
(422,23,l),
(360,34,l),
(360,346,ls),
(360,461,o),
(314,499,o),
(220,499,cs),
(150,499,o),
(95,479,o),
(61,455,c),
(44,348,l),
(60,346,l),
(94,460,l),
(85,442,l),
(118,461,o),
(167,474,o),
(217,474,cs)
);
},
{
closed = 1;
nodes = (
(40,24,o),
(112,-6,o),
(180,-6,cs),
(263,-6,o),
(314,39,o),
(341,107,c),
(345,107,l),
(345,139,l),
(313,62,o),
(273,19,o),
(182,19,cs),
(117,19,o),
(57,40,o),
(57,111,cs),
(57,222,o),
(204,251,o),
(345,251,c),
(345,275,l),
(118,275,o),
(40,204,o),
(40,112,cs)
);
}
);
};
layerId = master01;
shapes = (
{
closed = 1;
nodes = (
(264,-6,o),
(318,34,o),
(341,107,c),
(345,107,l),
(340,3,l),
(350,-2,l),
(432,9,l),
(432,23,l),
(360,44,l),
(360,316,ls),
(360,455,o),
(304,499,o),
(207,499,cs),
(145,499,o),
(102,480,o),
(70,460,c),
(63,373,l),
(79,371,l),
(113,467,l),
(89,446,l),
(125,466,o),
(162,474,o),
(207,474,cs),
(285,474,o),
(345,445,o),
(345,314,cs),
(345,127,l),
(348,149,l),
(314,49,o),
(267,19,o),
(187,19,cs),
(124,19,o),
(67,38,o),
(67,115,cs),
(67,220,o),
(175,263,o),
(350,261,c),
(354,285,l),
(149,287,o),
(50,228,o),
(50,116,cs),
(50,22,o),
(119,-6,o),
(185,-6,cs)
);
}
);
userData = {
com.hugojourdan.ColorFlow = {
"0" = 0;
"1" = 0;
"10" = 0;
"11" = 0;
"2" = 0;
"3" = 0;
"4" = 0;
"5" = 0;
"6" = 0;
"7" = 0;
"8" = 0;
"9" = 0;
};
};
vertWidth = 750;
width = 471;
},
{
anchors = (
{
name = bottom;
pos = (232,0);
},
{
name = ogonek;
pos = (443,0);
},
{
name = top;
pos = (208,500);
}
);
background = {
shapes = (
{
closed = 1;
nodes = (
(298,430,o),
(321,381,o),
(321,307,cs),
(321,100,l),
(313,7,l),
(336,-6,l),
(443,18,l),
(443,71,l),
(376,83,l),
(376,306,ls),
(376,417,o),
(355,510,o),
(218,510,cs),
(144,510,o),
(87,483,o),
(49,426,c),
(40,348,l),
(88,341,l),
(117,408,l),
(106,390,l),
(132,415,o),
(165,430,o),
(212,430,cs)
);
},
{
closed = 1;
nodes = (
(41,21,o),
(111,-10,o),
(174,-10,cs),
(249,-10,o),
(292,34,o),
(315,100,c),
(321,100,l),
(321,159,l),
(291,103,o),
(259,75,o),
(187,75,cs),
(127,75,o),
(93,94,o),
(93,134,cs),
(93,193,o),
(167,221,o),
(321,221,c),
(321,291,l),
(207,291,o),
(41,269,o),
(41,118,cs)
);
}
);
};
layerId = "7F56E5C1-F146-4434-90E4-DA1B70285074";
shapes = (
{
closed = 1;
nodes = (
(249,-10,o),
(292,34,o),
(315,100,c),
(321,100,l),
(308,7,l),
(331,-6,l),
(443,35,l),
(443,89,l),
(376,100,l),
(376,306,ls),
(376,417,o),
(355,510,o),
(218,510,cs),
(148,510,o),
(95,486,o),
(59,453,c),
(50,355,l),
(98,348,l),
(141,461,l),
(95,410,l),
(133,422,o),
(166,430,o),
(204,430,cs),
(298,430,o),
(321,384,o),
(321,307,cs),
(321,114,l),
(337,192,l),
(301,114,o),
(272,75,o),
(187,75,cs),
(127,75,o),
(93,94,o),
(93,134,cs),
(93,197,o),
(176,224,o),
(350,221,c),
(335,291,l),
(222,293,o),
(41,276,o),
(41,118,cs),
(41,21,o),
(111,-10,o),
(174,-10,cs)
);
}
);
userData = {
com.hugojourdan.ColorFlow = {
"0" = 0;
"1" = 0;
"10" = 0;
"11" = 0;
"2" = 0;
"3" = 0;
"4" = 0;
"5" = 0;
"6" = 0;
"7" = 0;
"8" = 0;
"9" = 0;
};
};
width = 470;
},
{
anchors = (
{
name = bottom;
pos = (246,0);
},
{
name = ogonek;
pos = (470,0);
},
{
name = top;
pos = (226,510);
}
);
background = {
shapes = (
{
closed = 1;
nodes = (
(232,-11,o),
(270,27,o),
(292,85,c),
(300,85,l),
(292,7,l),
(355,-6,l),
(472,15,l),
(472,130,l),
(405,145,l),
(405,316,ls),
(405,427,o),
(379,520,o),
(226,520,cs),
(143,520,o),
(90,493,o),
(58,456,c),
(39,328,l),
(127,312,l),
(158,403,l),
(120,346,l),
(144,366,o),
(171,376,o),
(213,376,cs),
(284,376,o),
(300,349,o),
(300,307,cs),
(300,114,l),
(325,179,l),
(285,145,o),
(255,124,o),
(199,124,cs),
(154,124,o),
(142,138,o),
(142,157,cs),
(142,201,o),
(202,213,o),
(330,211,c),
(314,291,l),
(204,293,o),
(30,276,o),
(30,117,cs),
(30,24,o),
(90,-11,o),
(160,-11,cs)
);
}
);
};
layerId = "3CA830F5-1E41-4F35-86DC-34C8110F5ED1";
shapes = (
{
closed = 1;
nodes = (
(231,-11,o),
(268,27,o),
(290,85,c),
(298,85,l),
(284,0,l),
(330,-10,l),
(470,35,l),
(470,170,l),
(405,180,l),
(405,316,ls),
(405,427,o),
(379,520,o),
(226,520,cs),
(143,520,o),
(90,493,o),
(58,456,c),
(39,328,l),
(127,312,l),
(158,403,l),
(120,346,l),
(144,366,o),
(171,376,o),
(213,376,cs),
(284,376,o),
(300,349,o),
(300,307,cs),
(300,114,l),
(325,179,l),
(285,145,o),
(255,124,o),
(199,124,cs),
(154,124,o),
(142,138,o),
(142,157,cs),
(142,201,o),
(202,213,o),
(330,211,c),
(314,291,l),
(204,293,o),
(30,276,o),
(30,117,cs),
(30,24,o),
(90,-11,o),
(160,-11,cs)
);
}
);
userData = {
com.hugojourdan.ColorFlow = {
"0" = 0;
"1" = 0;
"10" = 0;
"11" = 0;
"2" = 0;
"3" = 0;
"4" = 0;
"5" = 0;
"6" = 0;
"7" = 0;
"8" = 0;
"9" = 0;
};
};
width = 490;
},
{
anchors = (
{
name = bottom;
pos = (338,2);
},
{
name = top;
pos = (218,500);
}
);
associatedMasterId = "7F56E5C1-F146-4434-90E4-DA1B70285074";
layerId = "C964C805-3D66-4F22-B9B3-91E0173142E6";
name = "Apr 16 19, 20:34";
shapes = (
{
closed = 1;
nodes = (
(211,-10,o),
(248,52,o),
(278,123,c,{
name = sh02;
}),
(284,123,l,{
name = ah01;
}),
(307,204,l,{
name = sh01;
}),
(262,97,o),
(214,75,o),
(173,75,cs,{
name = dv02;
}),
(113,75,o),
(92,123,o),
(92,194,cs,{
name = sh05;
}),
(92,332,o),
(171,425,o),
(261,425,cs,{
name = dv03;
}),
(302,425,o),
(336,405,o),
(350,373,c,{
name = sh04;
}),
(384,432,l),
(371,478,o),
(331,510,o),
(275,510,cs,{
name = dv04;
}),
(152,510,o),
(35,359,o),
(35,169,cs,{
name = sh03;
}),
(35,58,o),
(76,-10,o),
(146,-10,cs,{
name = dv01;
})
);
},
{
closed = 1;
nodes = (
(399,35,l),
(399,81,l),
(334,99,l,{
name = sh07;
}),
(440,500,l,{
name = sh09;
}),
(390,500,l),
(356,395,l),
(264,52,l),
(264,0,l),
(295,-7,l,{
name = sh06;
})
);
}
);
width = 480;
},
{
anchors = (
{
name = bottom;
pos = (338,2);
},
{
name = top;
pos = (218,500);
}
);
associatedMasterId = "7F56E5C1-F146-4434-90E4-DA1B70285074";
layerId = "F9E8A866-C6D7-4D24-8713-66408250C266";
name = "Apr 18 19, 10:22";
shapes = (
{
closed = 1;
nodes = (
(303,430,o),
(326,381,o),
(326,307,c),
(326,7,l),
(349,-6,l),
(448,18,l),
(448,71,l),
(381,83,l),
(381,306,ls),
(381,417,o),
(360,510,o),
(223,510,cs),
(149,510,o),
(92,483,o),
(54,426,c),
(45,348,l),
(93,341,l),
(122,408,l),
(111,390,l),
(137,415,o),
(170,430,o),
(217,430,cs)
);
},
{
closed = 1;
nodes = (
(46,20,o),
(116,-11,o),
(183,-11,cs),
(265,-11,o),
(314,37,o),
(340,110,c),
(326,149,l),
(296,99,o),
(264,74,o),
(194,74,cs),
(132,74,o),
(98,93,o),
(98,134,cs),
(98,193,o),
(172,221,o),
(326,221,c),
(326,291,l),
(212,291,o),
(46,269,o),
(46,118,cs)
);
}
);
width = 473;
},
{
anchors = (
{
name = bottom;
pos = (246,0);
},
{
name = ogonek;
pos = (463,0);
},
{
name = top;
pos = (226,510);
}
);
associatedMasterId = "3CA830F5-1E41-4F35-86DC-34C8110F5ED1";
background = {
shapes = (
{
closed = 1;
nodes = (
(232,-11,o),
(270,27,o),
(292,85,c),
(300,85,l),
(292,7,l),
(355,-6,l),
(472,15,l),
(472,130,l),
(405,145,l),
(405,316,ls),
(405,427,o),
(379,520,o),
(226,520,cs),
(143,520,o),
(90,493,o),
(58,456,c),
(39,328,l),
(127,312,l),
(158,403,l),
(120,346,l),
(144,366,o),
(171,376,o),
(213,376,cs),
(284,376,o),
(300,349,o),
(300,307,cs),
(300,114,l),
(325,179,l),
(285,145,o),
(255,124,o),
(199,124,cs),
(154,124,o),
(142,138,o),
(142,157,cs),
(142,201,o),
(202,213,o),
(330,211,c),
(314,291,l),
(204,293,o),
(30,276,o),
(30,117,cs),
(30,24,o),
(90,-11,o),
(160,-11,cs)
);
}
);
};
layerId = "EEE12388-2A88-4812-A68D-170396C82592";
name = "5 Jan 25 at 15.28";
shapes = (
{
closed = 1;
nodes = (
(232,-11,o),
(270,27,o),
(292,85,c),
(300,85,l),
(292,7,l),
(355,-6,l),
(472,15,l),
(472,130,l),
(405,145,l),
(405,316,ls),
(405,427,o),
(379,520,o),
(226,520,cs),
(143,520,o),
(90,493,o),
(58,456,c),
(39,328,l),
(127,312,l),
(158,403,l),
(120,346,l),
(144,366,o),
(171,376,o),
(213,376,cs),
(284,376,o),
(300,349,o),
(300,307,cs),
(300,114,l),
(325,179,l),
(285,145,o),
(255,124,o),
(199,124,cs),
(154,124,o),
(142,138,o),
(142,157,cs),
(142,201,o),
(202,213,o),
(330,211,c),
(314,291,l),
(204,293,o),
(30,276,o),
(30,117,cs),
(30,24,o),
(90,-11,o),
(160,-11,cs)
);
},
{
pos = (-85,0);
ref = u;
}
);
userData = {
com.hugojourdan.ColorFlow = {
"0" = 0;
"1" = 0;
"10" = 0;
"11" = 0;
"2" = 0;
"3" = 0;
"4" = 0;
"5" = 0;
"6" = 0;
"7" = 0;
"8" = 0;
"9" = 0;
};
};
width = 492;
}
);
metricRight = n;
unicode = 97;
userData = {
KernOnName = a;
};
},
{
glyphname = adieresis;
kernLeft = KO_agrave;
kernRight = KO_a;
lastChange = "2025-01-02 17:37:14 +0000";
layers = (
{
layerId = master01;
shapes = (
{
ref = a;
},
{
pos = (61,0);
ref = dieresiscomb;
}
);
userData = {
com.hugojourdan.ColorFlow = {
"0" = 0;
"1" = 0;
"10" = 0;
"11" = 0;
"2" = 0;
"3" = 0;
"4" = 0;
"5" = 0;
"6" = 0;
"7" = 0;
"8" = 0;
"9" = 0;
};
};
width = 471;
},
{
layerId = "7F56E5C1-F146-4434-90E4-DA1B70285074";
shapes = (
{
ref = a;
},
{
pos = (18,0);
ref = dieresiscomb;
}
);
userData = {
com.hugojourdan.ColorFlow = {
"0" = 0;
"1" = 0;
"10" = 0;
"11" = 0;
"2" = 0;
"3" = 0;
"4" = 0;
"5" = 0;
"6" = 0;
"7" = 0;
"8" = 0;
"9" = 0;
};
};
width = 470;
},
{
layerId = "3CA830F5-1E41-4F35-86DC-34C8110F5ED1";
shapes = (
{
ref = a;
},
{
pos = (7,0);
ref = dieresiscomb;
}
);
userData = {
com.hugojourdan.ColorFlow = {
"0" = 0;
"1" = 0;
"10" = 0;
"11" = 0;
"2" = 0;
"3" = 0;
"4" = 0;
"5" = 0;
"6" = 0;
"7" = 0;
"8" = 0;
"9" = 0;
};
};
width = 490;
},
{
associatedMasterId = "7F56E5C1-F146-4434-90E4-DA1B70285074";
layerId = "EE301BE9-D468-4655-B136-B83C130DCA10";
name = "Jun 7 19, 18:56";
shapes = (
{
closed = 1;
nodes = (
(211,-10,o),
(248,52,o),
(278,123,c,{
name = sh02;
}),
(284,123,l,{
name = ah01;
}),
(307,204,l,{
name = sh01;
}),
(262,97,o),
(214,75,o),
(173,75,cs,{
name = dv02;
}),
(113,75,o),
(92,123,o),
(92,194,cs,{
name = sh05;
}),
(92,332,o),
(171,425,o),
(261,425,cs,{
name = dv03;
}),
(302,425,o),
(336,405,o),
(350,373,c,{
name = sh04;
}),
(384,432,l),
(371,478,o),
(331,510,o),
(275,510,cs,{
name = dv04;
}),
(152,510,o),
(35,359,o),
(35,169,cs,{
name = sh03;
}),
(35,58,o),
(76,-10,o),
(146,-10,cs,{
name = dv01;
})
);
},
{
closed = 1;
nodes = (
(399,35,l),
(399,81,l),
(334,99,l,{
name = sh07;
}),
(440,500,l,{
name = sh09;
}),
(390,500,l),
(356,395,l),
(264,52,l),
(264,0,l),
(295,-7,l,{
name = sh06;
})
);
},
{
pos = (152,0);
ref = dieresiscomb;
}
);
width = 483;
}
);
unicode = 228;
},
{
glyphname = ae;
kernLeft = KO_a;
kernRight = KO_e;
lastChange = "2025-01-05 08:33:29 +0000";
layers = (
{
anchors = (
{
name = bottom;
pos = (354,0);
},
{
name = top;
pos = (221,500);
}
);
layerId = master01;
shapes = (
{
closed = 1;
nodes = (
(619,-5,o),
(678,38,o),
(707,108,c),
(695,114,l),
(663,55,o),
(618,20,o),
(545,20,cs),
(427,20,o),
(363,111,o),
(363,248,cs,{
name = "🧨";
}),
(363,385,o),
(427,475,o),
(538,475,cs),
(650,475,o),
(702,383,o),
(698,260,c,{
name = "🧨";
}),
(703,270,l),
(357,270,l),
(357,250,l),
(713,250,l,{
name = "🧨";
}),
(720,422,o),
(643,500,o),
(539,500,cs),
(434,500,o),
(346,421,o),
(346,250,cs,{
name = "🧨";
}),
(346,76,o),
(437,-5,o),
(542,-5,cs)
);
},
{
closed = 1;
nodes = (
(277,-6,o),
(336,42,o),
(360,121,c),
(368,121,l),
(359,161,l),
(331,67,o),
(286,19,o),
(186,19,cs),
(115,19,o),
(67,43,o),
(67,109,cs),
(67,222,o),
(210,250,o),
(351,250,c,{
name = "🧨";
}),
(351,270,l,{
name = "🧨";
}),
(127,270,o),
(50,201,o),
(50,108,cs),
(50,28,o),
(108,-6,o),
(185,-6,cs)
);
},
{
closed = 1;
nodes = (
(361,254,l),
(361,316,ls),
(361,455,o),
(305,499,o),
(208,499,cs),
(146,499,o),
(103,480,o),
(71,460,c),
(64,373,l),
(80,371,l),
(114,468,l),
(86,444,l),
(124,465,o),
(161,474,o),
(208,474,cs),
(286,474,o),
(346,445,o),
(346,314,cs),
(346,254,l)
);
}
);
userData = {
com.hugojourdan.ColorFlow = {
"0" = 0;
"1" = 0;
"10" = 0;
"11" = 0;
"2" = 0;
"3" = 0;
"4" = 0;
"5" = 0;
"6" = 0;
"7" = 0;
"8" = 0;
"9" = 0;
};
};
vertWidth = 750;
width = 764;
},
{
anchors = (
{
name = bottom;
pos = (333,2);
},
{
name = top;
pos = (213,500);
}
);
background = {
shapes = (
{
closed = 1;
nodes = (
(597,-10,o),
(654,22,o),
(695,81,c),
(661,121,l),
(628,92,o),
(587,75,o),
(536,75,cs),
(427,75,o),
(373,144,o),
(373,251,cs,{
name = "🧨";
}),
(373,354,o),
(423,425,o),
(514,425,cs),
(598,425,o),
(644,362,o),
(647,268,c),
(674,300,l),
(359,300,l),
(359,232,l),
(701,232,l,{
name = "🧨";
}),
(709,421,o),
(625,510,o),
(515,510,cs),
(408,510,o),
(321,427,o),
(321,253,cs,{
name = "🧨";
}),
(321,73,o),
(412,-10,o),
(526,-10,cs)
);
},
{
closed = 1;
nodes = (
(271,-11,o),
(319,42,o),
(337,122,c),
(353,122,l),
(332,181,l),
(310,102,o),
(273,69,o),
(191,69,cs),
(127,69,o),
(93,90,o),
(93,132,cs),
(93,193,o),
(167,221,o),
(341,221,c),
(341,291,l,{
name = "🧨";
}),
(207,291,o),
(41,269,o),
(41,118,cs),
(41,20,o),
(111,-11,o),
(180,-11,cs)
);
},
{
closed = 1;
nodes = (
(372,251,l),
(372,306,ls),
(372,417,o),
(352,510,o),
(217,510,cs),
(144,510,o),
(87,483,o),
(49,426,c),
(40,348,l),
(88,341,l),
(117,408,l),
(106,390,l),
(132,415,o),
(165,430,o),
(212,430,cs),
(298,430,o),
(321,381,o),
(321,307,cs),
(321,251,l,{
name = "🔥";
})
);
}
);
};
layerId = "7F56E5C1-F146-4434-90E4-DA1B70285074";
shapes = (
{
closed = 1;
nodes = (
(597,-10,o),
(654,22,o),
(695,81,c),
(661,121,l),
(628,92,o),
(587,75,o),
(536,75,cs),
(427,75,o),
(373,144,o),
(373,251,cs,{
name = "🧨";
}),
(373,354,o),
(423,425,o),
(514,425,cs),
(598,425,o),
(644,362,o),
(647,268,c),
(674,300,l),
(359,300,l),
(359,232,l),
(701,232,l,{
name = "🧨";
}),
(709,421,o),
(625,510,o),
(515,510,cs),
(408,510,o),
(321,427,o),
(321,253,cs,{
name = "🧨";
}),
(321,73,o),
(412,-10,o),
(526,-10,cs)
);
},
{
closed = 1;
nodes = (
(271,-11,o),
(319,42,o),
(337,122,c),
(353,122,l),
(332,181,l),
(310,102,o),
(273,69,o),
(191,69,cs),
(127,69,o),
(93,90,o),
(93,132,cs),
(93,193,o),
(167,221,o),
(341,221,c),
(341,291,l,{
name = "🧨";
}),
(207,291,o),
(41,269,o),
(41,118,cs),
(41,20,o),
(111,-11,o),
(180,-11,cs)
);
},
{
closed = 1;
nodes = (
(370,251,l),
(370,306,ls),
(370,418,o),
(350,510,o),
(216,510,cs),
(148,510,o),
(95,486,o),
(59,453,c),
(50,355,l),
(98,348,l),
(141,461,l),
(95,410,l),
(133,422,o),
(166,430,o),
(204,430,cs),
(298,430,o),
(321,384,o),
(321,307,cs),
(321,251,l)
);
}
);
userData = {
com.hugojourdan.ColorFlow = {
"0" = 0;
"1" = 0;
"10" = 0;
"11" = 0;
"2" = 0;
"3" = 0;
"4" = 0;
"5" = 0;
"6" = 0;
"7" = 0;
"8" = 0;
"9" = 0;
};
};
width = 746;
},
{
anchors = (
{
name = bottom;
pos = (322,2);
},
{
name = top;
pos = (223,500);
}
);
layerId = "3CA830F5-1E41-4F35-86DC-34C8110F5ED1";
shapes = (
{
closed = 1;
nodes = (
(587,-10,o),
(644,28,o),
(695,97,c),
(631,169,l),
(598,142,o),
(555,130,o),
(510,130,cs),
(420,130,o),
(392,178,o),
(392,248,cs),
(392,326,o),
(426,375,o),
(499,375,cs),
(560,375,o),
(596,337,o),
(597,250,c),
(653,296,l),
(348,296,l),
(348,216,l),
(700,216,l,{
name = "🧨";
}),
(718,431,o),
(622,520,o),
(508,520,cs),
(393,520,o),
(300,435,o),
(300,249,cs,{
name = "🧨";
}),
(300,73,o),
(384,-10,o),
(505,-10,cs)
);
},
{
closed = 1;
nodes = (
(245,-11,o),
(301,19,o),
(317,115,c),
(325,115,l),
(310,169,l),
(278,141,o),
(247,124,o),
(199,124,cs),
(154,124,o),
(142,138,o),
(142,157,cs),
(142,197,o),
(194,211,o),
(322,211,c),
(322,291,l,{
name = "🧨";
}),
(190,291,o),
(30,269,o),
(30,117,cs),
(30,24,o),
(90,-11,o),
(170,-11,cs)
);
},
{
closed = 1;
nodes = (
(385,254,l),
(385,316,ls),
(385,427,o),
(362,520,o),
(220,520,cs),
(143,520,o),
(90,493,o),
(58,456,c),
(39,328,l),
(127,312,l),
(166,425,l),
(117,344,l),
(141,365,o),
(168,376,o),
(213,376,cs),
(284,376,o),
(300,349,o),
(300,307,cs),
(300,254,l)
);
}
);
userData = {
com.hugojourdan.ColorFlow = {
"0" = 0;
"1" = 0;
"10" = 0;
"11" = 0;
"2" = 0;
"3" = 0;
"4" = 0;
"5" = 0;
"6" = 0;
"7" = 0;
"8" = 0;
"9" = 0;
};
};
width = 730;
}
);
metricLeft = a;
metricRight = e;
unicode = 230;
},
{
glyphname = b;
kernLeft = KO_b;
kernRight = KO_b;
lastChange = "2025-01-06 07:55:01 +0000";
layers = (
{
background = {
shapes = (
{
closed = 1;
nodes = (
(401,-5,o),
(469,73,o),
(469,250,cs),
(469,418,o),
(406,500,o),
(286,500,cs),
(202,500,o),
(132,458,o),
(92,375,c),
(102,368,l,{
name = "🧨";
}),
(137,435,o),
(202,475,o),
(282,475,cs),
(408,475,o),
(453,379,o),
(453,250,cs),
(453,105,o),
(398,20,o),
(284,20,cs),
(199,20,o),
(138,68,o),
(103,174,c,{
name = "🧨";
}),
(103,123,l),
(109,123,l),
(142,55,o),
(179,-5,o),
(283,-5,cs)
);
},
{
closed = 1;
nodes = (
(102,0,l),
(103,123,l,{
name = "🔥";
}),
(103,687,l),
(114,748,l),
(105,755,l),
(20,712,l),
(20,697,l),
(88,687,l),
(88,0,l)
);
}
);
};
layerId = master01;
shapes = (
{
closed = 1;
nodes = (
(401,-5,o),
(469,73,o),
(469,250,cs),
(469,418,o),
(406,500,o),
(286,500,cs),
(202,500,o),
(132,458,o),
(92,375,c),
(99,363,l,{
name = "🧨";
}),
(135,433,o),
(201,475,o),
(282,475,cs),
(408,475,o),
(453,379,o),
(453,250,cs),
(453,105,o),
(398,20,o),
(284,20,cs),
(196,20,o),
(133,71,o),
(98,190,c,{
name = "🧨";
}),
(96,123,l),
(109,123,l),
(142,55,o),
(179,-5,o),
(283,-5,cs)
);
},
{
closed = 1;
nodes = (
(102,0,l),
(103,126,l,{
name = "🧨";
}),
(103,687,l),
(114,748,l),
(105,755,l),
(20,712,l),
(20,697,l),
(88,687,l),
(88,0,l)
);
}
);
userData = {
com.hugojourdan.ColorFlow = {
"0" = 0;
"1" = 0;
"10" = 0;
"11" = 0;
"2" = 0;
"3" = 0;
"4" = 0;
"5" = 0;
"6" = 0;
"7" = 0;
"8" = 0;
"9" = 0;
};
};
vertWidth = 750;
width = 523;
},
{
background = {
shapes = (
{
closed = 1;
nodes = (
(402,-10,o),
(494,69,o),
(494,254,cs),
(494,423,o),
(417,510,o),
(299,510,cs),
(208,510,o),
(143,460,o),
(119,346,c),
(146,333,l,{
name = "🧨";
}),
(172,401,o),
(228,425,o),
(290,425,cs),
(399,425,o),
(437,347,o),
(437,250,cs),
(437,135,o),
(383,75,o),
(287,75,cs),
(219,75,o),
(170,106,o),
(147,174,c,{
name = "🧨";
}),
(147,93,l),
(153,93,l),
(170,49,o),
(207,-10,o),
(296,-10,cs)
);
},
{
closed = 1;
nodes = (
(127,0,l),
(147,93,l,{
name = "🔥";
}),
(147,647,l),
(168,748,l),
(142,760,l),
(25,712,l),
(25,657,l),
(92,647,l),
(92,0,l)
);
}
);
};
layerId = "7F56E5C1-F146-4434-90E4-DA1B70285074";
shapes = (
{
closed = 1;
nodes = (
(402,-10,o),
(494,69,o),
(494,254,cs),
(494,423,o),
(417,510,o),
(299,510,cs),
(205,510,o),
(141,457,o),
(114,336,c),
(141,320,l,{
name = "🧨";
}),
(168,402,o),
(227,425,o),
(288,425,cs),
(400,425,o),
(437,346,o),
(437,250,cs),
(437,135,o),
(383,75,o),
(287,75,cs),
(215,75,o),
(163,107,o),
(139,197,c,{
name = "🧨";
}),
(137,93,l),
(153,93,l),
(170,49,o),
(207,-10,o),
(296,-10,cs)
);
},
{
closed = 1;
nodes = (
(127,0,l),
(147,97,l,{
name = "🧨";
}),
(147,647,l),
(168,748,l),
(142,760,l),
(25,712,l),
(25,657,l),
(92,647,l),
(92,0,l)
);
}
);
userData = {
com.hugojourdan.ColorFlow = {
"0" = 0;
"1" = 0;
"10" = 0;
"11" = 0;
"2" = 0;
"3" = 0;
"4" = 0;
"5" = 0;
"6" = 0;
"7" = 0;
"8" = 0;
"9" = 0;
};
};
vertWidth = 750;
width = 534;
},
{
background = {
shapes = (
{
closed = 1;
nodes = (
(441,-9,o),
(509,98,o),
(509,266,cs),
(509,444,o),
(433,520,o),
(324,520,cs),
(226,520,o),
(167,458,o),
(134,321,c),
(181,294,l,{
name = "🧨";
}),
(207,351,o),
(245,365,o),
(291,365,cs),
(363,365,o),
(402,327,o),
(402,259,cs),
(402,192,o),
(364,146,o),
(291,146,cs),
(245,146,o),
(208,164,o),
(182,204,c,{
name = "🧨";
}),
(182,103,l),
(193,103,l),
(202,36,o),
(243,-9,o),
(321,-9,cs)
);
},
{
closed = 1;
nodes = (
(152,0,l),
(182,103,l,{
name = "🔥";
}),
(182,567,l),
(203,748,l),
(137,760,l),
(10,712,l),
(10,577,l),
(77,567,l),
(77,0,l)
);
}
);
};
layerId = "3CA830F5-1E41-4F35-86DC-34C8110F5ED1";
shapes = (
{
closed = 1;
nodes = (
(441,-9,o),
(509,98,o),
(509,266,cs),
(509,444,o),
(433,520,o),
(324,520,cs),
(224,520,o),
(165,455,o),
(131,311,c),
(172,274,l,{
name = "🧨";
}),
(201,350,o),
(241,365,o),
(291,365,cs),
(363,365,o),
(402,327,o),
(402,259,cs),
(402,192,o),
(364,146,o),
(291,146,cs),
(241,146,o),
(197,167,o),
(173,224,c,{
name = "🧨";
}),
(172,103,l),
(193,103,l),
(202,36,o),
(243,-9,o),
(321,-9,cs)
);
},
{
closed = 1;
nodes = (
(152,0,l),
(182,106,l,{
name = "🧨";
}),
(182,567,l),
(203,748,l),
(137,760,l),
(10,712,l),
(10,577,l),
(77,567,l),
(77,0,l)
);
}
);
userData = {
com.hugojourdan.ColorFlow = {
"0" = 0;
"1" = 0;
"10" = 0;
"11" = 0;
"2" = 0;
"3" = 0;
"4" = 0;
"5" = 0;
"6" = 0;
"7" = 0;
"8" = 0;
"9" = 0;
};
};
vertWidth = 750;
width = 539;
},
{
associatedMasterId = "3CA830F5-1E41-4F35-86DC-34C8110F5ED1";
background = {
shapes = (
{
closed = 1;
nodes = (
(489,-9,o),
(554,91,o),
(554,252,cs),
(554,436,o),
(470,520,o),
(349,520,cs),
(250,520,o),
(188,462,o),
(154,335,c),
(201,308,l),
(222,351,o),
(274,365,o),
(324,365,cs),
(414,365,o),
(447,313,o),
(447,250,cs),
(447,181,o),
(409,146,o),
(326,146,cs),
(274,146,o),
(234,159,o),
(202,214,c),
(202,123,l),
(213,123,l),
(234,52,o),
(266,-9,o),
(361,-9,cs)
);
},
{
closed = 1;
nodes = (
(202,0,l),
(202,567,l),
(223,748,l),
(157,760,l),
(30,712,l),
(30,577,l),
(97,567,l),
(97,163,l),
(30,130,l),
(30,0,l)
);
}
);
};
layerId = "43C0CAFB-6FDF-4DA6-BA4E-2FAF39951554";
name = "29 Jan 23 17.14";
shapes = (
{
closed = 1;
nodes = (
(465,-9,o),
(534,92,o),
(534,261,cs),
(534,438,o),
(458,520,o),
(347,520,cs),
(250,520,o),
(188,458,o),
(154,321,c),
(201,294,l),
(228,351,o),
(268,365,o),
(316,365,cs),
(397,365,o),
(427,325,o),
(427,258,cs),
(427,190,o),
(397,146,o),
(320,146,cs),
(267,146,o),
(229,167,o),
(202,214,c),
(202,123,l),
(213,123,l),
(223,44,o),
(264,-9,o),
(349,-9,cs)
);
},
{
closed = 1;
nodes = (
(202,0,l),
(202,567,l),
(223,748,l),
(157,760,l),
(30,712,l),
(30,577,l),
(97,567,l),
(97,163,l),
(30,130,l),
(30,0,l)
);
}
);
vertWidth = 750;
width = 564;
},
{
associatedMasterId = "7F56E5C1-F146-4434-90E4-DA1B70285074";
layerId = "FD5A5494-871C-4E2A-9B8B-397F129F27E7";
name = "29 Jan 23 17.15";
shapes = (
{
closed = 1;
nodes = (
(432,-10,o),
(524,73,o),
(524,253,cs),
(524,427,o),
(438,510,o),
(317,510,cs),
(226,510,o),
(154,463,o),
(129,366,c),
(156,353,l),
(182,398,o),
(240,425,o),
(309,425,cs),
(422,425,o),
(467,350,o),
(467,250,cs),
(467,140,o),
(412,75,o),
(314,75,cs),
(238,75,o),
(183,115,o),
(157,204,c),
(157,123,l),
(163,123,l),
(187,52,o),
(225,-10,o),
(320,-10,cs)
);
},
{
closed = 1;
nodes = (
(137,0,l),
(157,123,l),
(157,647,l),
(178,748,l),
(152,760,l),
(35,712,l),
(35,657,l),
(102,647,l),
(102,0,l)
);
}
);
vertWidth = 750;
width = 569;
}
);
metricRight = o;
unicode = 98;
userData = {
KernOnName = b;
};
},
{
glyphname = c;
kernLeft = KO_o;
kernRight = KO_c;
lastChange = "2025-01-13 04:25:43 +0000";
layers = (
{
anchors = (
{
name = cedilla;
pos = (248,0);
},
{
name = top;
pos = (265,500);
}
);
background = {
shapes = (
{
closed = 1;
nodes = (
(332,-5,o),
(398,34,o),
(432,112,c),
(420,118,l),
(389,48,o),
(326,20,o),
(256,20,cs),
(130,20,o),
(71,111,o),
(71,249,cs),
(71,384,o),
(128,475,o),
(265,475,cs),
(321,475,o),
(364,459,o),
(393,434,c),
(387,447,l),
(378,465,l),
(405,344,l),
(423,346,l),
(413,451,l),
(375,485,o),
(318,500,o),
(265,500,cs),
(142,500,o),
(54,421,o),
(54,249,cs),
(54,76,o),
(141,-5,o),
(254,-5,cs)
);
}
);
};
layerId = master01;
shapes = (
{
closed = 1;
nodes = (
(325,-5,o),
(384,25,o),
(418,78,c),
(408,85,l),
(377,42,o),
(321,20,o),
(258,20,cs),
(131,20,o),
(71,111,o),
(71,249,cs),
(71,384,o),
(128,475,o),
(265,475,cs),
(321,475,o),
(364,459,o),
(393,434,c),
(387,447,l),
(368,465,l),
(405,344,l),
(423,346,l),
(413,451,l),
(375,485,o),
(318,500,o),
(265,500,cs),
(142,500,o),
(54,421,o),
(54,249,cs),
(54,76,o),
(142,-5,o),
(256,-5,cs)
);
}
);
userData = {
com.hugojourdan.ColorFlow = {
"0" = 0;
"1" = 0;
"10" = 0;
"11" = 0;
"2" = 0;
"3" = 0;
"4" = 0;
"5" = 0;
"6" = 0;
"7" = 0;
"8" = 0;
"9" = 0;
};
com.typemytype.robofont.guides = (
{
isGlobal = 0;
magnetic = 5;
x = 0;
y = -213;
}
);
};
vertWidth = 750;
width = 472;
},
{
anchors = (
{
name = cedilla;
pos = (253,0);
},
{
name = top;
pos = (258,500);
}
);
layerId = "7F56E5C1-F146-4434-90E4-DA1B70285074";
shapes = (
{
closed = 1;
nodes = (
(325,-10,o),
(385,18,o),
(432,81,c),
(398,121,l),
(364,92,o),
(317,75,o),
(261,75,cs),
(148,75,o),
(97,140,o),
(97,245,cs),
(97,350,o),
(149,425,o),
(255,425,cs),
(313,425,o),
(355,403,o),
(380,366,c),
(360,396,l),
(341,425,l),
(379,341,l),
(427,348,l),
(418,456,l),
(380,493,o),
(323,510,o),
(264,510,cs),
(136,510,o),
(40,422,o),
(40,245,cs),
(40,68,o),
(134,-10,o),
(255,-10,cs)
);
}
);
userData = {
com.hugojourdan.ColorFlow = {
"0" = 0;
"1" = 0;
"10" = 0;
"11" = 0;
"2" = 0;
"3" = 0;
"4" = 0;
"5" = 0;
"6" = 0;
"7" = 0;
"8" = 0;
"9" = 0;
};
com.typemytype.robofont.guides = (
{
isGlobal = 0;
magnetic = 5;
x = 0;
y = -213;
}
);
};
width = 467;
},
{
anchors = (
{
name = cedilla;
pos = (244,0);
},
{
name = top;
pos = (249,500);
}
);
background = {
shapes = (
{
closed = 1;
nodes = (
(336,-10,o),
(403,24,o),
(455,97,c),
(391,184,l),
(354,154,o),
(307,145,o),
(263,145,cs),
(174,145,o),
(137,187,o),
(137,253,cs),
(137,319,o),
(173,365,o),
(257,365,cs),
(300,365,o),
(336,353,o),
(357,333,c),
(347,370,l),
(296,400,l),
(340,290,l),
(428,311,l),
(409,466,l),
(371,503,o),
(314,520,o),
(255,520,cs),
(126,520,o),
(30,434,o),
(30,253,cs),
(30,73,o),
(124,-10,o),
(254,-10,cs)
);
}
);
};
layerId = "3CA830F5-1E41-4F35-86DC-34C8110F5ED1";
shapes = (
{
closed = 1;
nodes = (
(325,-10,o),
(393,24,o),
(445,97,c),
(377,181,l),
(341,153,o),
(295,145,o),
(257,145,cs),
(171,145,o),
(137,188,o),
(137,253,cs),
(137,320,o),
(173,365,o),
(257,365,cs),
(300,365,o),
(336,353,o),
(357,333,c),
(347,370,l),
(296,400,l),
(340,290,l),
(428,311,l),
(409,479,l),
(371,507,o),
(315,520,o),
(264,520,cs),
(127,520,o),
(30,425,o),
(30,250,cs),
(30,83,o),
(119,-10,o),
(247,-10,cs)
);
}
);
userData = {
com.hugojourdan.ColorFlow = {
"0" = 0;
"1" = 0;
"10" = 0;
"11" = 0;
"2" = 0;
"3" = 0;
"4" = 0;
"5" = 0;
"6" = 0;
"7" = 0;
"8" = 0;
"9" = 0;
};
com.typemytype.robofont.guides = (
{
isGlobal = 0;
magnetic = 5;
x = 0;
y = -213;
}
);
};
width = 465;
},
{
anchors = (
{
name = cedilla;
pos = (244,0);
},
{
name = top;
pos = (249,500);
}
);
associatedMasterId = "3CA830F5-1E41-4F35-86DC-34C8110F5ED1";
layerId = "E8D8F661-E0BC-463A-AB2D-EF7279C649EB";
name = "26 Jan 23 17.54";
shapes = (
{
closed = 1;
nodes = (
(336,-10,o),
(403,24,o),
(455,97,c),
(391,184,l),
(354,154,o),
(307,145,o),
(263,145,cs),
(174,145,o),
(137,187,o),
(137,253,cs),
(137,319,o),
(173,365,o),
(251,365,cs),
(309,365,o),
(354,343,o),
(381,306,c),
(384,334,l),
(296,400,l),
(340,290,l),
(428,311,l),
(409,466,l),
(371,503,o),
(314,520,o),
(255,520,cs),
(126,520,o),
(30,434,o),
(30,253,cs),
(30,73,o),
(124,-10,o),
(254,-10,cs)
);
}
);
userData = {
com.typemytype.robofont.guides = (
{
isGlobal = 0;
magnetic = 5;
x = 0;
y = -213;
}
);
};
width = 485;
},
{
anchors = (
{
name = cedilla;
pos = (244,0);
},
{
name = top;
pos = (249,500);
}
);
associatedMasterId = "3CA830F5-1E41-4F35-86DC-34C8110F5ED1";
background = {
shapes = (
{
closed = 1;
nodes = (
(336,-10,o),
(403,24,o),
(455,97,c),
(391,184,l),
(354,154,o),
(307,145,o),
(263,145,cs),
(174,145,o),
(137,187,o),
(137,253,cs),
(137,319,o),
(173,365,o),
(251,365,cs),
(309,365,o),
(354,343,o),
(381,306,c),
(384,334,l),
(296,400,l),
(340,290,l),
(428,311,l),
(409,466,l),
(371,503,o),
(314,520,o),
(255,520,cs),
(126,520,o),
(30,434,o),
(30,253,cs),
(30,73,o),
(124,-10,o),
(254,-10,cs)
);
}
);
};
layerId = "5E837601-8DD6-4184-8516-7876B878E768";
name = "29 Jan 23 16.27";
shapes = (
{
closed = 1;
nodes = (
(336,-10,o),
(403,24,o),
(455,97,c),
(391,184,l),
(354,154,o),
(307,145,o),
(263,145,cs),
(174,145,o),
(137,187,o),
(137,253,cs),
(137,319,o),
(173,365,o),
(257,365,cs),
(300,365,o),
(336,353,o),
(357,333,c),
(347,370,l),
(296,400,l),
(340,290,l),
(428,311,l),
(409,466,l),
(371,503,o),
(314,520,o),
(255,520,cs),
(126,520,o),
(30,434,o),
(30,253,cs),
(30,73,o),
(124,-10,o),
(254,-10,cs)
);
}
);
userData = {
com.typemytype.robofont.guides = (
{
isGlobal = 0;
magnetic = 5;
x = 0;
y = -213;
}
);
};
width = 485;
}
);
metricLeft = o;
unicode = 99;
userData = {
KernOnName = c;
};
},
{
glyphname = d;
kernLeft = KO_o;
kernRight = KO_d;
lastChange = "2025-01-06 08:54:52 +0000";
layers = (
{
anchors = (
{
name = bottom;
pos = (263,0);
},
{
name = center;
pos = (263,495);
},
{
name = top;
pos = (263,750);
},
{
name = topright;
pos = (444,495);
}
);
background = {
shapes = (
{
closed = 1;
nodes = (
(342,-5,o),
(390,56,o),
(414,123,c,{
name = sh02;
}),
(420,123,l,{
name = "🧨";
}),
(420,204,l,{
name = "🧨";
}),
(393,50,o),
(319,20,o),
(248,20,cs,{
name = dv02;
}),
(117,20,o),
(71,121,o),
(71,247,cs,{
name = sh05;
}),
(71,393,o),
(133,475,o),
(254,475,cs,{
name = dv03;
}),
(343,475,o),
(397,427,o),
(421,348,c,{
name = "🧨";
}),
(432,352,l),
(409,452,o),
(341,500,o),
(254,500,cs,{
name = dv04;
}),
(138,500,o),
(54,421,o),
(54,249,cs,{
name = sh03;
}),
(54,79,o),
(136,-5,o),
(247,-5,cs,{
name = dv01;
})
);
},
{
closed = 1;
nodes = (
(497,15,l),
(497,30,l),
(435,40,l,{
name = sh07;
}),
(435,697,l),
(447,758,l),
(438,765,l),
(348,722,l),
(348,707,l),
(420,697,l),
(420,40,l),
(409,6,l),
(419,-2,l)
);
}
);
};
layerId = master01;
shapes = (
{
closed = 1;
nodes = (
(342,-5,o),
(390,56,o),
(414,123,c,{
name = sh02;
}),
(428,123,l,{
name = "🧨";
}),
(424,221,l,{
name = "🧨";
}),
(405,48,o),
(320,20,o),
(250,20,cs,{
name = dv02;
}),
(116,20,o),
(71,122,o),
(71,247,cs,{
name = sh05;
}),
(71,393,o),
(133,475,o),
(254,475,cs,{
name = dv03;
}),
(343,475,o),
(397,427,o),
(423,345,c,{
name = "🧨";
}),
(434,349,l,{
name = "🧨";
}),
(409,452,o),
(341,500,o),
(254,500,cs,{
name = dv04;
}),
(138,500,o),
(54,421,o),
(54,249,cs,{
name = sh03;
}),
(54,79,o),
(136,-5,o),
(247,-5,cs,{
name = dv01;
})
);
},
{
closed = 1;
nodes = (
(497,15,l),
(497,30,l),
(435,50,l,{
name = sh07;
}),
(435,697,l),
(447,758,l),
(438,765,l),
(348,722,l),
(348,707,l),
(420,697,l),
(420,127,l),
(414,6,l),
(424,-2,l)
);
}
);
userData = {
com.hugojourdan.ColorFlow = {
"0" = 0;
"1" = 0;
"10" = 0;
"11" = 0;
"2" = 0;
"3" = 0;
"4" = 0;
"5" = 0;
"6" = 0;
"7" = 0;
"8" = 0;
"9" = 0;
};
};
vertWidth = 750;
width = 536;
},
{
anchors = (
{
name = bottom;
pos = (253,0);
},
{
name = center;
pos = (253,500);
},
{
name = top;
pos = (253,750);
},
{
name = topright;
pos = (457,500);
}
);
background = {
shapes = (
{
closed = 1;
nodes = (
(318,-10,o),
(357,52,o),
(381,123,c,{
name = sh02;
}),
(387,123,l,{
name = ah01;
}),
(387,204,l,{
name = sh01;
}),
(360,96,o),
(296,75,o),
(235,75,cs,{
name = dv02;
}),
(122,75,o),
(77,145,o),
(77,250,cs,{
name = sh05;
}),
(77,355,o),
(122,425,o),
(235,425,cs,{
name = dv03;
}),
(304,425,o),
(362,398,o),
(388,353,c,{
name = sh04;
}),
(415,366,l),
(390,463,o),
(328,510,o),
(237,510,cs,{
name = dv04;
}),
(116,510,o),
(20,427,o),
(20,248,cs,{
name = sh03;
}),
(20,73,o),
(111,-10,o),
(222,-10,cs,{
name = dv01;
})
);
},
{
closed = 1;
nodes = (
(509,35,l),
(509,90,l),
(442,100,l,{
name = sh07;
}),
(442,740,l,{
name = sh09;
}),
(387,696,l),
(387,100,l),
(366,5,l),
(392,-7,l,{
name = sh06;
})
);
},
{
closed = 1;
nodes = (
(442,652,l),
(442,750,l),
(404,760,l),
(300,712,l),
(300,662,l),
(387,652,l,{
name = sh08;
})
);
}
);
};
layerId = "7F56E5C1-F146-4434-90E4-DA1B70285074";
shapes = (
{
closed = 1;
nodes = (
(320,-10,o),
(360,48,o),
(377,123,c,{
name = sh02;
}),
(391,123,l,{
name = "🧨";
}),
(390,220,l,{
name = "🧨";
}),
(362,102,o),
(303,75,o),
(241,75,cs,{
name = dv02;
}),
(140,75,o),
(97,145,o),
(97,251,cs,{
name = sh05;
}),
(97,355,o),
(139,425,o),
(245,425,cs,{
name = dv03;
}),
(309,425,o),
(364,398,o),
(389,352,c,{
name = "🧨";
}),
(416,365,l),
(391,463,o),
(334,510,o),
(245,510,cs,{
name = dv04;
}),
(126,510,o),
(40,424,o),
(40,247,cs,{
name = sh03;
}),
(40,70,o),
(126,-10,o),
(232,-10,cs,{
name = dv01;
})
);
},
{
closed = 1;
nodes = (
(509,35,l),
(509,90,l),
(442,100,l,{
name = sh07;
}),
(442,647,l),
(463,748,l),
(437,760,l),
(310,712,l),
(310,657,l),
(387,647,l),
(387,133,l),
(371,5,l),
(397,-7,l,{
name = sh06;
})
);
}
);
userData = {
com.hugojourdan.ColorFlow = {
"0" = 0;
"1" = 0;
"10" = 0;
"11" = 0;
"2" = 0;
"3" = 0;
"4" = 0;
"5" = 0;
"6" = 0;
"7" = 0;
"8" = 0;
"9" = 0;
};
};
width = 536;
},
{
anchors = (
{
name = bottom;
pos = (277,0);
},
{
name = center;
pos = (277,510);
},
{
name = top;
pos = (277,750);
},
{
name = topright;
pos = (486,510);
}
);
background = {
shapes = (
{
pos = (571,0);
ref = p;
scale = (-1,1);
}
);
};
layerId = "3CA830F5-1E41-4F35-86DC-34C8110F5ED1";
shapes = (
{
closed = 1;
nodes = (
(304,-10,o),
(332,52,o),
(351,123,c),
(369,123,l,{
name = "🧨";
}),
(367,217,l,{
name = "🧨";
}),
(335,159,o),
(287,145,o),
(245,145,cs),
(176,145,o),
(137,183,o),
(137,257,cs),
(137,317,o),
(163,365,o),
(244,365,cs),
(286,365,o),
(342,352,o),
(363,308,c,{
name = "🧨";
}),
(410,335,l),
(378,453,o),
(327,520,o),
(225,520,cs),
(112,520,o),
(30,436,o),
(30,253,cs),
(30,88,o),
(94,-10,o),
(212,-10,cs)
);
},
{
closed = 1;
nodes = (
(534,15,l),
(534,130,l),
(467,140,l,{
name = sh07;
}),
(467,567,l),
(488,748,l),
(432,760,l),
(288,712,l),
(288,577,l),
(362,567,l),
(362,100,l),
(341,6,l),
(397,-6,l,{
name = sh06;
})
);
}
);
userData = {
com.hugojourdan.ColorFlow = {
"0" = 0;
"1" = 0;
"10" = 0;
"11" = 0;
"2" = 0;
"3" = 0;
"4" = 0;
"5" = 0;
"6" = 0;
"7" = 0;
"8" = 0;
"9" = 0;
};
};
width = 554;
},
{
associatedMasterId = "7F56E5C1-F146-4434-90E4-DA1B70285074";
layerId = "D632BF32-58DB-4F7B-8293-8C0700931742";
name = "Apr 18 19, 10:22";
shapes = (
{
closed = 1;
nodes = (
(360,-10,o),
(404,52,o),
(431,123,c,{
name = sh02;
}),
(417,204,l,{
name = sh01;
}),
(390,96,o),
(326,75,o),
(265,75,cs,{
name = dv02;
}),
(152,75,o),
(107,145,o),
(107,250,cs,{
name = sh05;
}),
(107,355,o),
(152,425,o),
(265,425,cs,{
name = dv03;
}),
(334,425,o),
(392,398,o),
(418,353,c,{
name = sh04;
}),
(445,366,l),
(420,463,o),
(358,510,o),
(267,510,cs,{
name = dv04;
}),
(146,510,o),
(50,427,o),
(50,248,cs,{
name = sh03;
}),
(50,73,o),
(141,-10,o),
(252,-10,cs,{
name = dv01;
})
);
},
{
closed = 1;
nodes = (
(539,35,l),
(539,90,l),
(472,100,l,{
name = sh07;
}),
(472,740,l,{
name = sh09;
}),
(417,696,l),
(417,5,l),
(443,-7,l,{
name = sh06;
})
);
},
{
closed = 1;
nodes = (
(472,652,l),
(472,750,l),
(434,760,l),
(330,712,l),
(330,662,l),
(417,652,l,{
name = sh08;
})
);
}
);
width = 564;
},
{
associatedMasterId = "7F56E5C1-F146-4434-90E4-DA1B70285074";
layerId = "8F70A06D-98FD-4071-84BE-2B26072AE208";
name = "Jun 7 19, 18:55";
shapes = (
{
closed = 1;
nodes = (
(475,652,l),
(495,750,l),
(459,760,l),
(345,712,l),
(335,662,l),
(420,652,l,{
name = sh08;
})
);
},
{
closed = 1;
nodes = (
(227,-10,o),
(268,52,o),
(301,123,c,{
name = sh02;
}),
(307,123,l,{
name = ah01;
}),
(325,204,l,{
name = sh01;
}),
(277,97,o),
(226,75,o),
(182,75,cs,{
name = dv02;
}),
(115,75,o),
(92,123,o),
(92,194,cs,{
name = sh05;
}),
(92,332,o),
(177,425,o),
(273,425,cs,{
name = dv03;
}),
(318,425,o),
(355,405,o),
(370,373,c,{
name = sh04;
}),
(404,432,l),
(390,478,o),
(347,510,o),
(287,510,cs,{
name = dv04;
}),
(158,510,o),
(35,359,o),
(35,169,cs,{
name = sh03;
}),
(35,58,o),
(79,-10,o),
(155,-10,cs,{
name = dv01;
})
);
},
{
closed = 1;
nodes = (
(428,696,l),
(302,100,l),
(284,0,l),
(315,-7,l),
(419,35,l),
(419,81,l),
(357,100,l),
(492,740,l)
);
}
);
width = 520;
}
);
metricLeft = o;
metricRight = a;
unicode = 100;
userData = {
KernOnName = d;
};
},
{
glyphname = dcroat;
kernLeft = KO_o;
kernRight = KO_d;
lastChange = "2025-01-06 08:54:48 +0000";
layers = (
{
background = {
shapes = (
{
closed = 1;
nodes = (
(347,-5,o),
(386,56,o),
(410,123,c,{
name = sh02;
}),
(416,123,l,{
name = "🧨";
}),
(416,204,l,{
name = "🧨";
}),
(389,50,o),
(324,20,o),
(253,20,cs,{
name = dv02;
}),
(125,20,o),
(71,120,o),
(71,250,cs,{
name = sh05;
}),
(71,393,o),
(141,475,o),
(259,475,cs,{
name = dv03;
}),
(348,475,o),
(393,427,o),
(417,348,c,{
name = "🧨";
}),
(428,352,l),
(405,452,o),
(346,500,o),
(259,500,cs,{
name = dv04;
}),
(145,500,o),
(54,421,o),
(54,250,cs,{
name = sh03;
}),
(54,78,o),
(143,-5,o),
(253,-5,cs,{
name = dv01;
})
);
},
{
closed = 1;
nodes = (
(493,15,l),
(493,30,l),
(431,40,l,{
name = sh07;
}),
(431,745,l,{
name = "🧨";
}),
(416,717,l,{
name = sh08;
}),
(416,40,l),
(405,6,l),
(415,-2,l)
);
},
{
closed = 1;
nodes = (
(431,709,l,{
name = "🧨";
}),
(431,755,l),
(420,760,l),
(337,732,l),
(337,718,l),
(416,709,l,{
name = "🧨";
})
);
},
{
pos = (-1,0);
ref = strokeshortcomb;
}
);
};
layerId = master01;
shapes = (
{
closed = 1;
nodes = (
(342,-5,o),
(390,56,o),
(414,123,c,{
name = sh02;
}),
(423,123,l,{
name = "🧨";
}),
(422,212,l,{
name = "🧨";
}),
(403,47,o),
(318,20,o),
(249,20,cs,{
name = dv02;
}),
(116,20,o),
(71,122,o),
(71,247,cs,{
name = sh05;
}),
(71,393,o),
(133,475,o),
(254,475,cs,{
name = dv03;
}),
(343,475,o),
(397,427,o),
(421,348,c,{
name = "🧨";
}),
(432,352,l),
(409,452,o),
(341,500,o),
(254,500,cs,{
name = dv04;
}),
(138,500,o),
(54,421,o),
(54,249,cs,{
name = sh03;
}),
(54,79,o),
(136,-5,o),
(247,-5,cs,{
name = dv01;
})
);
},
{
closed = 1;
nodes = (
(497,15,l),
(497,30,l),
(435,50,l,{
name = sh07;
}),
(435,697,l),
(447,758,l),
(438,765,l),
(348,722,l),
(348,707,l),
(420,697,l),
(420,120,l),
(414,6,l),
(424,-2,l)
);
},
{
closed = 1;
nodes = (
(515,586,l),
(523,604,l),
(519,609,l),
(240,609,l),
(231,590,l),
(235,586,l)
);
}
);
userData = {
com.hugojourdan.ColorFlow = {
"0" = 0;
"1" = 0;
"10" = 0;
"11" = 0;
"2" = 0;
"3" = 0;
"4" = 0;
"5" = 0;
"6" = 0;
"7" = 0;
"8" = 0;
"9" = 0;
};
};
width = 537;
},
{
background = {
shapes = (
{
closed = 1;
nodes = (
(322,-10,o),
(359,52,o),
(381,123,c,{
name = sh02;
}),
(391,123,l,{
name = "🧨";
}),
(390,213,l,{
name = "🧨";
}),
(362,96,o),
(302,75,o),
(245,75,cs,{
name = dv02;
}),
(139,75,o),
(97,145,o),
(97,250,cs,{
name = sh05;
}),
(97,355,o),
(139,425,o),
(245,425,cs,{
name = dv03;
}),
(309,425,o),
(364,398,o),
(389,352,c,{
name = "🧨";
}),
(416,365,l),
(391,463,o),
(334,510,o),
(245,510,cs,{
name = dv04;
}),
(126,510,o),
(40,424,o),
(40,247,cs,{
name = sh03;
}),
(40,70,o),
(126,-10,o),
(232,-10,cs,{
name = dv01;
})
);
},
{
closed = 1;
nodes = (
(509,35,l),
(509,90,l),
(442,100,l,{
name = sh07;
}),
(442,647,l),
(463,748,l),
(437,760,l),
(310,712,l),
(310,657,l),
(387,647,l),
(387,100,l),
(366,5,l),
(392,-7,l,{
name = sh06;
})
);
},
{
closed = 1;
nodes = (
(520,553,l),
(544,598,l),
(536,609,l),
(276,609,l),
(252,565,l),
(261,553,l)
);
}
);
};
layerId = "7F56E5C1-F146-4434-90E4-DA1B70285074";
shapes = (
{
closed = 1;
nodes = (
(320,-10,o),
(360,48,o),
(377,123,c,{
name = sh02;
}),
(391,123,l,{
name = "🧨";
}),
(390,220,l,{
name = "🧨";
}),
(362,102,o),
(303,75,o),
(241,75,cs,{
name = dv02;
}),
(140,75,o),
(97,145,o),
(97,251,cs,{
name = sh05;
}),
(97,355,o),
(139,425,o),
(245,425,cs,{
name = dv03;
}),
(309,425,o),
(364,398,o),
(389,352,c,{
name = "🧨";
}),
(416,365,l),
(391,463,o),
(334,510,o),
(245,510,cs,{
name = dv04;
}),
(126,510,o),
(40,424,o),
(40,247,cs,{
name = sh03;
}),
(40,70,o),
(126,-10,o),
(232,-10,cs,{
name = dv01;
})
);
},
{
closed = 1;
nodes = (
(509,35,l),
(509,90,l),
(442,100,l,{
name = sh07;
}),
(442,647,l),
(463,748,l),
(437,760,l),
(310,712,l),
(310,657,l),
(387,647,l),
(387,133,l),
(371,5,l),
(397,-7,l,{
name = sh06;
})
);
},
{
closed = 1;
nodes = (
(520,553,l),
(544,598,l),
(536,609,l),
(276,609,l),
(252,565,l),
(261,553,l)
);
}
);
userData = {
com.hugojourdan.ColorFlow = {
"0" = 0;
"1" = 0;
"10" = 0;
"11" = 0;
"2" = 0;
"3" = 0;
"4" = 0;
"5" = 0;
"6" = 0;
"7" = 0;
"8" = 0;
"9" = 0;
};
};
width = 536;
},
{
background = {
shapes = (
{
closed = 1;
nodes = (
(318,-10,o),
(350,52,o),
(371,123,c),
(382,123,l,{
name = "🧨";
}),
(382,214,l,{
name = "🧨";
}),
(350,158,o),
(310,145,o),
(257,145,cs),
(175,145,o),
(137,180,o),
(137,249,cs),
(137,313,o),
(170,365,o),
(261,365,cs),
(310,365,o),
(362,351,o),
(383,308,c,{
name = "🧨";
}),
(430,335,l),
(396,462,o),
(339,520,o),
(240,520,cs),
(119,520,o),
(30,436,o),
(30,249,cs),
(30,90,o),
(95,-10,o),
(223,-10,cs)
);
},
{
closed = 1;
nodes = (
(544,15,l),
(544,130,l),
(477,140,l,{
name = sh07;
}),
(477,730,l,{
name = "🧨";
}),
(382,696,l),
(382,100,l),
(361,6,l),
(417,-6,l,{
name = sh06;
})
);
},
{
closed = 1;
nodes = (
(477,642,l,{
name = "🧨";
}),
(477,740,l),
(419,760,l),
(295,712,l),
(295,652,l),
(382,642,l,{
name = "🧨";
})
);
},
{
pos = (-5,0);
ref = strokeshortcomb;
}
);
};
layerId = "3CA830F5-1E41-4F35-86DC-34C8110F5ED1";
shapes = (
{
closed = 1;
nodes = (
(304,-10,o),
(332,52,o),
(351,123,c),
(369,123,l,{
name = "🧨";
}),
(367,217,l,{
name = "🧨";
}),
(335,159,o),
(287,145,o),
(245,145,cs),
(176,145,o),
(137,183,o),
(137,257,cs),
(137,317,o),
(163,365,o),
(244,365,cs),
(288,365,o),
(347,351,o),
(369,302,c,{
name = "🧨";
}),
(416,329,l),
(383,451,o),
(330,520,o),
(225,520,cs),
(112,520,o),
(30,436,o),
(30,253,cs),
(30,88,o),
(94,-10,o),
(212,-10,cs)
);
},
{
closed = 1;
nodes = (
(534,15,l),
(534,130,l),
(467,140,l,{
name = sh07;
}),
(467,567,l),
(488,748,l),
(432,760,l),
(288,712,l),
(288,647,l),
(362,637,l),
(362,100,l),
(341,6,l),
(397,-6,l,{
name = sh06;
})
);
},
{
closed = 1;
nodes = (
(535,553,l),
(559,598,l),
(551,609,l),
(291,609,l),
(267,565,l),
(276,553,l)
);
}
);
userData = {
com.hugojourdan.ColorFlow = {
"0" = 0;
"1" = 0;
"10" = 0;
"11" = 0;
"2" = 0;
"3" = 0;
"4" = 0;
"5" = 0;
"6" = 0;
"7" = 0;
"8" = 0;
"9" = 0;
};
};
width = 554;
}
);
metricLeft = o;
unicode = 273;
},
{
glyphname = eth;
kernLeft = KO_egrave;
lastChange = "2025-01-12 13:52:29 +0000";
layers = (
{
background = {
shapes = (
{
closed = 1;
nodes = (
(414,-5,o),
(472,120,o),
(472,311,cs),
(472,560,o),
(373,697,o),
(174,763,c),
(164,741,l),
(320,691,o),
(454,588,o),
(454,303,cs),
(454,146,o),
(414,20,o),
(258,20,cs),
(169,20,o),
(72,62,o),
(72,236,cs),
(72,397,o),
(154,455,o),
(255,455,cs),
(365,455,o),
(423,386,o),
(454,271,c),
(467,274,l),
(465,288,o),
(462,301,o),
(457,317,c),
(451,317,l),
(415,429,o),
(346,480,o),
(255,480,cs),
(128,480,o),
(54,382,o),
(54,236,cs),
(54,83,o),
(135,-5,o),
(262,-5,cs)
);
},
{
closed = 1;
nodes = (
(468,727,l),
(455,746,l),
(202,569,l),
(211,555,l)
);
}
);
};
layerId = master01;
shapes = (
{
closed = 1;
nodes = (
(414,-5,o),
(472,121,o),
(472,308,cs),
(472,559,o),
(366,694,o),
(114,760,c),
(103,747,l),
(104,738,l),
(311,688,o),
(454,587,o),
(454,300,cs),
(454,145,o),
(413,20,o),
(258,20,cs),
(169,20,o),
(72,62,o),
(72,237,cs),
(72,396,o),
(153,455,o),
(259,455,cs),
(364,455,o),
(433,396,o),
(454,271,c),
(467,274,l),
(465,294,o),
(461,312,o),
(455,334,c),
(449,334,l),
(427,430,o),
(357,480,o),
(261,480,cs),
(127,480,o),
(54,382,o),
(54,236,cs),
(54,83,o),
(135,-5,o),
(262,-5,cs)
);
},
{
closed = 1;
nodes = (
(458,736,l),
(445,755,l),
(192,578,l),
(201,564,l)
);
}
);
userData = {
com.hugojourdan.ColorFlow = {
"0" = 0;
"1" = 0;
"10" = 0;
"11" = 0;
"2" = 0;
"3" = 0;
"4" = 0;
"5" = 0;
"6" = 0;
"7" = 0;
"8" = 0;
"9" = 0;
};
};
width = 532;
},
{
background = {
shapes = (
{
closed = 1;
nodes = (
(410,-10,o),
(466,125,o),
(466,322,cs),
(466,479,o),
(430,720,o),
(147,776,c),
(116,701,l),
(363,677,o),
(414,508,o),
(414,317,cs),
(414,159,o),
(379,75,o),
(245,75,cs),
(160,75,o),
(97,112,o),
(97,245,cs),
(97,386,o),
(167,415,o),
(248,415,cs),
(344,415,o),
(386,377,o),
(415,313,c),
(435,328,l),
(431,342,o),
(420,371,o),
(416,379,c),
(407,379,l),
(372,460,o),
(316,500,o),
(238,500,cs),
(115,500,o),
(40,400,o),
(40,244,cs),
(40,85,o),
(118,-10,o),
(251,-10,cs)
);
},
{
closed = 1;
nodes = (
(471,700,l),
(438,757,l),
(186,593,l),
(207,558,l)
);
}
);
};
layerId = "7F56E5C1-F146-4434-90E4-DA1B70285074";
shapes = (
{
closed = 1;
nodes = (
(410,-10,o),
(466,125,o),
(466,322,cs),
(466,473,o),
(425,706,o),
(107,760,c),
(70,720,l),
(76,685,l),
(356,662,o),
(414,500,o),
(414,317,cs),
(414,159,o),
(379,75,o),
(245,75,cs),
(160,75,o),
(97,112,o),
(97,245,cs),
(97,386,o),
(167,415,o),
(248,415,cs),
(344,415,o),
(386,377,o),
(415,313,c),
(435,328,l),
(431,342,o),
(420,371,o),
(416,379,c),
(407,379,l),
(372,460,o),
(316,500,o),
(238,500,cs),
(115,500,o),
(40,400,o),
(40,244,cs),
(40,85,o),
(118,-10,o),
(251,-10,cs)
);
},
{
closed = 1;
nodes = (
(451,701,l),
(418,758,l),
(166,594,l),
(187,559,l)
);
}
);
userData = {
com.hugojourdan.ColorFlow = {
"0" = 0;
"1" = 0;
"10" = 0;
"11" = 0;
"2" = 0;
"3" = 0;
"4" = 0;
"5" = 0;
"6" = 0;
"7" = 0;
"8" = 0;
"9" = 0;
};
};
width = 526;
},
{
background = {
shapes = (
{
closed = 1;
nodes = (
(445,-10,o),
(508,132,o),
(508,328,cs),
(508,552,o),
(426,706,o),
(179,768,c),
(117,647,l),
(320,600,o),
(395,507,o),
(395,324,cs),
(395,200,o),
(361,145,o),
(258,145,cs),
(198,145,o),
(143,164,o),
(143,243,cs),
(143,319,o),
(193,350,o),
(258,350,cs),
(329,350,o),
(370,313,o),
(395,229,c),
(421,246,l),
(414,276,o),
(406,303,o),
(397,326,c),
(383,326,l),
(362,452,o),
(300,498,o),
(222,498,cs),
(106,498,o),
(30,395,o),
(30,243,cs),
(30,82,o),
(115,-10,o),
(261,-10,cs)
);
},
{
closed = 1;
nodes = (
(495,680,l),
(443,759,l),
(189,560,l),
(219,513,l)
);
}
);
};
layerId = "3CA830F5-1E41-4F35-86DC-34C8110F5ED1";
shapes = (
{
closed = 1;
nodes = (
(445,-10,o),
(508,135,o),
(508,323,cs),
(508,552,o),
(414,698,o),
(129,760,c),
(59,701,l),
(67,639,l),
(310,592,o),
(395,502,o),
(395,319,cs),
(395,200,o),
(359,145,o),
(259,145,cs),
(198,145,o),
(143,166,o),
(143,238,cs),
(143,307,o),
(193,330,o),
(256,330,cs),
(329,330,o),
(370,299,o),
(395,229,c),
(421,246,l),
(414,276,o),
(406,303,o),
(397,326,c),
(383,326,l),
(362,437,o),
(300,478,o),
(222,478,cs),
(106,478,o),
(30,385,o),
(30,238,cs),
(30,83,o),
(115,-10,o),
(262,-10,cs)
);
},
{
closed = 1;
nodes = (
(491,682,l),
(443,759,l),
(149,558,l),
(179,511,l)
);
}
);
userData = {
com.hugojourdan.ColorFlow = {
"0" = 0;
"1" = 0;
"10" = 0;
"11" = 0;
"2" = 0;
"3" = 0;
"4" = 0;
"5" = 0;
"6" = 0;
"7" = 0;
"8" = 0;
"9" = 0;
};
};
width = 558;
}
);
metricLeft = o;
unicode = 240;
},
{
glyphname = e;
kernLeft = KO_o;
kernRight = KO_e;
lastChange = "2025-01-05 09:24:13 +0000";
layers = (
{
anchors = (
{
name = bottom;
pos = (248,0);
},
{
name = ogonek;
pos = (304,0);
},
{
name = top;
pos = (254,500);
}
);
layerId = master01;
shapes = (
{
closed = 1;
nodes = (
(342,-5,o),
(410,38,o),
(435,108,c),
(423,114,l),
(394,55,o),
(342,20,o),
(260,20,cs),
(133,20,o),
(71,112,o),
(71,248,cs),
(71,386,o),
(135,475,o),
(253,475,cs),
(369,475,o),
(431,390,o),
(426,264,c),
(431,270,l),
(62,270,l),
(62,250,l),
(441,250,l,{
name = "🧨";
}),
(451,423,o),
(364,500,o),
(254,500,cs),
(143,500,o),
(54,421,o),
(54,250,cs),
(54,76,o),
(142,-5,o),
(256,-5,cs)
);
}
);
userData = {
com.hugojourdan.ColorFlow = {
"0" = 0;
"1" = 0;
"10" = 0;
"11" = 0;
"2" = 0;
"3" = 0;
"4" = 0;
"5" = 0;
"6" = 0;
"7" = 0;
"8" = 0;
"9" = 0;
};
};
vertWidth = 750;
width = 493;
},
{
anchors = (
{
name = bottom;
pos = (241,0);
},
{
name = ogonek;
pos = (429,0);
},
{
name = top;
pos = (246,500);
}
);
layerId = "7F56E5C1-F146-4434-90E4-DA1B70285074";
shapes = (
{
closed = 1;
nodes = (
(331,-10,o),
(389,21,o),
(434,81,c),
(400,121,l),
(365,92,o),
(317,75,o),
(260,75,cs),
(148,75,o),
(95,144,o),
(95,250,cs),
(95,355,o),
(148,425,o),
(244,425,cs),
(334,425,o),
(383,364,o),
(386,272,c),
(415,296,l),
(88,296,l),
(88,220,l),
(440,220,l,{
name = "🧨";
}),
(458,414,o),
(371,510,o),
(248,510,cs),
(127,510,o),
(40,412,o),
(40,244,cs),
(40,70,o),
(132,-10,o),
(257,-10,cs)
);
}
);
userData = {
com.hugojourdan.ColorFlow = {
"0" = 0;
"1" = 0;
"10" = 0;
"11" = 0;
"2" = 0;
"3" = 0;
"4" = 0;
"5" = 0;
"6" = 0;
"7" = 0;
"8" = 0;
"9" = 0;
};
};
width = 486;
},
{
anchors = (
{
name = bottom;
pos = (245,0);
},
{
name = ogonek;
pos = (427,0);
},
{
name = top;
pos = (245,510);
}
);
background = {
shapes = (
{
closed = 1;
nodes = (
(349,-10,o),
(414,24,o),
(465,97,c),
(401,169,l),
(364,139,o),
(317,130,o),
(271,130,cs),
(173,130,o),
(142,178,o),
(142,251,cs),
(142,325,o),
(173,375,o),
(246,375,cs),
(318,375,o),
(361,327,o),
(351,216,c),
(460,216,l),
(470,436,o),
(374,520,o),
(254,520,cs),
(133,520,o),
(40,432,o),
(40,251,cs),
(40,71,o),
(134,-10,o),
(265,-10,cs)
);
},
{
closed = 1;
nodes = (
(446,216,l),
(446,296,l),
(88,296,l),
(88,216,l)
);
}
);
};
layerId = "3CA830F5-1E41-4F35-86DC-34C8110F5ED1";
shapes = (
{
closed = 1;
nodes = (
(335,-10,o),
(398,18,o),
(455,97,c),
(391,169,l),
(353,139,o),
(303,130,o),
(260,130,cs),
(162,130,o),
(132,177,o),
(132,250,cs),
(132,325,o),
(164,375,o),
(245,375,cs),
(307,375,o),
(356,346,o),
(355,260,c),
(384,296,l),
(78,296,l),
(78,216,l),
(460,216,l,{
name = "🧨";
}),
(480,443,o),
(371,520,o),
(255,520,cs),
(125,520,o),
(30,422,o),
(30,250,cs),
(30,81,o),
(121,-10,o),
(259,-10,cs)
);
}
);
userData = {
com.hugojourdan.ColorFlow = {
"0" = 0;
"1" = 0;
"10" = 0;
"11" = 0;
"2" = 0;
"3" = 0;
"4" = 0;
"5" = 0;
"6" = 0;
"7" = 0;
"8" = 0;
"9" = 0;
};
};
width = 490;
},
{
anchors = (
{
name = top;
pos = (285,500);
}
);
associatedMasterId = "7F56E5C1-F146-4434-90E4-DA1B70285074";
layerId = "722849D7-64AC-4FF1-90AA-282A9EE029EB";
name = "Apr 16 19, 20:53";
shapes = (
{
closed = 1;
nodes = (
(83,209,l),
(293,221,o),
(350,236,o),
(419,306,c),
(431,354,l),
(431,459,o),
(370,510,o),
(291,510,cs),
(152,510,o),
(45,350,o),
(45,179,cs),
(45,52,o),
(105,-10,o),
(195,-10,cs),
(266,-10,o),
(333,28,o),
(378,103,c),
(362,123,l),
(322,93,o),
(271,75,o),
(219,75,cs),
(136,75,o),
(98,119,o),
(98,203,cs),
(98,319,o),
(169,425,o),
(279,425,cs),
(352,425,o),
(387,379,o),
(387,341,c),
(342,302,o),
(246,296,o),
(97,284,c)
);
}
);
width = 476;
}
);
metricLeft = o;
unicode = 101;
},
{
glyphname = f;
kernLeft = KO_f;
kernRight = KO_f;
lastChange = "2025-01-06 07:55:01 +0000";
layers = (
{
background = {
shapes = (
{
closed = 1;
nodes = (
(227,0,l),
(227,14,l),
(111,33,l),
(119,14,l),
(119,552,ls),
(119,676,o),
(164,729,o),
(255,729,cs),
(285,729,o),
(315,723,o),
(336,712,c),
(331,722,l),
(351,625,l),
(368,628,l),
(360,728,l),
(336,743,o),
(301,755,o),
(254,755,cs),
(143,755,o),
(104,689,o),
(104,552,cs),
(104,8,l),
(108,33,l),
(30,14,l),
(30,0,l)
);
},
{
closed = 1;
nodes = (
(289,473,l),
(289,495,l),
(115,495,l),
(32,489,l),
(32,473,l)
);
}
);
};
layerId = master01;
shapes = (
{
closed = 1;
nodes = (
(197,0,l),
(197,14,l),
(112,43,l),
(119,14,l),
(119,582,ls),
(119,685,o),
(156,729,o),
(235,729,cs),
(258,729,o),
(280,725,o),
(296,717,c),
(291,727,l),
(311,630,l),
(328,633,l),
(320,733,l),
(301,745,o),
(272,755,o),
(234,755,cs),
(144,755,o),
(104,699,o),
(104,582,cs),
(104,8,l),
(109,43,l),
(30,14,l),
(30,0,l)
);
},
{
closed = 1;
nodes = (
(249,473,l),
(249,495,l),
(115,495,l),
(32,489,l),
(32,473,l)
);
}
);
userData = {
com.hugojourdan.ColorFlow = {
"0" = 0;
"1" = 0;
"10" = 0;
"11" = 0;
"2" = 0;
"3" = 0;
"4" = 0;
"5" = 0;
"6" = 0;
"7" = 0;
"8" = 0;
"9" = 0;
};
};
vertWidth = 750;
width = 328;
},
{
background = {
shapes = (
{
closed = 1;
nodes = (
(268,0,l),
(268,52,l),
(152,83,l),
(160,53,l),
(160,540,ls),
(160,629,o),
(195,675,o),
(265,675,cs),
(307,675,o),
(335,658,o),
(352,641,c),
(336,671,l),
(361,591,l),
(409,598,l),
(402,704,l),
(368,739,o),
(334,760,o),
(275,760,cs),
(169,760,o),
(105,688,o),
(105,540,cs),
(105,47,l),
(129,84,l),
(31,53,l),
(31,0,l)
);
},
{
closed = 1;
nodes = (
(330,425,l),
(330,500,l),
(126,500,l),
(33,483,l),
(33,425,l)
);
}
);
};
layerId = "7F56E5C1-F146-4434-90E4-DA1B70285074";
shapes = (
{
closed = 1;
nodes = (
(252,0,l),
(252,52,l),
(157,83,l),
(165,53,l),
(165,570,ls),
(165,644,o),
(195,675,o),
(257,675,cs),
(275,675,o),
(291,672,o),
(305,667,c),
(286,697,l),
(311,617,l),
(359,624,l),
(352,743,l),
(325,754,o),
(294,760,o),
(263,760,cs),
(159,760,o),
(110,703,o),
(110,570,cs),
(110,47,l),
(134,84,l),
(37,53,l),
(37,0,l)
);
},
{
closed = 1;
nodes = (
(310,425,l),
(310,500,l),
(131,500,l),
(37,483,l),
(37,425,l)
);
}
);
userData = {
com.hugojourdan.ColorFlow = {
"0" = 0;
"1" = 0;
"10" = 0;
"11" = 0;
"2" = 0;
"3" = 0;
"4" = 0;
"5" = 0;
"6" = 0;
"7" = 0;
"8" = 0;
"9" = 0;
};
};
width = 364;
},
{
background = {
shapes = (
{
closed = 1;
nodes = (
(317,0,l),
(317,132,l),
(201,163,l),
(209,133,l),
(209,540,ls),
(209,584,o),
(231,605,o),
(282,605,cs),
(314,605,o),
(334,597,o),
(353,581,c),
(325,639,l),
(350,541,l),
(438,548,l),
(431,719,l),
(390,745,o),
(350,760,o),
(293,760,cs),
(170,760,o),
(104,688,o),
(104,540,cs),
(104,127,l),
(128,164,l),
(30,133,l),
(30,0,l)
);
},
{
closed = 1;
nodes = (
(339,355,l),
(339,510,l),
(125,510,l),
(32,493,l),
(32,355,l)
);
}
);
};
layerId = "3CA830F5-1E41-4F35-86DC-34C8110F5ED1";
shapes = (
{
closed = 1;
nodes = (
(317,0,l),
(317,132,l),
(201,163,l),
(209,133,l),
(209,540,ls),
(209,585,o),
(225,605,o),
(266,605,cs),
(284,605,o),
(299,601,o),
(313,589,c),
(285,647,l),
(310,549,l),
(398,556,l),
(391,727,l),
(356,749,o),
(321,760,o),
(276,760,cs),
(163,760,o),
(104,689,o),
(104,540,cs),
(104,127,l),
(128,164,l),
(30,133,l),
(30,0,l)
);
},
{
closed = 1;
nodes = (
(319,355,l),
(319,510,l),
(125,510,l),
(32,493,l),
(32,355,l)
);
}
);
userData = {
com.hugojourdan.ColorFlow = {
"0" = 0;
"1" = 0;
"10" = 0;
"11" = 0;
"2" = 0;
"3" = 0;
"4" = 0;
"5" = 0;
"6" = 0;
"7" = 0;
"8" = 0;
"9" = 0;
};
};
width = 395;
}
);
unicode = 102;
userData = {
KernOnName = f;
};
},
{
glyphname = g;
kernLeft = KO_g;
kernRight = KO_g;
lastChange = "2025-01-14 00:19:18 +0000";
layers = (
{
anchors = (
{
name = bottom;
pos = (233,-250);
},
{
name = top;
pos = (213,495);
}
);
background = {
shapes = (
{
closed = 1;
nodes = (
(391,-260,o),
(456,-198,o),
(456,-105,cs),
(456,-29,o),
(412,8,o),
(312,23,cs),
(175,43,ls),
(130,50,o),
(101,65,o),
(101,98,cs),
(101,131,o),
(139,160,o),
(200,172,c),
(198,188,l),
(129,174,o),
(84,147,o),
(84,96,cs),
(84,59,o),
(107,27,o),
(165,19,cs),
(316,-3,ls),
(403,-16,o),
(440,-46,o),
(440,-108,cs),
(440,-203,o),
(353,-235,o),
(236,-235,cs),
(124,-235,o),
(47,-206,o),
(47,-118,cs),
(47,-43,o),
(99,1,o),
(165,19,c),
(152,33,l),
(94,15,o),
(30,-26,o),
(30,-118,cs),
(30,-240,o),
(143,-260,o),
(233,-260,cs)
);
},
{
closed = 1;
nodes = (
(321,170,o),
(393,220,o),
(393,331,cs),
(393,445,o),
(321,500,o),
(220,500,cs),
(119,500,o),
(43,445,o),
(43,331,cs),
(43,220,o),
(119,170,o),
(220,170,cs)
);
},
{
closed = 1;
nodes = (
(111,194,o),
(58,246,o),
(58,331,cs),
(58,416,o),
(113,475,o),
(220,475,cs),
(329,475,o),
(377,412,o),
(377,330,cs),
(377,246,o),
(328,194,o),
(220,194,cs)
);
},
{
closed = 1;
nodes = (
(427,487,l),
(438,506,l),
(434,514,l),
(225,500,l),
(245,487,l)
);
}
);
};
layerId = master01;
shapes = (
{
closed = 1;
nodes = (
(374,-260,o),
(436,-198,o),
(436,-105,cs),
(436,-29,o),
(398,12,o),
(311,24,cs),
(175,43,ls),
(130,49,o),
(101,66,o),
(101,101,cs),
(101,137,o),
(129,161,o),
(200,171,c),
(198,194,l),
(119,180,o),
(84,156,o),
(84,101,cs),
(84,59,o),
(107,27,o),
(165,19,cs),
(315,-2,ls),
(389,-12,o),
(420,-47,o),
(420,-106,cs),
(420,-203,o),
(338,-235,o),
(226,-235,cs),
(120,-235,o),
(47,-206,o),
(47,-118,cs),
(47,-42,o),
(102,3,o),
(174,22,c,{
name = "🧨";
}),
(159,35,l),
(98,17,o),
(30,-25,o),
(30,-118,cs),
(30,-240,o),
(137,-260,o),
(223,-260,cs)
);
},
{
closed = 1;
nodes = (
(315,170,o),
(383,220,o),
(383,331,cs),
(383,445,o),
(315,500,o),
(220,500,cs),
(125,500,o),
(53,445,o),
(53,331,cs),
(53,220,o),
(125,170,o),
(220,170,cs)
);
},
{
closed = 1;
nodes = (
(118,194,o),
(68,246,o),
(68,331,cs),
(68,416,o),
(120,475,o),
(220,475,cs),
(322,475,o),
(367,412,o),
(367,330,cs),
(367,246,o),
(321,194,o),
(220,194,cs)
);
},
{
closed = 1;
nodes = (
(427,487,l),
(441,522,l),
(434,534,l),
(225,500,l),
(245,487,l)
);
}
);
userData = {
com.hugojourdan.ColorFlow = {
"0" = 0;
"1" = 0;
"10" = 0;
"11" = 0;
"2" = 0;
"3" = 0;
"4" = 0;
"5" = 0;
"6" = 0;
"7" = 0;
"8" = 0;
"9" = 0;
};
};
vertWidth = 750;
width = 453;
},
{
anchors = (
{
name = bottom;
pos = (243,-250);
},
{
name = top;
pos = (230,500);
}
);
background = {
shapes = (
{
closed = 1;
nodes = (
(98,266,o),
(143,230,o),
(228,230,cs),
(316,230,o),
(354,267,o),
(354,327,cs),
(354,389,o),
(314,435,o),
(227,435,cs),
(141,435,o),
(98,390,o),
(98,328,cs)
);
},
{
closed = 1;
nodes = (
(46,449,o),
(125,510,o),
(228,510,cs),
(332,510,o),
(406,448,o),
(406,331,cs),
(406,214,o),
(333,165,o),
(229,165,cs),
(126,165,o),
(46,213,o),
(46,331,cs)
);
},
{
closed = 1;
nodes = (
(156,155,o),
(130,138,o),
(130,108,cs),
(130,83,o),
(145,70,o),
(180,65,cs),
(327,44,ls),
(417,31,o),
(461,-14,o),
(461,-96,cs),
(461,-199,o),
(391,-260,o),
(229,-260,cs),
(138,-260,o),
(25,-241,o),
(25,-118,cs),
(25,-19,o),
(98,9,o),
(161,23,c),
(170,-7,l),
(118,-18,o),
(76,-51,o),
(76,-103,cs),
(76,-169,o),
(145,-182,o),
(246,-182,cs),
(339,-182,o),
(412,-171,o),
(412,-104,cs),
(412,-67,o),
(390,-40,o),
(331,-31,cs),
(170,-7,ls),
(109,2,o),
(79,30,o),
(79,83,cs),
(79,148,o),
(129,177,o),
(211,192,c),
(223,166,l)
);
},
{
closed = 1;
nodes = (
(332,512,o),
(370,608,o),
(450,613,c),
(481,601,o),
(492,554,o),
(489,522,c),
(413,522,o),
(375,480,o),
(387,417,c),
(365,423,l)
);
}
);
};
layerId = "7F56E5C1-F146-4434-90E4-DA1B70285074";
shapes = (
{
closed = 1;
nodes = (
(396,-260,o),
(461,-198,o),
(461,-97,cs),
(461,-14,o),
(417,31,o),
(327,44,cs),
(180,66,ls),
(148,71,o),
(135,84,o),
(135,107,cs),
(135,139,o),
(160,155,o),
(223,166,c),
(198,202,l),
(124,187,o),
(79,157,o),
(79,91,cs),
(79,30,o),
(113,-4,o),
(180,-14,cs),
(311,-33,ls),
(385,-44,o),
(405,-64,o),
(405,-97,cs),
(405,-161,o),
(335,-175,o),
(246,-175,cs),
(148,-175,o),
(81,-158,o),
(81,-94,cs),
(81,-48,o),
(121,-22,o),
(174,-10,c),
(161,23,l),
(95,4,o),
(25,-32,o),
(25,-121,cs),
(25,-241,o),
(144,-260,o),
(234,-260,cs)
);
},
{
closed = 1;
nodes = (
(333,165,o),
(406,217,o),
(406,334,cs),
(406,451,o),
(332,510,o),
(228,510,cs),
(125,510,o),
(46,452,o),
(46,334,cs),
(46,216,o),
(126,165,o),
(229,165,cs)
);
},
{
closed = 1;
nodes = (
(137,245,o),
(104,281,o),
(104,337,cs),
(104,393,o),
(135,430,o),
(227,430,cs),
(319,430,o),
(348,392,o),
(348,336,cs),
(348,282,o),
(321,245,o),
(228,245,cs)
);
},
{
closed = 1;
nodes = (
(457,457,l),
(478,520,l),
(464,552,l),
(285,500,l),
(285,457,l)
);
}
);
userData = {
com.hugojourdan.ColorFlow = {
"0" = 0;
"1" = 0;
"10" = 0;
"11" = 0;
"2" = 0;
"3" = 0;
"4" = 0;
"5" = 0;
"6" = 0;
"7" = 0;
"8" = 0;
"9" = 0;
};
};
width = 483;
},
{
anchors = (
{
name = bottom;
pos = (266,-250);
},
{
name = top;
pos = (237,510);
}
);
background = {
shapes = (
{
closed = 1;
nodes = (
(403,-260,o),
(479,-194,o),
(479,-67,cs),
(479,37,o),
(429,84,o),
(307,98,cs),
(209,109,ls),
(186,112,o),
(173,122,o),
(173,141,cs),
(173,157,o),
(184,173,o),
(215,176,c),
(202,212,l),
(122,200,o),
(71,158,o),
(71,92,cs),
(71,36,o),
(105,0,o),
(176,-8,cs),
(331,-26,ls),
(367,-30,o),
(384,-46,o),
(384,-72,cs),
(384,-116,o),
(324,-127,o),
(256,-127,cs),
(166,-127,o),
(121,-110,o),
(121,-65,cs),
(121,-31,o),
(145,-10,o),
(176,-6,c),
(147,43,l),
(76,26,o),
(15,-11,o),
(15,-104,cs),
(15,-236,o),
(133,-260,o),
(235,-260,cs)
);
},
{
closed = 1;
nodes = (
(342,175,o),
(419,229,o),
(419,346,cs),
(419,464,o),
(341,520,o),
(232,520,cs),
(124,520,o),
(40,461,o),
(40,343,cs),
(40,226,o),
(123,175,o),
(232,175,cs)
);
},
{
closed = 1;
nodes = (
(168,282,o),
(138,300,o),
(138,330,cs),
(138,360,o),
(166,379,o),
(229,378,cs),
(291,377,o),
(321,359,o),
(321,329,cs),
(321,302,o),
(294,282,o),
(230,282,cs)
);
},
{
closed = 1;
nodes = (
(457,447,l),
(484,537,l),
(460,562,l),
(295,510,l),
(295,447,l)
);
}
);
};
layerId = "3CA830F5-1E41-4F35-86DC-34C8110F5ED1";
shapes = (
{
closed = 1;
nodes = (
(421,-260,o),
(502,-194,o),
(502,-69,cs),
(502,35,o),
(446,87,o),
(324,94,cs),
(217,100,ls),
(186,102,o),
(179,117,o),
(179,128,cs),
(179,143,o),
(192,154,o),
(227,157,c),
(202,203,l),
(118,187,o),
(76,151,o),
(76,78,cs),
(76,5,o),
(118,-37,o),
(214,-42,cs),
(348,-49,ls),
(386,-51,o),
(406,-64,o),
(406,-84,cs),
(406,-120,o),
(344,-130,o),
(265,-130,cs),
(162,-130,o),
(123,-113,o),
(123,-81,cs),
(123,-52,o),
(154,-37,o),
(187,-38,c),
(158,11,l),
(80,-1,o),
(17,-33,o),
(17,-118,cs),
(17,-238,o),
(145,-260,o),
(246,-260,cs)
);
},
{
closed = 1;
nodes = (
(358,155,o),
(439,217,o),
(439,341,cs),
(439,466,o),
(357,520,o),
(245,520,cs),
(131,520,o),
(43,464,o),
(43,339,cs),
(43,214,o),
(130,155,o),
(243,155,cs)
);
},
{
closed = 1;
nodes = (
(175,282,o),
(142,300,o),
(142,330,cs),
(142,360,o),
(173,379,o),
(241,378,cs),
(308,377,o),
(340,359,o),
(340,329,cs),
(340,302,o),
(311,282,o),
(242,282,cs)
);
},
{
closed = 1;
nodes = (
(489,447,l),
(507,527,l),
(483,562,l),
(309,510,l),
(309,447,l)
);
}
);
userData = {
com.hugojourdan.ColorFlow = {
"0" = 0;
"1" = 0;
"10" = 0;
"11" = 0;
"2" = 0;
"3" = 0;
"4" = 0;
"5" = 0;
"6" = 0;
"7" = 0;
"8" = 0;
"9" = 0;
};
};
width = 508;
},
{
associatedMasterId = "7F56E5C1-F146-4434-90E4-DA1B70285074";
layerId = "A4009732-1C8C-48AD-AB21-1F4A69ED6C3B";
name = "Apr 21 19, 14:07";
shapes = (
{
closed = 1;
nodes = (
(114,248,o),
(161,200,o),
(253,200,cs),
(348,200,o),
(390,250,o),
(390,319,cs),
(390,389,o),
(346,435,o),
(252,435,cs),
(159,435,o),
(114,390,o),
(114,320,cs)
);
},
{
closed = 1;
nodes = (
(62,449,o),
(143,510,o),
(252,510,cs),
(362,510,o),
(442,449,o),
(442,321,cs),
(442,194,o),
(363,135,o),
(253,135,cs),
(144,135,o),
(62,194,o),
(62,321,cs)
);
},
{
closed = 1;
nodes = (
(181,125,o),
(158,99,o),
(158,74,cs),
(158,51,o),
(178,40,o),
(208,35,cs),
(375,11,ls),
(457,-1,o),
(509,-34,o),
(509,-109,cs),
(509,-198,o),
(433,-260,o),
(257,-260,cs),
(160,-260,o),
(43,-241,o),
(43,-130,cs),
(43,-37,o),
(121,-21,o),
(189,-7,c),
(198,-37,l),
(140,-48,o),
(94,-65,o),
(94,-112,cs),
(94,-169,o),
(166,-182,o),
(275,-182,cs),
(376,-182,o),
(460,-171,o),
(460,-118,cs),
(460,-83,o),
(424,-71,o),
(379,-64,cs),
(198,-37,ls),
(137,-28,o),
(107,11,o),
(107,59,cs),
(107,118,o),
(152,147,o),
(227,162,c),
(239,136,l)
);
},
{
closed = 1;
nodes = (
(338,541,o),
(386,639,o),
(446,644,c),
(477,632,o),
(488,585,o),
(485,553,c),
(429,553,o),
(391,511,o),
(403,448,c),
(381,454,l)
);
}
);
width = 517;
},
{
associatedMasterId = master01;
layerId = "13CB8AF2-3761-44C6-AAA7-82E2903E6509";
name = "Apr 21 19, 14:10";
shapes = (
{
closed = 1;
nodes = (
(77,227,o),
(134,165,o),
(253,165,cs),
(371,165,o),
(426,227,o),
(426,319,cs),
(426,410,o),
(373,475,o),
(253,475,cs),
(136,475,o),
(77,414,o),
(77,320,cs)
);
},
{
closed = 1;
nodes = (
(62,443,o),
(144,500,o),
(253,500,cs),
(363,500,o),
(442,443,o),
(442,320,cs),
(442,197,o),
(363,140,o),
(253,140,cs),
(144,140,o),
(62,197,o),
(62,320,cs)
);
},
{
closed = 1;
nodes = (
(157,129,o),
(124,101,o),
(124,68,cs),
(124,35,o),
(157,21,o),
(208,13,cs),
(375,-12,ls),
(456,-25,o),
(509,-49,o),
(509,-117,cs),
(509,-198,o),
(433,-260,o),
(258,-260,cs),
(160,-260,o),
(43,-240,o),
(43,-129,cs),
(43,-39,o),
(118,-7,o),
(185,3,c),
(198,-11,l),
(121,-21,o),
(60,-54,o),
(60,-127,cs),
(60,-208,o),
(138,-235,o),
(259,-235,cs),
(386,-235,o),
(493,-205,o),
(493,-123,cs),
(493,-68,o),
(447,-49,o),
(379,-38,cs),
(198,-11,ls),
(137,-2,o),
(107,25,o),
(107,67,cs),
(107,116,o),
(147,143,o),
(237,157,c),
(239,141,l)
);
},
{
closed = 1;
nodes = (
(321,552,o),
(384,639,o),
(451,644,c),
(460,641,o),
(463,627,o),
(462,616,c),
(404,616,o),
(341,561,o),
(402,444,c),
(393,447,l)
);
}
);
vertWidth = 750;
width = 517;
},
{
associatedMasterId = "3CA830F5-1E41-4F35-86DC-34C8110F5ED1";
layerId = "A94DF068-6E53-4B0B-89F7-C58376BA9E6B";
name = "Apr 21 19, 14:16";
shapes = (
{
closed = 1;
nodes = (
(146,277,o),
(178,252,o),
(244,252,cs),
(312,252,o),
(342,278,o),
(342,316,cs),
(342,353,o),
(312,378,o),
(244,378,cs),
(178,378,o),
(146,354,o),
(146,316,cs)
);
},
{
closed = 1;
nodes = (
(49,459,o),
(133,520,o),
(246,520,cs),
(358,520,o),
(439,459,o),
(439,331,cs),
(439,204,o),
(358,145,o),
(246,145,cs),
(133,145,o),
(49,204,o),
(49,331,cs)
);
},
{
closed = 1;
nodes = (
(198,143,o),
(185,130,o),
(185,111,cs),
(185,90,o),
(203,79,o),
(229,76,cs),
(389,55,ls),
(462,45,o),
(506,-3,o),
(506,-86,cs),
(506,-194,o),
(427,-260,o),
(246,-260,cs),
(147,-260,o),
(30,-240,o),
(30,-122,cs),
(30,-27,o),
(108,-11,o),
(176,3,c),
(185,-57,l),
(152,-60,o),
(136,-74,o),
(136,-97,cs),
(136,-136,o),
(185,-147,o),
(277,-147,cs),
(350,-147,o),
(412,-140,o),
(412,-107,cs),
(412,-92,o),
(399,-82,o),
(373,-79,cs),
(185,-57,ls),
(117,-49,o),
(84,-4,o),
(84,56,cs),
(84,130,o),
(133,169,o),
(214,182,c),
(226,146,l)
);
},
{
closed = 1;
nodes = (
(297,553,o),
(344,657,o),
(443,664,c),
(482,646,o),
(496,579,o),
(492,533,c),
(436,533,o),
(388,503,o),
(400,458,c),
(358,464,l)
);
}
);
width = 514;
},
{
anchors = (
{
name = bottom;
pos = (248,-250);
},
{
name = top;
pos = (225,500);
}
);
associatedMasterId = "7F56E5C1-F146-4434-90E4-DA1B70285074";
layerId = "CA56551A-30F7-4BAA-A620-7AF44999B7A3";
name = "29 Jan 23 17.02";
shapes = (
{
closed = 1;
nodes = (
(108,266,o),
(153,230,o),
(238,230,cs),
(326,230,o),
(364,267,o),
(364,327,cs),
(364,389,o),
(324,435,o),
(237,435,cs),
(151,435,o),
(108,390,o),
(108,328,cs)
);
},
{
closed = 1;
nodes = (
(56,449,o),
(135,510,o),
(238,510,cs),
(342,510,o),
(416,448,o),
(416,331,cs),
(416,214,o),
(343,165,o),
(239,165,cs),
(136,165,o),
(56,213,o),
(56,331,cs)
);
},
{
closed = 1;
nodes = (
(166,155,o),
(140,138,o),
(140,108,cs),
(140,83,o),
(155,70,o),
(190,65,cs),
(357,41,ls),
(439,29,o),
(491,-14,o),
(491,-98,cs),
(491,-198,o),
(415,-260,o),
(239,-260,cs),
(142,-260,o),
(25,-241,o),
(25,-117,cs),
(25,-14,o),
(103,9,o),
(171,23,c),
(180,-7,l),
(122,-18,o),
(76,-46,o),
(76,-101,cs),
(76,-169,o),
(148,-182,o),
(257,-182,cs),
(358,-182,o),
(442,-171,o),
(442,-106,cs),
(442,-67,o),
(412,-42,o),
(361,-34,cs),
(180,-7,ls),
(119,2,o),
(89,30,o),
(89,83,cs),
(89,148,o),
(139,177,o),
(221,192,c),
(233,166,l)
);
},
{
closed = 1;
nodes = (
(342,512,o),
(380,608,o),
(460,613,c),
(491,601,o),
(502,554,o),
(499,522,c),
(423,522,o),
(385,480,o),
(397,417,c),
(375,423,l)
);
}
);
width = 506;
},
{
anchors = (
{
name = bottom;
pos = (253,-250);
},
{
name = top;
pos = (235,510);
}
);
associatedMasterId = "3CA830F5-1E41-4F35-86DC-34C8110F5ED1";
layerId = "6447C006-9AFB-46C6-9A59-10334C30FDBD";
name = "29 Jan 23 17.02";
shapes = (
{
closed = 1;
nodes = (
(136,300,o),
(169,282,o),
(235,282,cs),
(303,282,o),
(332,301,o),
(332,330,cs),
(332,359,o),
(300,377,o),
(235,378,cs),
(167,379,o),
(136,360,o),
(136,330,cs)
);
},
{
closed = 1;
nodes = (
(39,464,o),
(125,520,o),
(235,520,cs),
(351,520,o),
(429,464,o),
(429,345,cs),
(429,229,o),
(351,175,o),
(235,175,cs),
(125,175,o),
(39,229,o),
(39,345,cs)
);
},
{
closed = 1;
nodes = (
(198,173,o),
(185,162,o),
(185,145,cs),
(185,127,o),
(201,112,o),
(229,109,cs),
(369,92,ls),
(462,81,o),
(516,34,o),
(516,-70,cs),
(516,-194,o),
(434,-260,o),
(242,-260,cs),
(138,-260,o),
(10,-240,o),
(10,-110,cs),
(10,-4,o),
(99,19,o),
(176,33,c),
(185,-26,l),
(145,-29,o),
(116,-51,o),
(116,-80,cs),
(116,-117,o),
(165,-127,o),
(277,-127,cs),
(363,-127,o),
(422,-122,o),
(422,-85,cs),
(422,-66,o),
(406,-53,o),
(373,-49,cs),
(195,-28,ls),
(117,-19,o),
(84,28,o),
(84,86,cs),
(84,160,o),
(133,199,o),
(214,212,c),
(226,176,l)
);
},
{
closed = 1;
nodes = (
(285,547,o),
(344,645,o),
(443,652,c),
(482,634,o),
(496,567,o),
(492,521,c),
(436,521,o),
(368,511,o),
(387,438,c),
(345,444,l)
);
}
);
width = 526;
},
{
anchors = (
{
name = bottom;
pos = (248,-250);
},
{
name = top;
pos = (225,500);
}
);
associatedMasterId = "7F56E5C1-F146-4434-90E4-DA1B70285074";
background = {
shapes = (
{
closed = 1;
nodes = (
(108,266,o),
(153,230,o),
(238,230,cs),
(326,230,o),
(364,267,o),
(364,327,cs),
(364,389,o),
(324,435,o),
(237,435,cs),
(151,435,o),
(108,390,o),
(108,328,cs)
);
},
{
closed = 1;
nodes = (
(56,449,o),
(135,510,o),
(238,510,cs),
(342,510,o),
(416,448,o),
(416,331,cs),
(416,214,o),
(343,165,o),
(239,165,cs),
(136,165,o),
(56,213,o),
(56,331,cs)
);
},
{
closed = 1;
nodes = (
(166,155,o),
(140,138,o),
(140,108,cs),
(140,83,o),
(155,70,o),
(190,65,cs),
(357,41,ls),
(439,29,o),
(491,-14,o),
(491,-98,cs),
(491,-198,o),
(415,-260,o),
(239,-260,cs),
(142,-260,o),
(25,-241,o),
(25,-117,cs),
(25,-14,o),
(103,9,o),
(171,23,c),
(180,-7,l),
(122,-18,o),
(76,-46,o),
(76,-101,cs),
(76,-169,o),
(148,-182,o),
(257,-182,cs),
(358,-182,o),
(442,-171,o),
(442,-106,cs),
(442,-67,o),
(412,-42,o),
(361,-34,cs),
(180,-7,ls),
(119,2,o),
(89,30,o),
(89,83,cs),
(89,148,o),
(139,177,o),
(221,192,c),
(233,166,l)
);
},
{
closed = 1;
nodes = (
(342,512,o),
(380,608,o),
(460,613,c),
(491,601,o),
(502,554,o),
(499,522,c),
(423,522,o),
(385,480,o),
(397,417,c),
(375,423,l)
);
}
);
};
layerId = "384A3385-EC37-4AC7-A714-E4E907038191";
name = "2 Feb 23 10.09";
shapes = (
{
closed = 1;
nodes = (
(108,266,o),
(153,230,o),
(238,230,cs),
(326,230,o),
(364,267,o),
(364,327,cs),
(364,389,o),
(324,435,o),
(237,435,cs),
(151,435,o),
(108,390,o),
(108,328,cs)
);
},
{
closed = 1;
nodes = (
(56,449,o),
(135,510,o),
(238,510,cs),
(342,510,o),
(416,448,o),
(416,331,cs),
(416,214,o),
(343,165,o),
(239,165,cs),
(136,165,o),
(56,213,o),
(56,331,cs)
);
},
{
closed = 1;
nodes = (
(166,155,o),
(140,138,o),
(140,108,cs),
(140,83,o),
(155,70,o),
(190,65,cs),
(337,44,ls),
(427,31,o),
(471,-14,o),
(471,-96,cs),
(471,-199,o),
(401,-260,o),
(239,-260,cs),
(148,-260,o),
(35,-241,o),
(35,-118,cs),
(35,-19,o),
(108,9,o),
(171,23,c),
(180,-7,l),
(128,-18,o),
(86,-51,o),
(86,-103,cs),
(86,-169,o),
(155,-182,o),
(256,-182,cs),
(349,-182,o),
(422,-171,o),
(422,-104,cs),
(422,-67,o),
(400,-40,o),
(341,-31,cs),
(180,-7,ls),
(119,2,o),
(89,30,o),
(89,83,cs),
(89,148,o),
(139,177,o),
(221,192,c),
(233,166,l)
);
},
{
closed = 1;
nodes = (
(342,512,o),
(380,608,o),
(460,613,c),
(491,601,o),
(502,554,o),
(499,522,c),
(423,522,o),
(385,480,o),
(397,417,c),
(375,423,l)
);
}
);
width = 506;
},
{
anchors = (
{
name = bottom;
pos = (242,-250);
},
{
name = top;
pos = (223,510);
}
);
associatedMasterId = "3CA830F5-1E41-4F35-86DC-34C8110F5ED1";
background = {
shapes = (
{
closed = 1;
nodes = (
(116,300,o),
(149,282,o),
(215,282,cs),
(283,282,o),
(312,301,o),
(312,330,cs),
(312,359,o),
(280,377,o),
(215,378,cs),
(147,379,o),
(116,360,o),
(116,330,cs)
);
},
{
closed = 1;
nodes = (
(19,464,o),
(105,520,o),
(215,520,cs),
(331,520,o),
(409,464,o),
(409,345,cs),
(409,229,o),
(331,175,o),
(215,175,cs),
(105,175,o),
(19,229,o),
(19,345,cs)
);
},
{
closed = 1;
nodes = (
(178,173,o),
(165,162,o),
(165,145,cs),
(165,127,o),
(181,112,o),
(209,109,cs),
(349,92,ls),
(442,81,o),
(496,34,o),
(496,-70,cs),
(496,-194,o),
(414,-260,o),
(222,-260,cs),
(118,-260,o),
(-10,-240,o),
(-10,-110,cs),
(-10,-4,o),
(79,19,o),
(156,33,c),
(165,-26,l),
(125,-29,o),
(96,-51,o),
(96,-80,cs),
(96,-117,o),
(145,-127,o),
(257,-127,cs),
(343,-127,o),
(402,-122,o),
(402,-85,cs),
(402,-66,o),
(386,-53,o),
(353,-49,cs),
(175,-28,ls),
(97,-19,o),
(64,28,o),
(64,86,cs),
(64,160,o),
(113,199,o),
(194,212,c),
(206,176,l)
);
},
{
closed = 1;
nodes = (
(265,547,o),
(324,645,o),
(423,652,c),
(462,634,o),
(476,567,o),
(472,521,c),
(416,521,o),
(348,511,o),
(367,438,c),
(325,444,l)
);
}
);
};
layerId = "CAD3084C-2849-4291-ADFB-5A889700B0BD";
name = "2 Feb 23 10.10";
shapes = (
{
closed = 1;
nodes = (
(408,-260,o),
(484,-194,o),
(484,-69,cs),
(484,35,o),
(434,84,o),
(312,98,cs),
(214,109,ls),
(186,112,o),
(168,126,o),
(168,145,cs),
(168,161,o),
(181,173,o),
(215,176,c),
(202,212,l),
(112,198,o),
(66,156,o),
(66,87,cs),
(66,26,o),
(103,-19,o),
(181,-28,cs),
(336,-46,ls),
(372,-50,o),
(389,-62,o),
(389,-82,cs),
(389,-121,o),
(327,-127,o),
(257,-127,cs),
(163,-127,o),
(116,-116,o),
(116,-75,cs),
(116,-47,o),
(140,-29,o),
(171,-26,c),
(142,23,l),
(71,7,o),
(10,-27,o),
(10,-114,cs),
(10,-238,o),
(131,-260,o),
(232,-260,cs)
);
},
{
closed = 1;
nodes = (
(160,282,o),
(128,300,o),
(128,330,cs),
(128,360,o),
(158,379,o),
(224,378,cs),
(289,377,o),
(321,359,o),
(321,329,cs),
(321,302,o),
(293,282,o),
(225,282,cs)
);
},
{
closed = 1;
nodes = (
(340,175,o),
(419,229,o),
(419,346,cs),
(419,464,o),
(339,520,o),
(227,520,cs),
(116,520,o),
(30,461,o),
(30,343,cs),
(30,226,o),
(115,175,o),
(227,175,cs)
);
},
{
closed = 1;
nodes = (
(363,511,o),
(433,521,o),
(492,521,c),
(496,567,o),
(482,634,o),
(442,652,c),
(340,645,o),
(280,547,o),
(340,444,c),
(383,438,l)
);
}
);
width = 506;
},
{
anchors = (
{
name = bottom;
pos = (253,-250);
},
{
name = top;
pos = (233,495);
}
);
associatedMasterId = master01;
background = {
shapes = (
{
closed = 1;
nodes = (
(64,246,o),
(117,194,o),
(226,194,cs),
(334,194,o),
(383,246,o),
(383,330,cs),
(383,412,o),
(335,475,o),
(226,475,cs),
(119,475,o),
(64,416,o),
(64,331,cs)
);
},
{
closed = 1;
nodes = (
(49,445,o),
(125,500,o),
(226,500,cs),
(327,500,o),
(399,445,o),
(399,331,cs),
(399,220,o),
(327,170,o),
(226,170,cs),
(125,170,o),
(49,220,o),
(49,331,cs)
);
},
{
closed = 1;
nodes = (
(145,160,o),
(121,131,o),
(121,98,cs),
(121,65,o),
(150,51,o),
(195,43,cs),
(362,18,ls),
(444,6,o),
(496,-30,o),
(496,-107,cs),
(496,-198,o),
(420,-260,o),
(245,-260,cs),
(147,-260,o),
(30,-240,o),
(30,-118,cs),
(30,-19,o),
(105,23,o),
(172,33,c),
(185,19,l),
(108,9,o),
(47,-35,o),
(47,-116,cs),
(47,-208,o),
(125,-235,o),
(246,-235,cs),
(373,-235,o),
(480,-203,o),
(480,-108,cs),
(480,-47,o),
(435,-18,o),
(366,-8,cs),
(185,19,ls),
(131,28,o),
(104,55,o),
(104,97,cs),
(104,147,o),
(135,174,o),
(204,188,c),
(206,172,l)
);
},
{
closed = 1;
nodes = (
(305,512,o),
(368,599,o),
(457,604,c),
(463,597,o),
(467,586,o),
(466,576,c),
(388,576,o),
(325,521,o),
(386,404,c),
(377,407,l)
);
}
);
};
layerId = "29622668-9508-4A4F-BCE0-28A1DCFA2D96";
name = "15 Apr 23 12.45";
shapes = (
{
closed = 1;
nodes = (
(411,-260,o),
(476,-198,o),
(476,-105,cs),
(476,-29,o),
(432,8,o),
(332,23,cs),
(195,43,ls),
(150,50,o),
(121,65,o),
(121,98,cs),
(121,131,o),
(159,160,o),
(220,172,c),
(218,188,l),
(149,174,o),
(104,147,o),
(104,96,cs),
(104,59,o),
(127,27,o),
(185,19,cs),
(336,-3,ls),
(423,-16,o),
(460,-46,o),
(460,-108,cs),
(460,-203,o),
(373,-235,o),
(256,-235,cs),
(144,-235,o),
(67,-206,o),
(67,-118,cs),
(67,-43,o),
(119,1,o),
(185,19,c),
(172,33,l),
(114,15,o),
(50,-26,o),
(50,-118,cs),
(50,-240,o),
(163,-260,o),
(253,-260,cs)
);
},
{
closed = 1;
nodes = (
(341,170,o),
(413,220,o),
(413,331,cs),
(413,445,o),
(341,500,o),
(240,500,cs),
(139,500,o),
(63,445,o),
(63,331,cs),
(63,220,o),
(139,170,o),
(240,170,cs)
);
},
{
closed = 1;
nodes = (
(131,194,o),
(78,246,o),
(78,331,cs),
(78,416,o),
(133,475,o),
(240,475,cs),
(349,475,o),
(397,412,o),
(397,330,cs),
(397,246,o),
(348,194,o),
(240,194,cs)
);
},
{
closed = 1;
nodes = (
(447,487,l),
(458,506,l),
(454,514,l),
(245,500,l),
(265,487,l)
);
}
);
vertWidth = 750;
width = 506;
},
{
anchors = (
{
name = bottom;
pos = (254,-250);
},
{
name = top;
pos = (225,510);
}
);
associatedMasterId = "3CA830F5-1E41-4F35-86DC-34C8110F5ED1";
background = {
shapes = (
{
closed = 1;
nodes = (
(408,-260,o),
(484,-194,o),
(484,-69,cs),
(484,35,o),
(434,84,o),
(312,98,cs),
(214,109,ls),
(186,112,o),
(168,126,o),
(168,145,cs),
(168,161,o),
(181,173,o),
(215,176,c),
(202,212,l),
(112,198,o),
(66,156,o),
(66,87,cs),
(66,26,o),
(103,-19,o),
(181,-28,cs),
(336,-46,ls),
(372,-50,o),
(389,-62,o),
(389,-82,cs),
(389,-121,o),
(327,-127,o),
(257,-127,cs),
(163,-127,o),
(116,-116,o),
(116,-75,cs),
(116,-47,o),
(140,-29,o),
(171,-26,c),
(142,23,l),
(71,7,o),
(10,-27,o),
(10,-114,cs),
(10,-238,o),
(131,-260,o),
(232,-260,cs)
);
},
{
closed = 1;
nodes = (
(160,282,o),
(128,300,o),
(128,330,cs),
(128,360,o),
(158,379,o),
(224,378,cs),
(289,377,o),
(321,359,o),
(321,329,cs),
(321,302,o),
(293,282,o),
(225,282,cs)
);
},
{
closed = 1;
nodes = (
(340,175,o),
(419,229,o),
(419,346,cs),
(419,464,o),
(339,520,o),
(227,520,cs),
(116,520,o),
(30,461,o),
(30,343,cs),
(30,226,o),
(115,175,o),
(227,175,cs)
);
},
{
closed = 1;
nodes = (
(363,511,o),
(433,521,o),
(492,521,c),
(496,567,o),
(482,634,o),
(442,652,c),
(340,645,o),
(280,547,o),
(340,444,c),
(383,438,l)
);
}
);
};
layerId = "333B552A-CAE9-4FDA-90EA-7EEB08197E42";
name = "3 Jan 25 at 00.53";
shapes = (
{
closed = 1;
nodes = (
(403,-260,o),
(479,-194,o),
(479,-67,cs),
(479,37,o),
(429,84,o),
(307,98,cs),
(209,109,ls),
(186,112,o),
(173,122,o),
(173,141,cs),
(173,157,o),
(184,173,o),
(215,176,c),
(202,212,l),
(122,200,o),
(71,158,o),
(71,92,cs),
(71,36,o),
(105,0,o),
(176,-8,cs),
(331,-26,ls),
(367,-30,o),
(384,-46,o),
(384,-72,cs),
(384,-116,o),
(324,-127,o),
(256,-127,cs),
(166,-127,o),
(121,-110,o),
(121,-65,cs),
(121,-31,o),
(145,-10,o),
(176,-6,c),
(147,43,l),
(76,26,o),
(15,-11,o),
(15,-104,cs),
(15,-236,o),
(133,-260,o),
(235,-260,cs)
);
},
{
closed = 1;
nodes = (
(342,175,o),
(419,229,o),
(419,346,cs),
(419,464,o),
(341,520,o),
(232,520,cs),
(124,520,o),
(40,461,o),
(40,343,cs),
(40,226,o),
(123,175,o),
(232,175,cs)
);
},
{
closed = 1;
nodes = (
(168,282,o),
(138,300,o),
(138,330,cs),
(138,360,o),
(166,379,o),
(229,378,cs),
(291,377,o),
(321,359,o),
(321,329,cs),
(321,302,o),
(294,282,o),
(230,282,cs)
);
},
{
closed = 1;
nodes = (
(457,447,l),
(484,537,l),
(460,562,l),
(295,510,l),
(295,447,l)
);
}
);
userData = {
com.hugojourdan.ColorFlow = {
"0" = 0;
"1" = 0;
"10" = 0;
"11" = 0;
"2" = 0;
"3" = 0;
"4" = 0;
"5" = 0;
"6" = 0;
"7" = 0;
"8" = 0;
"9" = 0;
};
};
width = 493;
}
);
unicode = 103;
userData = {
KernOnName = g;
};
},
